<?xml version="1.0" encoding="UTF-8"?>
<svg id="Capa_2" data-name="Capa 2" xmlns="http://www.w3.org/2000/svg" viewBox="0 0 78.09 70.95">
  <defs>
    <style>
      .cls-1 {
        fill: none;
        stroke-width: .75px;
      }

      .cls-1, .cls-2 {
        stroke: #000;
        stroke-miterlimit: 10;
      }

      .cls-2 {
        fill: #fff;
        stroke-width: 2px;
      }
    </style>
  </defs>
  <g id="Capa_1-2" data-name="Capa 1">
    <path class="cls-2" d="m59.6,59.36c-5.38,4.04-12.06,6.44-19.3,6.44-6.48,0-12.51-1.92-17.56-5.21"/>
    <path d="m22.64,22.65l7.33,2.05,7.33,2.05-.82,10.64s0,.08,0,.12l-.04.25c-.06.55-.13,1.11-.29,1.66-1.22,4.37-5.2,7.22-9.53,7.22-.31,0-.63-.01-.94-.04l-4.41,15.76,7.33,6.21-.15.54-20.27-5.67.15-.54,9.56-1.49,4.41-15.76c-4.24-2.05-6.54-6.87-5.23-11.57.15-.55.38-1.07.62-1.57l.09-.24s.03-.07.05-.1l4.82-9.52m-.78-1.78l-.56,1.1-4.82,9.52-.04.07-.03.06-.04.1-.08.19c-.23.5-.49,1.09-.68,1.76-1.37,4.9.68,10.05,4.91,12.71l-3.83,13.69-8.61,1.34-.95.15-.26.93-.15.54-.4,1.44,1.44.4,20.27,5.67,1.44.4.4-1.44.15-.54.26-.93-.73-.62-6.6-5.59,3.83-13.69c5.02-.08,9.44-3.48,10.79-8.31.19-.67.27-1.32.33-1.86l.04-.2v-.07s.02-.07.02-.07v-.14s.82-10.63.82-10.63l.09-1.23-1.19-.33-7.33-2.05-7.33-2.05-1.19-.33h0Z"/>
    <path d="m54.96,15.85l6.57,10.17s.05.07.07.11l.16.25s.61,1.1.85,1.71c2.04,5.14,0,10.86-4.53,13.67l6.84,17.26,10.97.54.24.59-22.2,8.81-.24-.59,7.54-7.88-6.84-17.26c-.74.15-1.49.22-2.23.22-4.47,0-8.69-2.67-10.44-7.08-.24-.61-.39-1.22-.52-1.84l-.08-.28s-.02-.09-.02-.13l-2.18-11.91,8.02-3.18,8.02-3.18m.59-1.85l-1.14.45-8.02,3.18-8.02,3.18-1.14.45.22,1.21,2.18,11.91.02.1v.07s.04.11.04.11l.07.23c.13.6.3,1.31.59,2.03,1.93,4.87,6.58,8.02,11.83,8.02.43,0,.85-.02,1.28-.06l6.05,15.26-6.87,7.18-.67.7.35.89.24.59.55,1.39,1.39-.55,22.2-8.81,1.39-.55-.55-1.39-.24-.59-.36-.9-.96-.05-10-.49-6.05-15.25c4.48-3.43,6.2-9.45,4.09-14.78-.27-.68-.87-1.77-.94-1.89l-.02-.04-.03-.04-.16-.25-.08-.12-6.57-10.16-.67-1.03h0Z"/>
    <path class="cls-1" d="m17.86,30.77s3.62-4,7.66-1.57c4.77,2.87,1.16,8.29,11.42,9.88"/>
    <path class="cls-1" d="m60.97,24.54s-3.92-4.33-8.3-1.7c-5.17,3.11-1.25,8.98-12.38,10.71"/>
    <polygon class="cls-1" points="5.24 8.92 6.82 11.8 9.7 13.38 6.82 14.96 5.24 17.84 3.66 14.96 .78 13.38 3.66 11.8 5.24 8.92"/>
    <g>
      <path d="m40.3.48C26.59.48,14.8,8.84,9.76,20.73l-1.59-2.89-1.85,3.39-3.39,1.85,3.39,1.86,1.39,2.55c-.37,1.99-.57,4.05-.57,6.15,0,9.16,3.65,17.68,10.28,24l.69-.72.69-.73c-6.23-5.94-9.66-13.95-9.66-22.55,0-3.1.45-6.1,1.3-8.93l2.97-1.63-2.01-1.1C16.03,10.56,27.24,2.48,40.3,2.48c6.36,0,12.28,1.92,17.22,5.2l1.96-1.08C54.06,2.75,47.44.48,40.3.48ZM11.85,23.08l-1.07.59-1.28.7-.03.02-1.3,2.37-.22-.41-1.08-1.96-2.37-1.31,2.37-1.3,1.3-2.37,1.22,2.22.08.15.77.42.89.49.72.39Z"/>
      <path d="m75.69,21.99l-4.3-2.35-2.36-4.3-.5.92c-.64-1.03-1.33-2.03-2.09-2.98l1.29-2.36,5.22-2.85-5.22-2.86-2.85-5.21-2.85,5.21-2.54,1.39h-.01l-1.96,1.08-.71.39,4.14,2.26,1.08.59.5.92,2.35,4.3.51-.94c.74.99,1.42,2.03,2.02,3.1l-.73,1.34-4.3,2.35,4.3,2.35,2.35,4.31,1.47-2.69c.63,2.46.96,5.03.96,7.68,0,7.73-2.85,15.14-8.03,20.88l.74.66h0s.75.67.75.67c5.5-6.09,8.54-13.98,8.54-22.21,0-3.35-.5-6.59-1.43-9.65l3.66-2Zm-10.79-7.45l-.02.03-.11-.2-2.19-4-4.2-2.3,1.78-.97,2.42-1.33,2.3-4.21,2.3,4.21,4.21,2.3-4.21,2.3-1.24,2.27-1.04,1.9Zm5.93,9.25l-.61,1.12-1.19,2.17-1.8-3.29-3.29-1.8,3.29-1.8.61-1.11,1.13-2.08.06-.1,1.8,3.29,3.29,1.8-2.33,1.27-.96.53Z"/>
    </g>
  </g>
</svg>