<svg xmlns="http://www.w3.org/2000/svg" viewBox="0 0 74.73 70.26"><defs><style>.cls-1,.cls-2,.cls-3{fill:none;stroke:#000;stroke-miterlimit:10;}.cls-1{stroke-width:2.5px;}.cls-2{stroke-width:1.42px;}.cls-3{stroke-width:1.7px;}</style></defs><g id="Capa_2" data-name="Capa 2"><g id="Capa_1-2" data-name="Capa 1"><circle class="cls-1" cx="37.36" cy="37.01" r="32"/><polyline class="cls-2" points="3.17 53.54 37.36 19.48 71.56 53.54"/><line class="cls-2" x1="37.36" y1="29.42" x2="37.36" y2="49.24"/><line class="cls-2" x1="31.45" y1="35.39" x2="43.28" y2="35.39"/><path class="cls-2" d="M46.26,67.75V62.1a8.9,8.9,0,0,0-8.9-8.9h0a8.91,8.91,0,0,0-8.9,8.9v5.65"/><line class="cls-2" x1="37.36" y1="19.48" x2="37.36"/><line class="cls-2" x1="32.97" y1="23.85" x2="25.82" y2="1.83"/><line class="cls-2" x1="29.83" y1="26.99" x2="15.4" y2="7.14"/><line class="cls-2" x1="26.98" y1="29.82" x2="7.14" y2="15.4"/><line class="cls-2" x1="23.82" y1="32.96" x2="1.83" y2="25.82"/><line class="cls-3" x1="19.6" y1="37.36" y2="37.36"/><line class="cls-2" x1="41.75" y1="23.85" x2="48.91" y2="1.83"/><line class="cls-2" x1="44.9" y1="26.99" x2="59.33" y2="7.14"/><line class="cls-2" x1="47.75" y1="29.82" x2="67.59" y2="15.4"/><line class="cls-2" x1="50.9" y1="32.96" x2="72.9" y2="25.82"/><line class="cls-2" x1="55.13" y1="37.36" x2="74.73" y2="37.36"/><line class="cls-2" x1="61.9" y1="43.92" x2="61.9" y2="57.76"/><line class="cls-2" x1="12.83" y1="43.92" x2="12.83" y2="57.76"/></g></g></svg>