<?xml version="1.0" encoding="UTF-8"?>
<svg id="Capa_2" data-name="Capa 2" xmlns="http://www.w3.org/2000/svg" viewBox="0 0 68.02 75.7">
 <defs>
    <style>
      .cls-1 {
        fill: #1e1e1e;
      }
    </style>
  </defs>
  <g id="Capa_1-2" data-name="Capa 1">
    <path class="cls-1" d="m66.77,36.24l-1.22.31c-.52-16.4-13.11-29.76-29.18-31.51l-3.44-5.04-3.08,4.97C13.12,6.45,0,20.51,0,37.62s12.96,31.01,29.55,32.63l3.38,5.45,3.77-5.52c1.45-.17,2.86-.44,4.25-.79.97,3.37,4.24,5.85,8.12,5.85,4.65,0,8.43-3.57,8.43-7.96v-8.11c2.75-3.16,4.91-6.84,6.3-10.89l3.49-.99.73-.2v-11.16l-1.25.31Zm-42.92-1.88L5.16,51.9c-.54-1.04-1.02-2.12-1.43-3.23l13.81-13.02,28-26.38c.96.43,1.89.91,2.8,1.43.14.09.29.17.43.26l-18.69,17.55h-.01c-2.88.86-5.19,3.04-6.22,5.84h0Zm8.94-27.81c3.84,0,7.51.69,10.9,1.97L2.98,46.48c-.83-2.81-1.28-5.78-1.28-8.85C1.7,20.46,15.62,6.54,32.79,6.54Zm0,39.4c-4.6,0-8.32-3.72-8.32-8.31s3.72-8.32,8.32-8.32,8.31,3.72,8.31,8.32-3.72,8.31-8.31,8.31Zm34.23.39l-2.85.81-.9.25-5.72,1.62-1.05.3v17.97c0,3.85-3.32,6.96-7.43,6.96-3.42,0-6.31-2.16-7.15-5.12-.08-.25-.14-.5-.18-.76-.07-.35-.1-.71-.1-1.08,0-3.84,3.33-6.96,7.43-6.96,1.56,0,3.01.46,4.2,1.22v-20.89l11.52-2.88.78-.2,1.45-.36v9.12Z"/>
  </g>
</svg>