<?xml version="1.0" encoding="UTF-8"?>
<svg id="Capa_2" data-name="Capa 2" xmlns="http://www.w3.org/2000/svg" viewBox="0 0 773.65 117.33">
  <g id="Capa_1-2" data-name="Capa 1">
    <path d="m367.5,43.17v30.99c0,2.6-1.42,4.7-3.18,4.7s-3.18-2.11-3.18-4.7v-30.99c0-2.6,1.42-4.7,3.18-4.7s3.18,2.11,3.18,4.7Zm-18.23-40.18h0c-1.76,0-3.18,2.11-3.18,4.7v101.94c0,2.6,1.42,4.7,3.18,4.7h0c1.76,0,3.18-2.11,3.18-4.7V7.7c0-2.6-1.42-4.7-3.18-4.7Zm-15.05,11.11c-1.76,0-3.18,2.11-3.18,4.7v79.71c0,2.6,1.42,4.7,3.18,4.7s3.18-2.11,3.18-4.7V18.81c0-2.6-1.42-4.7-3.18-4.7Zm-15.05,9.83c-1.76,0-3.18,2.11-3.18,4.7v60.05c0,2.6,1.42,4.7,3.18,4.7s3.18-2.11,3.18-4.7V28.64c0-2.6-1.42-4.7-3.18-4.7Zm-15.05-23.94c-1.76,0-3.18,2.11-3.18,4.7v107.92c0,2.6,1.42,4.7,3.18,4.7s3.18-2.11,3.18-4.7V4.7c0-2.6-1.42-4.7-3.18-4.7Zm-15.05,6.84c-1.76,0-3.18,2.11-3.18,4.7v94.25c0,2.6,1.42,4.7,3.18,4.7s3.18-2.11,3.18-4.7V11.54c0-2.6-1.42-4.7-3.18-4.7Zm-15.05,36.76c-1.76,0-3.18,2.11-3.18,4.7v20.73c0,2.6,1.42,4.7,3.18,4.7s3.18-2.11,3.18-4.7v-20.73c0-2.6-1.42-4.7-3.18-4.7Zm-15.05-11.54c-1.76,0-3.18,2.11-3.18,4.7v43.81c0,2.6,1.42,4.7,3.18,4.7s3.18-2.11,3.18-4.7v-43.81c0-2.6-1.42-4.7-3.18-4.7Zm-15.05-21.37c-1.76,0-3.18,2.11-3.18,4.7v86.55c0,2.6,1.42,4.7,3.18,4.7s3.18-2.11,3.18-4.7V15.39c0-2.6-1.42-4.7-3.18-4.7Zm-15.05,8.55c-1.76,0-3.18,2.11-3.18,4.7v69.45c0,2.6,1.42,4.7,3.18,4.7s3.18-2.11,3.18-4.7V23.94c0-2.6-1.42-4.7-3.18-4.7Zm-15.05,21.8h0c-1.76,0-3.18,2.11-3.18,4.7v25.86c0,2.6,1.42,4.7,3.18,4.7h0c1.76,0,3.18-2.11,3.18-4.7v-25.86c0-2.6-1.42-4.7-3.18-4.7Zm-15.05-30.35c-1.76,0-3.18,2.11-3.18,4.7v86.55c0,2.6,1.42,4.7,3.18,4.7s3.18-2.11,3.18-4.7V15.39c0-2.6-1.42-4.7-3.18-4.7Zm-15.05,8.55c-1.76,0-3.18,2.11-3.18,4.7v69.45c0,2.6,1.42,4.7,3.18,4.7s3.18-2.11,3.18-4.7V23.94c0-2.6-1.42-4.7-3.18-4.7Zm-15.05,9.3c-1.76,0-3.18,2.11-3.18,4.7v50.86c0,2.6,1.42,4.7,3.18,4.7s3.18-2.11,3.18-4.7v-50.86c0-2.6-1.42-4.7-3.18-4.7Zm-15.05-17.85c-1.76,0-3.18,2.11-3.18,4.7v86.55c0,2.6,1.42,4.7,3.18,4.7s3.18-2.11,3.18-4.7V15.39c0-2.6-1.42-4.7-3.18-4.7Zm-15.05,27.78h0c-1.76,0-3.18,2.11-3.18,4.7v30.99c0,2.6,1.42,4.7,3.18,4.7h0c1.76,0,3.18-2.11,3.18-4.7v-30.99c0-2.6-1.42-4.7-3.18-4.7Zm-15.05-6.41c-1.76,0-3.18,2.11-3.18,4.7v43.81c0,2.6,1.42,4.7,3.18,4.7s3.18-2.11,3.18-4.7v-43.81c0-2.6-1.42-4.7-3.18-4.7ZM108.51,0c-1.76,0-3.18,2.11-3.18,4.7v107.92c0,2.6,1.42,4.7,3.18,4.7s3.18-2.11,3.18-4.7V4.7c0-2.6-1.42-4.7-3.18-4.7Zm-15.05,10.69c-1.76,0-3.18,2.11-3.18,4.7v86.55c0,2.6,1.42,4.7,3.18,4.7s3.18-2.11,3.18-4.7V15.39c0-2.6-1.42-4.7-3.18-4.7Zm-15.05,24.36c-1.76,0-3.18,2.11-3.18,4.7v37.82c0,2.6,1.42,4.7,3.18,4.7s3.18-2.11,3.18-4.7v-37.82c0-2.6-1.42-4.7-3.18-4.7Zm-15.05-15.82c-1.76,0-3.18,2.11-3.18,4.7v69.45c0,2.6,1.42,4.7,3.18,4.7s3.18-2.11,3.18-4.7V23.94c0-2.6-1.42-4.7-3.18-4.7Zm-15.05,12.82c-1.76,0-3.18,2.11-3.18,4.7v43.81c0,2.6,1.42,4.7,3.18,4.7s3.18-2.11,3.18-4.7v-43.81c0-2.6-1.42-4.7-3.18-4.7Zm-15.05-21.37c-1.76,0-3.18,2.11-3.18,4.7v86.55c0,2.6,1.42,4.7,3.18,4.7s3.18-2.11,3.18-4.7V15.39c0-2.6-1.42-4.7-3.18-4.7Zm-15.05,8.55c-1.76,0-3.18,2.11-3.18,4.7v69.45c0,2.6,1.42,4.7,3.18,4.7s3.18-2.11,3.18-4.7V23.94c0-2.6-1.42-4.7-3.18-4.7Zm-15.05,12.82h0c-1.76,0-3.18,2.11-3.18,4.7v43.81c0,2.6,1.42,4.7,3.18,4.7h0c1.76,0,3.18-2.11,3.18-4.7v-43.81c0-2.6-1.42-4.7-3.18-4.7Zm376.18-3.53c-1.76,0-3.18,2.11-3.18,4.7v50.86c0,2.6,1.42,4.7,3.18,4.7s3.18-2.11,3.18-4.7v-50.86c0-2.6-1.42-4.7-3.18-4.7Zm379.23,14.64v30.99c0,2.6-1.42,4.7-3.18,4.7s-3.18-2.11-3.18-4.7v-30.99c0-2.6,1.42-4.7,3.18-4.7s3.18,2.11,3.18,4.7Zm-18.23-40.18h0c-1.76,0-3.18,2.11-3.18,4.7v101.94c0,2.6,1.42,4.7,3.18,4.7h0c1.76,0,3.18-2.11,3.18-4.7V7.7c0-2.6-1.42-4.7-3.18-4.7Zm-15.05,11.11c-1.76,0-3.18,2.11-3.18,4.7v79.71c0,2.6,1.42,4.7,3.18,4.7s3.18-2.11,3.18-4.7V18.81c0-2.6-1.42-4.7-3.18-4.7Zm-15.05,9.83c-1.76,0-3.18,2.11-3.18,4.7v60.05c0,2.6,1.42,4.7,3.18,4.7s3.18-2.11,3.18-4.7V28.64c0-2.6-1.42-4.7-3.18-4.7Zm-15.05-23.94c-1.76,0-3.18,2.11-3.18,4.7v107.92c0,2.6,1.42,4.7,3.18,4.7s3.18-2.11,3.18-4.7V4.7c0-2.6-1.42-4.7-3.18-4.7Zm-15.05,6.84c-1.76,0-3.18,2.11-3.18,4.7v94.25c0,2.6,1.42,4.7,3.18,4.7s3.18-2.11,3.18-4.7V11.54c0-2.6-1.42-4.7-3.18-4.7Zm-15.05,36.76c-1.76,0-3.18,2.11-3.18,4.7v20.73c0,2.6,1.42,4.7,3.18,4.7s3.18-2.11,3.18-4.7v-20.73c0-2.6-1.42-4.7-3.18-4.7Zm-15.05-11.54c-1.76,0-3.18,2.11-3.18,4.7v43.81c0,2.6,1.42,4.7,3.18,4.7s3.18-2.11,3.18-4.7v-43.81c0-2.6-1.42-4.7-3.18-4.7Zm-15.05-21.37c-1.76,0-3.18,2.11-3.18,4.7v86.55c0,2.6,1.42,4.7,3.18,4.7s3.18-2.11,3.18-4.7V15.39c0-2.6-1.42-4.7-3.18-4.7Zm-15.05,8.55c-1.76,0-3.18,2.11-3.18,4.7v69.45c0,2.6,1.42,4.7,3.18,4.7s3.18-2.11,3.18-4.7V23.94c0-2.6-1.42-4.7-3.18-4.7Zm-15.05,21.8h0c-1.76,0-3.18,2.11-3.18,4.7v25.86c0,2.6,1.42,4.7,3.18,4.7h0c1.76,0,3.18-2.11,3.18-4.7v-25.86c0-2.6-1.42-4.7-3.18-4.7Zm-15.05-30.35c-1.76,0-3.18,2.11-3.18,4.7v86.55c0,2.6,1.42,4.7,3.18,4.7s3.18-2.11,3.18-4.7V15.39c0-2.6-1.42-4.7-3.18-4.7Zm-15.05,8.55c-1.76,0-3.18,2.11-3.18,4.7v69.45c0,2.6,1.42,4.7,3.18,4.7s3.18-2.11,3.18-4.7V23.94c0-2.6-1.42-4.7-3.18-4.7Zm-15.05,9.3c-1.76,0-3.18,2.11-3.18,4.7v50.86c0,2.6,1.42,4.7,3.18,4.7s3.18-2.11,3.18-4.7v-50.86c0-2.6-1.42-4.7-3.18-4.7Zm-15.05-17.85c-1.76,0-3.18,2.11-3.18,4.7v86.55c0,2.6,1.42,4.7,3.18,4.7s3.18-2.11,3.18-4.7V15.39c0-2.6-1.42-4.7-3.18-4.7Zm-15.05,27.78h0c-1.76,0-3.18,2.11-3.18,4.7v30.99c0,2.6,1.42,4.7,3.18,4.7h0c1.76,0,3.18-2.11,3.18-4.7v-30.99c0-2.6-1.42-4.7-3.18-4.7Zm-15.05-6.41c-1.76,0-3.18,2.11-3.18,4.7v43.81c0,2.6,1.42,4.7,3.18,4.7s3.18-2.11,3.18-4.7v-43.81c0-2.6-1.42-4.7-3.18-4.7ZM499.61,0c-1.76,0-3.18,2.11-3.18,4.7v107.92c0,2.6,1.42,4.7,3.18,4.7s3.18-2.11,3.18-4.7V4.7c0-2.6-1.42-4.7-3.18-4.7Zm-15.05,10.69c-1.76,0-3.18,2.11-3.18,4.7v86.55c0,2.6,1.42,4.7,3.18,4.7s3.18-2.11,3.18-4.7V15.39c0-2.6-1.42-4.7-3.18-4.7Zm-15.05,24.36c-1.76,0-3.18,2.11-3.18,4.7v37.82c0,2.6,1.42,4.7,3.18,4.7s3.18-2.11,3.18-4.7v-37.82c0-2.6-1.42-4.7-3.18-4.7Zm-15.05-15.82c-1.76,0-3.18,2.11-3.18,4.7v69.45c0,2.6,1.42,4.7,3.18,4.7s3.18-2.11,3.18-4.7V23.94c0-2.6-1.42-4.7-3.18-4.7Zm-15.05,12.82c-1.76,0-3.18,2.11-3.18,4.7v43.81c0,2.6,1.42,4.7,3.18,4.7s3.18-2.11,3.18-4.7v-43.81c0-2.6-1.42-4.7-3.18-4.7Zm-15.05-21.37c-1.76,0-3.18,2.11-3.18,4.7v86.55c0,2.6,1.42,4.7,3.18,4.7s3.18-2.11,3.18-4.7V15.39c0-2.6-1.42-4.7-3.18-4.7Zm-15.05,8.55c-1.76,0-3.18,2.11-3.18,4.7v69.45c0,2.6,1.42,4.7,3.18,4.7s3.18-2.11,3.18-4.7V23.94c0-2.6-1.42-4.7-3.18-4.7Zm-15.05,12.82h0c-1.76,0-3.18,2.11-3.18,4.7v43.81c0,2.6,1.42,4.7,3.18,4.7h0c1.76,0,3.18-2.11,3.18-4.7v-43.81c0-2.6-1.42-4.7-3.18-4.7Zm376.18-3.53c-1.76,0-3.18,2.11-3.18,4.7v50.86c0,2.6,1.42,4.7,3.18,4.7s3.18-2.11,3.18-4.7v-50.86c0-2.6-1.42-4.7-3.18-4.7Z"/>
  </g>
</svg>