<svg xmlns="http://www.w3.org/2000/svg" viewBox="0 0 90.48 79.07"><defs><style>.cls-1,.cls-2,.cls-3{fill:none;stroke:#000;stroke-miterlimit:10;}.cls-1{stroke-width:2.5px;}.cls-2{stroke-width:1.42px;}.cls-3{stroke-width:0.85px;}</style></defs><g id="Capa_2" data-name="Capa 2"><g id="Capa_1-2" data-name="Capa 1"><circle class="cls-1" cx="35.44" cy="45.57" r="32"/><polyline class="cls-2" points="35.44 13.83 22.47 5.31 29.83 0.71 35.44 0.71 41.05 0.71 48.41 5.31 35.44 13.83"/><polyline class="cls-3" points="29.83 0.71 28.52 3.94 35.44 13.83"/><polyline class="cls-3" points="41.05 0.71 42.35 3.94 35.44 13.83"/><polyline class="cls-3" points="22.47 5.31 28.52 3.94 42.35 3.94 48.41 5.31"/><circle class="cls-1" cx="54.23" cy="45.82" r="32"/><path class="cls-2" d="M5.66,57.31C1,59.91-2.18,68.1,4.66,72.58c12.22,8,47-14.78,49.57-19.56s-5.1-10.18-9-4.74c-3.89-5.44-11.53,0-9,4.74S73.6,80.58,85.82,72.58c6.84-4.48,3.67-12.67-1-15.27"/></g></g></svg>