<?xml version="1.0" encoding="UTF-8"?>
<svg id="Capa_2" data-name="Capa 2" xmlns="http://www.w3.org/2000/svg" viewBox="0 0 260.75 190.95">
  <defs>
    <style>
      .cls-1 {
        fill: #601c1d;
      }

      .cls-2 {
        fill: #e64379;
      }

      .cls-3 {
        fill: #991c1d;
      }

      .cls-4 {
        fill: #f38bb1;
      }

      .cls-5 {
        fill: #ffcbe3;
      }

      .cls-6 {
        fill: #e5e5e5;
      }

      .cls-7 {
        fill: #ffe610;
      }
    </style>
  </defs>
  <g id="Capa_1-2" data-name="Capa 1">
    <g id="Initials">
      <g id="HalfM">
        <path class="cls-6" d="m115.1,20.3c8.32,1.23,14.1,8.53,17.05,15.89,1.58,3.69,2.77,7.5,3.95,11.17,1.06,3.1,2.19,7.15,4.16,9.44,0,0-5.22,4.07-5.22,4.07-1.51-2.24-2.13-4.33-2.69-6.33-3.11-12.1-3.31-28.9-17.48-33.27,0,0,.23-.98.23-.98h0Z"/>
      </g>
      <g id="BottomB">
        <path class="cls-6" d="m197.31,72.23c13.08-1.86,30.06-1.1,37.25,12.15,6.73,13.1,2.56,29.84-5.34,41.44-17.6,25.44-57.54,38.95-85.02,22.09-11.37-6.97-18.75-19.35-21.76-31.91,3.38,7.87,7.93,15.22,14.04,20.83,27.54,26.06,78.63,5.05,88.63-28.7,1.88-6.55,3.61-13.68,1.75-20.36-3.42-11.74-18.31-15.88-29.51-15.34,0,0-.02-.2-.02-.2h0Z"/>
      </g>
      <g id="TopB">
        <path class="cls-6" d="m135.03,60.86c18.06-17.78,53.48-48.37,80.6-39.57,11.31,3.76,18.18,16.23,14.54,27.73-3.16,10.61-12.75,17.72-22.84,21.05-3.25,1.17-6.64,1.82-9.99,2.36,0,0-.05-.2-.05-.2,11.95-4.21,25.03-11.31,27.96-24.46,1.23-5.71-.32-12.01-4.44-16.21-6.15-6.7-16.86-8.1-25.75-6.24-16.37,3.43-30.9,12.9-44.1,22.91-5.34,4.13-10.52,8.49-15.39,13.16l-.54-.54h0Z"/>
      </g>
      <g id="MiddleLine">
        <path class="cls-6" d="m173.43,19.12c7.78,15.94,1.96,34.9-3.13,50.8-2.85,8.2-5.84,16.35-9.58,24.19-7.37,15.53-16.08,30.38-22.98,46.02-4.3,10.46-10.1,23.69-6.15,34.78,1.49,3.43,3.9,6.63,6.8,8.96,5.18,4.29,13.51,4.77,19.12.76.83-.61,1.6-1.35,2.01-2.36-.05,1.11-.65,2.16-1.33,3.05-3.76,4.53-10.15,6.36-15.91,5.32-6.62-1.19-11.98-6.06-15.33-11.69-12.48-22.22,19.5-66.25,29.78-86.86,4.02-7.51,7.36-15.39,10.51-23.3,6.07-15.68,11.26-33.09,6.19-49.69h0Z"/>
      </g>
      <g id="BottomM">
        <path class="cls-6" d="m9.67,140.26c10.49,5.96,26.92-3.66,36.05-9.82,24.69-16.47,42.15-41.11,54.24-68,6.12-13.54,11.37-27.58,15.1-41.98,0,0,.99.21.99.21-2.93,14.75-7.3,29.18-12.87,43.15-9.76,24.51-23.67,48.31-44,65.7-12.53,10.9-34.66,26.62-51.95,19.37-1.18-.52-2.27-1.34-3.25-2.36l5.69-6.28h0Z"/>
      </g>
      <g id="TopM">
        <path class="cls-6" d="m115.11,78.82c-16.25,7.32-33.64,11.82-50.82,16.42-16.72,4.13-34.62,8.1-47.19,20.57-5.39,5.32-10.22,13.02-9.22,20.71.33,1.9,1.01,3.33,2.59,4.17,0,0-4.62,7.44-4.62,7.44-3.58-2.3-5.67-6.8-5.82-10.8-.43-10.41,5.73-19.31,13.14-25.8,9.47-8.06,21.15-12.61,33.02-15.38,5.92-1.33,11.7-2.23,17.51-3.46,17.33-3.59,35.01-7.51,51.41-13.87h0Z"/>
      </g>
    </g>
    <g id="branchCenter">
      <path class="cls-1" d="m150.72,140.05s-1.51-3.88-7.44-2.75-9.49,1.86-9,4.19c.54,2.55,4.86.32,10.94,1.67,2.38.53,4.77-.79,5.5-3.11h0Z"/>
      <path class="cls-1" d="m150.13,187.37c0-.81-.25-1.77-.65-2.53-.41-.77-1-1.39-1.82-1.73l.18.02c-3.66-.83-7.11,1.09-10.44,2.48-3.64,1.42-7.49,2.78-11.47,2.12,0,0-.12-.03-.12-.03l-.14-.08c-2.43-1.55-3.16-4.4-3.72-7-.42-2.65-.57-6.87,2.66-7.9,0,0,.72,2.74.72,2.74-.04.04-.16.08-.31.42-.82,2.27-.33,5.14.4,7.43.32.96.89,1.94,1.38,2.26l-.26-.11c5.24,1.24,10.68-1.53,15.68-3.02,1.93-.4,3.69-1.12,5.69-1.39,2.99.25,5.18,2.85,6.02,5.58,0,0-3.8.73-3.8.73h0Z"/>
      <path class="cls-1" d="m130.46,170.78c1.97.16,3.55-1.88,4.16-3.55,0,0-.11.38-.11.38.63-2.25.83-4.55.99-6.87,0,0,.5,1.01.5,1.01-2.35-1.7-4.63-3.37-6.82-5.25-1.58-1.48-3.54-2.8-4.61-4.78-.41-.75-.66-1.6-.77-2.46.18-1.44.59-2.72,1.33-3.96.74-1.22,1.99-2.21,3.41-2.53,2.35-.52,4.69-1.26,6.96-2.13,0,0,.41.89.41.89-2.24,1.16-4.56,2.08-6.99,2.77-.48.16-.93.39-1.31.71-1.17.86-1.85,3.35-1.91,4.16.53,2.24,2.61,4.6,4.43,6.19,2.3,1.89,4.84,3.59,7.51,4.9-.35,2.53-.88,5.05-.76,7.62,0,0,0,.06,0,.06l-.11.31c-1.56,2.25-3.08,4.08-5.72,5.29,0,0-.59-2.77-.59-2.77h0Z"/>
      <path class="cls-1" d="m125.19,151.63c-1.87-.79-3.39-1.92-5.42-1.52-.58.31-2.48,1.31-3.4,2.04,0,0-.05-.05-.05-.05,1.02-.97,2.12-1.98,3.35-2.68,1.02-.05,2.07-.17,3.08.1,1.01.22,1.96.69,2.79.86l-.36,1.25h0Z"/>
      <path class="cls-1" d="m134.65,167.97c2.32-.7,4.77-1.47,7.2-.93.98.87,1.82,1.87,2.38,3.02,0,0-.09.05-.09.05-.51-.98-1.94-2.21-2.44-2.63-2.22,0-4.35,1.17-6.25,2.2,0,0-.79-1.71-.79-1.71h0Z"/>
    </g>
    <g id="branchRight">
      <path class="cls-1" d="m189.44,144.11c-.39-1.12-.11-1.91.1-2.56.7-1.77,1.9-3.15,3.3-4.36.97-.87,2.5-1.69,3.87-1.16,3.26,1.22,5.65,3.56,8.46,5.37,1.63,1.16,3.99,2.54,5.46,2.91,1.59-.04,3.18-.48,4.56-1.28.45-.27.92-.57,1.26-.9,0,0,.8,1.07.8,1.07-2.07,1.13-4.29,1.86-6.64,2.01-4.43-1-7.8-4.09-11.65-6.15-1.1-.57-2.16-1.22-3.26-1.23-.11.02-.2.04-.37.14-1.48.95-2.76,2.72-3.27,4.39-.1.37-.04.72-.01.63l-2.61,1.12h0Z"/>
      <path class="cls-1" d="m223.97,136.79s-3.74-.25-4.65,1.31c-1.5,2.57-4.05,3.47-3.01,5.14.68,1.09,2.9.43,5.32.79,1.27.19,2.5-.6,3.37-1.54l.38-.57c1.17-1.78.51-4.19-1.41-5.12h0Z"/>
      <path class="cls-1" d="m206.53,143.18c-.09.02-.22.24-.29.5-.38,2.24.32,4.57,1.04,6.71,1.25.94,4.77,2.01,7.07,2.25,0,0-.13.77-.13.77-1.16-.26-2.76-.6-3.89-.93-1.38-.41-2.72-.72-3.87-1.73-.49-2.04-1.22-4.02-1.51-6.13-.07-.87-.19-1.63.38-2.5,0,0,1.2,1.05,1.2,1.05h0Z"/>
      <path class="cls-1" d="m202.18,139.7c1.26-.47,2.85-1.14,3.48-2.38,0,0-.04.13-.04.13.12-.6.21-1.27.27-1.91.17-1.97.05-3.98-.58-5.85.75,1.13,1.16,2.47,1.39,3.82.21,1.41.31,2.83.13,4.26-.21.57-.59.85-.93,1.12-.97.83-1.95,1.52-3.01,2.23,0,0-.7-1.43-.7-1.43h0Z"/>
    </g>
    <g id="branchLeft">
      <path class="cls-1" d="m86.88,88.52c.09.43-.03.81-.17,1.18v.02c-.21.63-.34,1.25.82,2.18.17.14.3.3.41.45h0c.39.61.32,1.31.09,1.92-.13.34-.31.67-.56.94-.61.75-1.57,1.26-2.5,1.28-.84.03-1.7-.24-2.08-1.23-.84-2.24-1.93-1.05-3-1.68-1.35-.76-1.84-6.23-.1-7.49.22-.16.5-.26.85-.29,2.07-.32,5.96,1.41,6.23,2.72Z"/>
      <path class="cls-1" d="m81.44,109.15c2.09-1.07,3.19-3.6,4.95-5.14,2.3-.53,4.6-1.4,6.81-2.28,0,0,.08.18.08.18-1.06.54-2.12,1.06-3.19,1.56-1,.45-2.28,1.08-3.33,1.41,0,0,.16-.07.16-.07-2.11,1.3-2.76,4.01-4.5,5.75,0,0-.96-1.41-.96-1.41h0Z"/>
      <path class="cls-1" d="m76.79,103.95c-1.32-.02-2.03-1.58-3.23-1.68,0,0,.37-.03.37-.03-.56-.05-.96.21-1.41.38-1.3.59-2.74,1.2-4.17,1.37-1.16-.15-2.33-.59-3.1-1.48.8.6,2.26.99,3.06.98,1.33-.35,2.67-.92,3.98-1.41.47-.21,1.01-.39,1.3-.91,0,0,.28.1.28.1,1.09.45,1.87,1.79,2.87,1.88,0,0,.06.79.06.79h0Z"/>
      <path class="cls-1" d="m73.17,115.5c.15.5.88.38,1.42.29,2.83-.61,5.4-2.23,8.58-1.81,0,0-.85.6-.85.6.11-1.39-.31-2.89-.67-4.24-.42-1.4-1.29-2.45-2.35-3.45-1.54-1.55-3.95-3.05-4.35-5.46-.18-.96-.12-1.91-.43-2.78,0,0,.42-.13.42-.13,1.21-.35,2.18-.78,3.36-1.09.4-.08.84-.24,1.5,0l-.75,1.04c.04-.17-.33-.3-.65-.28-1.03.07-2.08.65-2.77,1.42,0,0,.3-.55.3-.55-.23.81-.26,1.48-.11,2.18.73,3.02,4.29,3.96,5.9,6.52.47.66.64,1.56.81,2.31.2.78.75,2.58.92,3.35.09.45.22.78.23,1.3,0,0-.11.87-.11.87,0,0-.74-.27-.74-.27-3.47-1.07-6,2.44-9.32,2.92-.67.1-1.58-.1-2.26-.6l1.9-2.15h0Z"/>
      <path class="cls-1" d="m85.11,99.4c.19.12.92-.17,1.17-.39.45-.32.85-.76,1.01-1.33,0,0-.17.5-.17.5.47-1.2-.26-2.62-.92-3.62,0,0,1.03-.65,1.03-.65.75,1.41,1.06,2.72,1.56,4.27,0,0-.16.5-.17.5-1.22.86-2.48,2.29-4.14,1.67,0,0,.62-.95.62-.95h0Z"/>
    </g>
    <g id="floatingPetals">
      <g id="rightPetal2">
        <g>
          <path class="cls-4" d="m260.63,102.42c0-.56-.75-2.99-1.38-3.02s-1.94,1.12-1.94,1.12c0,0-1.12-1.9-2.82-1.54s-9.35,3.35-10.69,3.15c0,0,3.44.92,6.36,1.05s5.12,2.13,7.45,1.8,3.02-2.56,3.02-2.56Z"/>
          <path class="cls-2" d="m257.08,105.14c-1.06,0-2.11-.41-3.2-.85-1.16-.46-2.36-.93-3.72-.99-2.9-.13-6.36-1.04-6.39-1.05l.05-.25c.83.12,4.22-1.04,6.96-1.97,1.64-.56,3.06-1.04,3.7-1.18,1.52-.33,2.58,1.04,2.88,1.48.34-.29,1.31-1.05,1.88-1.05.01,0,.02,0,.03,0,.75.04,1.5,2.61,1.5,3.14v.04s-.75,2.31-3.13,2.65c-.18.03-.36.04-.54.04Zm-12.51-2.95c1.17.27,3.53.77,5.59.86,1.41.06,2.63.54,3.8,1.01,1.25.49,2.42.96,3.62.79,2.11-.3,2.84-2.25,2.91-2.45-.02-.67-.79-2.85-1.26-2.87,0,0-.01,0-.02,0-.48,0-1.48.78-1.83,1.08l-.11.1-.08-.13s-1.09-1.81-2.69-1.48c-.62.13-2.03.61-3.67,1.17-2.32.79-4.89,1.67-6.28,1.92Z"/>
        </g>
        <g>
          <path class="cls-5" d="m254.11,99.07s-2.38-2.49-6.25-2.23-5.61,1.71-5.54,3.54,1.48,1.74,1.48,1.74c0,0,4.92,1.6,10.32-3.05Z"/>
          <path class="cls-2" d="m245.93,102.51c-1.21,0-2-.21-2.14-.25-.12,0-.6,0-1.01-.38-.36-.32-.55-.82-.58-1.48-.07-2.08,1.99-3.42,5.66-3.67,3.88-.25,6.33,2.24,6.35,2.27l.09.09-.1.09c-3.22,2.78-6.3,3.34-8.27,3.34Zm-2.11-.51h.02s4.86,1.51,10.09-2.93c-.48-.44-2.72-2.33-6.06-2.1-3.52.24-5.5,1.48-5.43,3.41.02.59.19,1.03.49,1.3.38.34.85.32.85.32h.02Z"/>
        </g>
      </g>
      <g id="rightPetal1">
        <g>
          <path class="cls-4" d="m254.51,76.82c-2.02.42-13.12,3.39-11.41,14.11l11.53-13.91c.07-.09,0-.22-.11-.2Z"/>
          <path class="cls-2" d="m243.01,91.22l-.04-.27c-1.78-11.13,10.15-13.97,11.51-14.25h0c.11-.03.2.02.25.11.05.09.05.2-.02.29l-11.7,14.13Zm11.5-14.28c-1.41.3-12.83,3.06-11.34,13.69l11.34-13.69Z"/>
        </g>
        <g>
          <path class="cls-5" d="m243.05,91.1c5.07-1.92,7.87-1.83,11.55-4.44,3.68-2.62,4.22-7.65,3.9-8.07s-2.48.85-2.99.53-.31-1.95-.93-2.3c-12.61,5.13-11.38,12.28-11.52,14.27Z"/>
          <path class="cls-2" d="m242.91,91.29v-.2c.03-.18.03-.41.03-.67.02-2.7.07-9.02,11.58-13.71l.06-.02.05.03c.38.21.48.77.58,1.32.08.42.16.86.35.98.2.12.88-.11,1.43-.3.77-.27,1.38-.48,1.6-.2.15.2.12.88.03,1.45-.32,2.15-1.52,5.07-3.96,6.8-2.38,1.69-4.36,2.25-6.87,2.95-1.36.38-2.89.82-4.7,1.5l-.18.07Zm11.65-14.32c-11.3,4.62-11.35,10.81-11.37,13.45,0,.18,0,.35,0,.5,1.74-.65,3.23-1.07,4.54-1.44,2.49-.7,4.45-1.25,6.79-2.92,2.34-1.66,3.52-4.47,3.84-6.55.13-.85.08-1.28.03-1.34-.11-.14-.84.11-1.32.28-.69.24-1.34.47-1.64.28-.29-.18-.38-.65-.47-1.15-.08-.46-.17-.93-.41-1.12Z"/>
        </g>
      </g>
      <g id="topPetal2">
        <path class="cls-5" d="m177.09,15.26c.47-.07,3.7-4.38,3.31-6.75s-1.64-4.1-2.02-5.03-.93-2.44-.93-2.44c0,0-.97.15-1.18,1.06,0,0-.56-1.06-.79-1.87,0,0-3.45,3.02-2.69,8.04s3.78,7.07,4.3,6.99Z"/>
        <path class="cls-2" d="m177.06,15.38c-.4,0-1.3-.6-2.13-1.63-.81-1-1.86-2.75-2.26-5.47-.76-5.03,2.7-8.12,2.73-8.15l.15-.13.05.19c.16.55.47,1.22.65,1.58.34-.73,1.15-.86,1.19-.87h.1s.04.08.04.08c0,.01.55,1.51.93,2.43.1.24.27.55.46.91.54,1.01,1.29,2.4,1.57,4.15.25,1.58-1.04,4.03-2.22,5.65-.26.36-.91,1.2-1.19,1.25-.02,0-.03,0-.05,0Zm-1.64-14.93c-.64.64-3.15,3.49-2.51,7.79.4,2.66,1.42,4.38,2.21,5.35.9,1.11,1.72,1.54,1.93,1.54,0,0,.01,0,.02,0,.48-.13,3.58-4.34,3.21-6.61-.28-1.71-1.01-3.08-1.54-4.07-.19-.36-.36-.68-.47-.93-.32-.79-.76-1.98-.9-2.34-.24.06-.83.28-.98.94l-.08.33-.16-.29s-.49-.92-.74-1.7Z"/>
      </g>
      <g id="topPetal1">
        <path class="cls-5" d="m182.43,18.04c.07.76.83,1.25,1.56,1.03.58-.18,1.38-.36,2.48-.5,3-.38,8.92-1.69,9.13-8.33,0,0-1.7-.57-3.11.29,0,0-.34-1.29.85-2.05,0,0-4.17-.93-7.44,1.86-2.89,2.46-3.76,4.66-3.47,7.7Z"/>
        <path class="cls-2" d="m183.63,19.25c-.26,0-.52-.08-.75-.23-.33-.22-.54-.58-.58-.97h0c-.3-3.21.69-5.4,3.52-7.81,3.28-2.8,7.5-1.89,7.55-1.88l.29.07-.25.16c-.85.55-.86,1.39-.82,1.74,1.4-.74,2.98-.23,3.05-.21l.09.03v.09c-.16,4.84-3.27,7.69-9.25,8.45-.96.12-1.78.29-2.46.5-.13.04-.26.06-.39.06Zm-1.08-1.22c.03.32.2.61.47.79.27.18.61.23.92.14.69-.21,1.54-.38,2.5-.51,5.8-.74,8.83-3.47,9.02-8.11-.36-.1-1.75-.4-2.91.3l-.14.09-.04-.16s-.3-1.2.66-2c-.98-.14-4.34-.42-7.05,1.88-2.76,2.35-3.72,4.48-3.43,7.59h0Z"/>
      </g>
      <g id="centerPetal">
        <g>
          <path class="cls-4" d="m194.68,168.2l7.56,1.95c5.43,1.89,11.8-.91,12.68-2.78.19-.39.3-.66.31-.95,0,0-.87,1.29-2.82,1.11-1.95-.17-8.16-3.13-11.5-2.31-3.23.79-4.68,1.68-6.23,2.97Z"/>
          <path class="cls-2" d="m206.12,170.91c-1.3,0-2.64-.19-3.93-.64l-7.78-2.01.19-.16c1.6-1.34,3.08-2.21,6.28-3,2.28-.56,5.87.61,8.5,1.47,1.29.42,2.41.78,3.04.84.12.01.24.02.35.02,1.6,0,2.32-1.03,2.35-1.08l.24-.36v.43c-.03.3-.13.58-.33,1-.66,1.4-4.58,3.48-8.9,3.48Zm-11.18-2.77l7.32,1.89c5.49,1.91,11.71-.95,12.54-2.71.09-.18.15-.33.2-.47-.42.39-1.26.94-2.61.81-.66-.06-1.79-.42-3.09-.85-2.6-.85-6.16-2-8.36-1.46-3.03.75-4.49,1.57-5.99,2.79Z"/>
        </g>
        <g>
          <path class="cls-5" d="m193.71,167.95l.96.25c1.55-1.29,3-2.18,6.23-2.97,3.34-.82,9.55,2.14,11.5,2.31,1.88.17,2.62-1.05,2.66-1.12-.12.04-1.31.32-1.97.27,0,0,.77-.6,1.15-1.04-.75-.17-1.56-.44-2.27-.83-1.34-.73-4.66-3.46-9.54-2.82-4.88.65-8.71,5.95-8.71,5.95Z"/>
          <path class="cls-2" d="m194.71,168.34l-1.2-.31.11-.15c.04-.05,3.92-5.35,8.8-6,4.21-.55,7.27,1.37,8.91,2.41.28.17.51.32.71.43.62.34,1.37.61,2.24.81l.2.05-.14.16c-.24.28-.63.61-.89.83.65-.04,1.49-.23,1.58-.26l.29-.1-.14.27s-.75,1.39-2.78,1.19c-.66-.06-1.79-.42-3.09-.85-2.6-.85-6.16-2-8.36-1.46-3.16.78-4.61,1.63-6.18,2.95l-.05.04Zm-.78-.46l.72.19c1.58-1.32,3.06-2.18,6.23-2.96,2.28-.56,5.87.61,8.5,1.47,1.29.42,2.41.78,3.04.84,1.31.13,2.03-.45,2.34-.8-.44.09-1.19.22-1.67.19l-.32-.02.26-.2s.6-.47.99-.87c-.8-.2-1.51-.46-2.1-.79-.2-.11-.44-.26-.72-.44-1.61-1.02-4.62-2.91-8.74-2.37-4.32.57-7.86,4.9-8.52,5.75Z"/>
        </g>
      </g>
      <g id="leftPetal4">
        <path class="cls-5" d="m74.08,127.7c.69-.25,7.65,1.76,8.51,4.31s.16,5.05.19,6.21.16,2.97.16,2.97c0,0-1.42.51-2.25-.23,0,0-.15,1.4.01,2.33,0,0-6.5-.62-8.42-5.97s1.02-9.35,1.79-9.63Z"/>
        <path class="cls-2" d="m80.86,143.43l-.16-.02c-.07,0-6.6-.69-8.52-6.05-1.93-5.38.96-9.46,1.87-9.78h0c.46-.16,3.08.49,5.34,1.58,1.3.62,2.93,1.62,3.33,2.81.64,1.89.44,3.72.29,5.06-.05.47-.1.88-.09,1.18.03,1.14.15,2.95.16,2.97v.09s-.08.03-.08.03c-.06.02-1.31.46-2.19-.11-.03.43-.09,1.39.03,2.07l.03.16Zm-6.73-15.62h0c-.76.27-3.58,4.26-1.72,9.47,1.7,4.75,7.14,5.73,8.15,5.87-.12-.93,0-2.15.01-2.2l.03-.24.18.16c.65.58,1.72.33,2.03.24-.03-.39-.13-1.89-.15-2.88,0-.32.04-.74.09-1.22.15-1.32.35-3.12-.28-4.96-.38-1.11-1.95-2.06-3.2-2.66-2.35-1.13-4.83-1.68-5.15-1.57Z"/>
      </g>
      <g id="leftPetal3">
        <path class="cls-5" d="m66.9,130.51c-.34-.49-1.01-.58-1.38-.19-.3.31-.73.69-1.37,1.14-1.75,1.23-4.97,4.04-2.53,8.58,0,0,1.29-.17,1.85-1.2,0,0,.71.76.26,1.65,0,0,2.99-.72,3.97-3.67.87-2.6.56-4.36-.79-6.32Z"/>
        <path class="cls-2" d="m63.48,140.68l.12-.24c.31-.61.03-1.14-.13-1.38-.62.93-1.79,1.1-1.84,1.11h-.09s-.04-.07-.04-.07c-1.79-3.33-.92-6.27,2.57-8.74.55-.39,1.01-.77,1.35-1.13.19-.2.47-.3.75-.28.33.03.62.2.82.48h0c1.44,2.07,1.66,3.88.81,6.43-.99,2.98-4.03,3.74-4.06,3.75l-.26.06Zm-.05-2.05l.12.13s.64.69.38,1.54c.72-.25,2.85-1.15,3.64-3.51.82-2.47.61-4.21-.78-6.21h0c-.15-.22-.38-.35-.63-.37-.21-.02-.41.05-.55.2-.36.37-.83.76-1.39,1.16-3.35,2.36-4.2,5.17-2.54,8.34.29-.06,1.23-.31,1.67-1.12l.08-.15Z"/>
      </g>
      <g id="leftPetal2">
        <path class="cls-5" d="m45.66,81.95c.42-.23,1.96-5.39.79-7.48s-2.95-3.28-3.63-4.03-1.71-1.97-1.71-1.97c0,0-.86.47-.75,1.4,0,0-.89-.8-1.39-1.48,0,0-2.19,4.02.24,8.48s5.98,5.34,6.45,5.08Z"/>
        <path class="cls-2" d="m45.42,82.12c-.49,0-1.37-.27-2.31-.83-1.1-.66-2.69-1.95-4.01-4.35-2.44-4.46-.26-8.55-.24-8.59l.09-.17.12.16c.33.46.86.98,1.15,1.26.07-.8.78-1.2.82-1.22l.09-.05.07.08s1.04,1.23,1.71,1.96c.18.2.44.43.74.7.86.76,2.03,1.8,2.9,3.35.78,1.39.41,4.14-.14,6.07-.1.34-.43,1.45-.69,1.59-.07.04-.17.06-.3.06Zm-6.43-13.48c-.38.82-1.76,4.36.33,8.18,1.29,2.36,2.84,3.62,3.92,4.26,1.27.75,2.2.86,2.36.77.4-.28,1.86-5.31.74-7.31-.85-1.51-2.01-2.54-2.85-3.29-.31-.27-.58-.51-.76-.72-.57-.63-1.4-1.6-1.65-1.89-.2.14-.68.55-.6,1.22l.04.33-.25-.22s-.78-.7-1.28-1.34Z"/>
      </g>
      <g id="leftPetal1">
        <g>
          <path class="cls-4" d="m39.54,93.25c-.35-.04-1.07-.99-2.14-1.39-1.18-.43-1.84-1.4-2.19-2.21s-.05-2.89.06-3.98c.11-1.08-.08-3.44.16-3.6h0c-.03.23-.02.51.09.81.3.81,1.66,2.51,1.73,2.78.07.27.05,1.65-.17,2.31,0,0,1.42.98,1.7,1.63,0,0-.11,2.9.75,3.64Z"/>
          <path class="cls-2" d="m39.93,93.42l-.4-.04c-.18-.02-.4-.2-.69-.45-.37-.31-.87-.73-1.48-.95-1.25-.46-1.92-1.49-2.26-2.28-.32-.74-.12-2.48,0-3.62l.05-.42c.05-.44.04-1.11.03-1.75-.01-1.32,0-1.82.18-1.94l.21-.11-.02.23c-.04.26,0,.51.08.75.17.47.75,1.29,1.16,1.89.35.51.54.78.57.9.07.27.06,1.58-.15,2.29.31.22,1.41,1.03,1.67,1.63v.03s0,.03,0,.03c0,.03-.1,2.85.71,3.54l.31.26Zm-4.5-10.43c0,.3,0,.63,0,.92,0,.65.01,1.32-.04,1.78l-.05.42c-.13,1.12-.32,2.82-.03,3.5.32.74.95,1.71,2.12,2.14.65.24,1.17.67,1.55.99.03.03.06.05.1.08-.48-1.05-.44-2.91-.43-3.18-.29-.62-1.63-1.54-1.65-1.55l-.08-.05.03-.09c.22-.63.24-1.98.17-2.24-.02-.09-.3-.48-.54-.83-.43-.62-.96-1.38-1.17-1.88Z"/>
        </g>
        <g>
          <path class="cls-5" d="m39.64,93.24s-.05.02-.09.02h0s0,0,0,0c-.87-.74-.75-3.64-.75-3.64-.28-.66-1.7-1.63-1.7-1.63.23-.66.25-2.04.17-2.31-.07-.27-1.43-1.98-1.73-2.78-.11-.3-.12-.58-.09-.81.26-.13,2.89,1.67,3.32,2.65.44.98-.1,2.13.28,3.02.17.4,1.25,2.23,1.26,2.92,0,.69-.37,2.42-.67,2.59Z"/>
          <path class="cls-2" d="m39.57,93.38s-.02,0-.03,0l-.08-.03-.02-.03c-.84-.72-.79-3.36-.78-3.69-.29-.62-1.63-1.54-1.65-1.55l-.08-.05.03-.09c.22-.63.24-1.98.17-2.24-.02-.09-.3-.48-.54-.83-.45-.64-1.01-1.45-1.19-1.95-.1-.28-.13-.57-.09-.87v-.06s.07-.03.07-.03c.06-.03.14-.03.25.01.64.22,2.82,1.76,3.24,2.69.24.53.2,1.1.17,1.65-.03.5-.06.97.11,1.37.04.09.14.28.26.51.4.76,1,1.9,1.01,2.45,0,.62-.34,2.48-.74,2.7-.04.02-.08.03-.13.03Zm-2.34-5.45c.31.22,1.41,1.03,1.67,1.63v.03s0,.03,0,.03c0,.03-.1,2.77.68,3.51.22-.16.6-1.74.6-2.47,0-.49-.62-1.65-.98-2.34-.13-.24-.22-.42-.27-.53-.2-.46-.17-.98-.13-1.48.03-.52.06-1.06-.15-1.53-.4-.88-2.59-2.39-3.1-2.56-.01.22.02.43.09.63.17.47.75,1.29,1.16,1.89.35.51.54.78.57.9.07.27.06,1.58-.15,2.29Z"/>
        </g>
      </g>
    </g>
    <g id="flowerButtonLeft">
      <g>
        <path class="cls-4" d="m97.49,97.57s.52.04.82.28v.62s.65.33.65.33c0,0,.16.33-.25,1.12l-2.74-.16,1.52-2.2Z"/>
        <path class="cls-2" d="m98.77,100.03l-2.98-.17,1.66-2.39h.06s.56.04.87.31l.04.03v.61s.62.32.62.32v.03s.18.39-.23,1.21l-.03.06Zm-2.62-.35l2.5.14c.28-.56.24-.86.22-.95l-.68-.34v-.64c-.2-.16-.53-.21-.65-.22l-1.39,2.01Z"/>
      </g>
      <g>
        <path class="cls-5" d="m91.73,102.41s.85-2.46,2.77-3.23,3.15-1.45,3.15-1.45l-.32-.3s.36-.13.54,0c0,0-1.89-1.44-4.2-.05s-2.31,3.37-1.94,5.03Z"/>
        <path class="cls-2" d="m91.73,102.51h0s-.08-.03-.09-.08c-.34-1.49-.5-3.65,1.98-5.14,2.22-1.33,4.1-.09,4.3.05,0,0,.01,0,.02.01.04.03.05.1.02.14-.03.04-.1.05-.14.02,0,0,0,0,0,0-.06-.04-.17-.04-.26-.03l.19.17s.04.05.03.09-.02.06-.05.08c-.01,0-1.26.69-3.17,1.46-1.86.74-2.71,3.15-2.72,3.17-.01.04-.05.07-.09.07Zm4-5.63c-.6,0-1.28.15-2.01.58-2.2,1.32-2.23,3.19-1.96,4.6.3-.7,1.15-2.36,2.71-2.98,1.55-.62,2.66-1.19,3.02-1.38l-.22-.2s-.04-.06-.03-.09.03-.06.06-.07c.01,0,.07-.02.14-.04-.36-.18-.96-.41-1.71-.41Z"/>
      </g>
      <g>
        <path class="cls-5" d="m91.73,102.41s2.57.41,4.16-.92,2.77-2.1,2.77-2.1l.11.43s.29-.26.25-.47c0,0,.38,2.35-1.93,3.73s-4.07.45-5.35-.66Z"/>
        <path class="cls-2" d="m94.8,103.87c-1.33,0-2.38-.73-3.14-1.38-.03-.03-.04-.08-.03-.12.02-.04.06-.07.11-.06.03,0,2.55.39,4.08-.9,1.57-1.33,2.76-2.1,2.78-2.11.03-.02.06-.02.09,0,.03.01.05.04.06.07l.06.24c.06-.08.11-.17.1-.24,0,0,0-.01,0-.01,0-.05.03-.11.08-.11.07,0,.11.03.12.08,0,0,0,.02,0,.03.03.25.23,2.48-1.98,3.81-.86.51-1.63.71-2.33.71Zm-2.75-1.32c1.12.9,2.78,1.76,4.98.44,1.64-.98,1.89-2.48,1.91-3.2-.05.06-.09.09-.1.11-.03.02-.06.03-.1.02-.03,0-.06-.04-.07-.07l-.07-.29c-.33.23-1.36.94-2.64,2.01-1.28,1.08-3.14,1.05-3.91.99Z"/>
      </g>
      <g>
        <path class="cls-5" d="m91.73,102.41s-.58-1.94,1.41-3.35,3.34-1.37,4.82-.38l-.24.53.51.23s-1.34,5.65-6.49,2.98Z"/>
        <path class="cls-2" d="m94.29,103.22c-.79,0-1.67-.24-2.6-.73-.02-.01-.04-.03-.05-.06,0-.02-.58-2.02,1.45-3.46,1.9-1.35,3.32-1.46,4.93-.38.04.03.06.08.04.12l-.19.43.42.18s.07.07.06.12c-.03.1-.63,2.57-2.58,3.46-.45.21-.94.31-1.46.31Zm-2.47-.88c1.48.75,2.77.89,3.85.39,1.67-.77,2.32-2.82,2.44-3.25l-.43-.19s-.04-.03-.05-.06c0-.03,0-.05,0-.08l.2-.45c-1.51-.99-2.82-.86-4.63.42-1.77,1.26-1.45,2.92-1.38,3.2Z"/>
      </g>
      <path class="cls-1" d="m91.67,99.64s-.3.5-.3,1.29c0,.36-.03.72-.15,1.07-.01.03-.02.06-.03.08,0,0,.3-.04.32-.09.53-1.29.16-2.35.16-2.35Z"/>
      <path class="cls-1" d="m94.13,103.75s-.59.03-1.28-.35c-.32-.17-.65-.31-1.01-.37-.04,0-.07-.01-.09-.02,0,0,.18-.24.23-.24,1.38.14,2.14.97,2.14.97Z"/>
      <path class="cls-1" d="m91.3,102.01s.34-.65.91-.81,1.09-.02,1.2.19-.34,1.76-1.54,1.56c0,0-.62.91-1.4.14,0,0-.21-1.03.83-1.09Z"/>
    </g>
    <g id="flowerButtonRight">
      <g>
        <path class="cls-4" d="m223.54,156.6s.28.57.2,1.02l-.66.36.05.89s-.24.36-1.32.42l-1.5-2.95,3.22.26Z"/>
        <path class="cls-2" d="m221.75,159.4l-.03-.06-1.58-3.11,3.45.28.03.05s.29.6.21,1.08v.05s-.65.36-.65.36l.05.86-.02.03s-.3.41-1.4.47h-.07Zm-1.27-2.94l1.39,2.74c.79-.05,1.08-.28,1.16-.35l-.05-.91.67-.37c.04-.33-.12-.73-.17-.87l-2.98-.24Z"/>
      </g>
      <g>
        <path class="cls-5" d="m215,153.52s3.08-.61,5.05.93,3.42,2.41,3.42,2.41l.11-.52s.36.3.32.56c0,0,.35-2.84-2.49-4.42s-4.92-.37-6.42,1.03Z"/>
        <path class="cls-2" d="m223.91,157.01h-.01c-.05,0-.09-.06-.09-.11,0,0,0,0,0-.01,0-.11-.08-.24-.16-.33l-.07.34s-.03.06-.06.07c-.03.01-.06.01-.09,0-.01,0-1.48-.89-3.44-2.42-1.91-1.5-4.94-.92-4.97-.91-.04.01-.09-.01-.11-.05-.02-.04-.01-.09.02-.12,1.34-1.25,3.49-2.72,6.54-1.04,2.73,1.51,2.57,4.2,2.55,4.49,0,0,0,.02,0,.03,0,.05-.05.09-.1.09Zm-7.46-3.71c1.08,0,2.54.2,3.66,1.08,1.62,1.27,2.91,2.09,3.29,2.33l.08-.38s.03-.06.07-.07c.03-.01.07,0,.1.02.02.01.09.08.16.17-.04-.86-.38-2.71-2.45-3.86-2.76-1.52-4.75-.36-6.06.79.26-.03.67-.07,1.14-.07Z"/>
      </g>
      <g>
        <path class="cls-5" d="m215,153.52s1.13,2.93,3.48,3.78,3.87,1.61,3.87,1.61l-.38.37s.44.14.65-.03c0,0-2.22,1.82-5.06.24s-2.94-3.97-2.55-5.98Z"/>
        <path class="cls-2" d="m219.9,160.24c-.71,0-1.53-.17-2.4-.65-3.05-1.68-2.95-4.28-2.6-6.09,0-.04.04-.08.09-.08.04,0,.09.02.1.06.01.03,1.14,2.9,3.42,3.72,2.34.84,3.86,1.61,3.88,1.62.03.01.05.04.05.07,0,.03,0,.06-.03.09l-.25.24c.13.02.28.02.37-.04,0,0,0,0,0,0,.04-.04.11-.03.14.01.04.04.03.1-.01.14h0s-.01.01-.02.01c-.15.12-1.23.89-2.76.89Zm-4.86-6.37c-.28,1.72-.2,4.02,2.56,5.54,2.08,1.14,3.82.44,4.57.02-.12-.01-.21-.04-.23-.05-.03-.01-.06-.04-.07-.07,0-.03,0-.07.03-.09l.28-.27c-.41-.2-1.79-.85-3.73-1.55-1.94-.7-3.04-2.74-3.41-3.53Z"/>
      </g>
      <g>
        <path class="cls-5" d="m215,153.52s1.67-1.78,4.35-.56,3.45,2.66,3.31,4.79l-.69.07.07.66s-6.7,2.03-7.04-4.97Z"/>
        <path class="cls-2" d="m219.98,158.86c-.97,0-2.11-.18-3.06-.86-1.24-.87-1.92-2.38-2.02-4.47,0-.03,0-.05.03-.07.02-.02,1.75-1.82,4.46-.59,2.55,1.16,3.52,2.58,3.37,4.89,0,.05-.04.09-.09.09l-.59.06.06.57s-.02.09-.07.11c-.02,0-.92.27-2.09.27Zm-4.88-5.3c.11,2.01.76,3.45,1.93,4.28,1.84,1.29,4.42.71,4.9.58l-.06-.58s0-.05.02-.07.04-.03.07-.04l.61-.06c.12-2.2-.8-3.49-3.26-4.61-2.43-1.1-3.97.28-4.21.51Z"/>
      </g>
      <path class="cls-1" d="m217.84,151.78s-.71,0-1.53.47c-.38.22-.78.4-1.2.49-.04,0-.08.02-.1.02,0,0,.23.28.29.27,1.66-.23,2.54-1.26,2.54-1.26Z"/>
      <path class="cls-1" d="m215.05,156.84s-.39-.59-.41-1.54c-.01-.44-.07-.87-.22-1.28-.02-.04-.03-.08-.04-.1,0,0,.36.04.39.1.69,1.53.29,2.82.29,2.82Z"/>
      <path class="cls-1" d="m215.15,152.83s.88-.04,1.39.47.68,1.13.53,1.36-2.04.71-2.57-.66c0,0-1.32-.1-1-1.37,0,0,.95-.85,1.64.21Z"/>
    </g>
    <g id="FlowerRight">
      <g id="petalRight1">
        <g>
          <path class="cls-4" d="m220.16,112.14c-.91,2.65-5.17,17.68,8.55,23.14l-8.24-23.14c-.05-.15-.26-.15-.31,0Z"/>
          <path class="cls-2" d="m228.96,135.55l-.31-.12c-14.22-5.66-9.25-21.54-8.63-23.33h0c.04-.13.16-.19.29-.21.14,0,.25.08.3.21l8.35,23.45Zm-8.8-23.41l.14.05c-.6,1.75-5.43,17.17,8.15,22.83l-8.13-22.82-.17-.06Z"/>
        </g>
        <g>
          <path class="cls-5" d="m228.88,135.45c1.29-7.25,3.34-10.47,2.84-16.57-.11-1.39-.48-2.68-1-3.84-.19-.42-1.18-.43-1.4-.82-.24-.41.29-1.21.03-1.58-1.76-2.51-3.92-3.98-4.35-3.93-.71.09-.73,3.49-1.46,3.87s-2.5-1-3.33-.51c-.89,5.87-.25,10.2,1.42,13.63.9,1.85.36,3.38,1.24,4.65,2.2,3.13,4.91,4.35,5.99,5.11Z"/>
          <path class="cls-2" d="m228.98,135.71l-.19-.13c-.2-.14-.47-.3-.77-.49-1.29-.78-3.46-2.09-5.25-4.65-.47-.67-.56-1.42-.65-2.21-.09-.77-.18-1.57-.61-2.46-1.8-3.7-2.27-8.19-1.44-13.72v-.07s.07-.04.07-.04c.5-.29,1.23-.02,1.93.24.55.2,1.12.41,1.41.27.29-.15.49-1.12.65-1.89.21-1.04.39-1.93.86-1.99.01,0,.02,0,.04,0,.6,0,2.76,1.58,4.45,3.99.17.24.09.58.02.9-.06.26-.13.54-.04.69.08.14.34.23.6.32.33.12.68.23.81.51.57,1.27.91,2.58,1.01,3.89.32,3.95-.41,6.65-1.33,10.07-.5,1.85-1.06,3.95-1.52,6.54l-.04.23Zm-8.63-23.54c-.81,5.43-.35,9.84,1.42,13.47.46.93.55,1.79.64,2.55.09.78.17,1.46.59,2.07,1.76,2.51,3.89,3.8,5.16,4.57.22.13.42.26.6.37.45-2.5,1-4.54,1.49-6.34.91-3.39,1.63-6.08,1.32-9.97-.1-1.27-.44-2.55-.99-3.79-.07-.16-.35-.26-.63-.35-.31-.11-.63-.22-.76-.45-.15-.26-.07-.59,0-.91.06-.26.12-.53.03-.66-1.78-2.53-3.86-3.86-4.19-3.86h-.01c-.25.03-.46,1.03-.6,1.75-.2.97-.38,1.88-.8,2.1-.4.21-1.01-.01-1.65-.25-.6-.22-1.23-.45-1.61-.29Z"/>
        </g>
        <g>
          <path class="cls-2" d="m228.32,132.59c-.52-.68-.84-1.48-1.4-2.08-.62-.54-1.39-.98-1.91-1.66-3.05-4.07-3.69-9.58-3.43-14.53-.23,4.93.44,10.43,3.5,14.46.54.68,1.23,1.12,1.93,1.62.65.58.93,1.42,1.3,2.19h0Z"/>
          <path class="cls-2" d="m228.77,131.88c.79-6.97.63-14.47-2.54-20.86,3.4,6.29,3.58,13.93,2.54,20.86h0Z"/>
          <path class="cls-2" d="m222.53,115.83c.06,5.91,2.45,11.73,5.81,16.53-3.57-4.64-6.01-10.62-5.81-16.53h0Z"/>
          <path class="cls-2" d="m230.12,127.66c.3-3.85.25-7.67-.39-11.49.9,3.76.95,7.68.39,11.49h0Z"/>
          <path class="cls-2" d="m227.86,130.72c.77-5.57-.12-11.24-2.12-16.48,2.24,5.13,3.14,10.94,2.12,16.48h0Z"/>
          <path class="cls-2" d="m224.07,117.82c.66,4.09,1.52,8.19,3.1,12.04-1.83-3.74-2.71-7.92-3.1-12.04h0Z"/>
          <path class="cls-2" d="m227.17,129.86c.26-3.49-.19-7.15-1.2-10.5,1.27,3.26,1.73,7.04,1.2,10.5h0Z"/>
        </g>
      </g>
      <g id="petalRight2">
        <g id="petalRight1-2" data-name="petalRight1">
          <path class="cls-5" d="m228.72,135.61c4.23-1.82,11.85-1.55,16.55-7.17,3.63-4.33,4.26-10.22,3.71-10.83s-3.56.26-4.38-.48c-.89-.81-.29-4.68-1.58-4.53-13.64,1.56-12.95,18.33-14.31,23.01Z"/>
          <path class="cls-2" d="m228.49,135.87l.09-.31c.25-.86.43-2.16.65-3.66.96-6.8,2.57-18.17,13.79-19.46.19-.02.35.03.5.14.44.35.54,1.29.65,2.29.1.9.2,1.83.55,2.14.38.35,1.42.29,2.32.24.95-.05,1.76-.09,2.07.25.68.76-.18,6.81-3.71,11.02-3.31,3.95-7.94,5-12.03,5.92-1.7.38-3.31.75-4.58,1.29l-.29.13Zm14.62-23.13s-.04,0-.05,0c-10.99,1.26-12.58,12.49-13.53,19.2-.19,1.35-.36,2.54-.58,3.41,1.24-.49,2.75-.83,4.35-1.19,4.04-.91,8.62-1.95,11.87-5.82,3.66-4.37,4.15-10.15,3.72-10.63-.21-.24-1.07-.19-1.83-.15-1.02.05-2.06.11-2.54-.32-.43-.39-.54-1.33-.64-2.33-.1-.89-.2-1.81-.54-2.08-.07-.05-.14-.08-.22-.08Z"/>
        </g>
        <g>
          <path class="cls-2" d="m240.55,114.71c-6.49,4.17-9.21,12.13-10.12,19.46.65-7.36,3.46-15.49,10.12-19.46h0Z"/>
          <path class="cls-2" d="m247.45,119.3c-.66,7.41-6.46,12.67-13.45,14.34-.98.21-1.97.36-2.94.55.97-.22,1.96-.4,2.92-.64,6.87-1.72,12.62-7,13.48-14.25h0Z"/>
          <path class="cls-2" d="m231.37,133.79c1.3-6.07,4.28-11.88,8.69-16.27-4.22,4.57-7.14,10.27-8.69,16.27h0Z"/>
          <path class="cls-2" d="m244.54,119.74c-1.01,5.38-4.93,9.81-9.47,12.65-.66.4-1.35.75-2.03,1.12,5.32-2.97,10.07-7.69,11.5-13.77h0Z"/>
          <path class="cls-2" d="m240.4,119.61c-3.07,3.59-5.72,7.63-7.16,12.16,1.18-4.61,3.89-8.75,7.16-12.16h0Z"/>
          <path class="cls-2" d="m240.73,123.16c-1.91,3.6-4.46,6.89-7.53,9.58,2.87-2.89,5.38-6.12,7.53-9.58h0Z"/>
          <path class="cls-2" d="m237.65,118.63c-3.4,3.56-4.99,8.41-6.22,13.08,0,0,.38-1.8.38-1.8,1.06-4.1,2.66-8.35,5.84-11.28h0Z"/>
          <path class="cls-2" d="m239.37,122.9c-1.75,3.03-3.61,5.99-5.59,8.88,1.75-3.03,3.61-5.99,5.59-8.88,0,0-1.98,2.89,0,0Z"/>
          <path class="cls-2" d="m242.45,121.29c-1.19,4.32-4.17,8.09-7.91,10.51,3.58-2.65,6.45-6.29,7.91-10.51h0Z"/>
          <path class="cls-2" d="m245.43,122.01c-2.02,4.7-5.47,9.25-10.39,11.09,4.81-2.08,8.13-6.5,10.39-11.09h0Z"/>
        </g>
      </g>
      <g id="petalRight3">
        <g>
          <path class="cls-5" d="m228.67,135.17c7.34-.64,11.76-4.62,17.49-4.07,4.86.47,7.76,5.12,7.76,5.83s-2.72,1.44-2.78,2.48c-.12,1.08,2.23,3.32,1.99,4.34-.2.88-3.02,3.51-6.58,4.38-.57.14-1.31-.76-2.12-.74-1.08.03-1.78.87-2.81.49-5.48-2.04-10.13-9.48-12.95-12.7Z"/>
          <path class="cls-2" d="m246.42,148.29c-.29,0-.59-.17-.91-.36-.34-.2-.7-.4-1.06-.4,0,0-.02,0-.02,0-.42,0-.79.16-1.15.3-.52.21-1.06.42-1.71.18-4.29-1.6-8.09-6.5-10.87-10.07-.81-1.05-1.52-1.96-2.15-2.67l-.19-.22.29-.03c3.42-.3,6.15-1.31,8.79-2.28,2.9-1.07,5.64-2.08,8.72-1.79,4.96.48,7.9,5.19,7.9,5.98,0,.41-.59.75-1.27,1.14-.7.4-1.49.86-1.52,1.34-.05.48.47,1.28.98,2.05.59.89,1.14,1.73,1.01,2.31-.21.9-3.03,3.6-6.69,4.49-.05.01-.11.02-.16.02Zm-1.96-1.06c.44,0,.84.23,1.21.44.32.18.63.36.85.3,3.49-.85,6.28-3.44,6.47-4.27.11-.46-.44-1.28-.97-2.08-.56-.85-1.09-1.66-1.03-2.24.04-.64.87-1.12,1.67-1.58.52-.3,1.11-.64,1.11-.88,0-.66-2.88-5.23-7.63-5.68-3.01-.29-5.72.71-8.59,1.77-2.46.91-5.25,1.94-8.58,2.27.58.68,1.23,1.52,1.97,2.47,2.75,3.55,6.52,8.4,10.73,9.97.54.2.98.03,1.5-.18.38-.15.78-.31,1.26-.32h.03Z"/>
        </g>
        <g>
          <path class="cls-2" d="m233.1,136c5.45-3.33,13.59-5.06,18.43.17-5.01-5-12.86-3.25-18.43-.17h0Z"/>
          <path class="cls-2" d="m232.38,137.79c4.01,7,11.34,11.42,18.73,6.19-7.27,5.51-14.97.98-18.73-6.19h0Z"/>
          <path class="cls-2" d="m233.09,136.47c4.67-2.58,10.86-3.4,15.53-.39-.55-.26-1.26-.68-1.84-.85-4.44-1.74-9.5-.77-13.69,1.24h0Z"/>
          <path class="cls-2" d="m232.92,137.49c3.19,4.06,8.14,7.46,13.51,6.66.35-.07,1.24-.28,1.6-.35-5.79,2.07-11.83-1.61-15.1-6.3h0Z"/>
          <path class="cls-2" d="m233.62,136.98c5.3-1.8,11.77-1.85,16.36,1.72-4.73-3.34-10.98-3.27-16.36-1.72h0Z"/>
          <path class="cls-2" d="m232.94,136.69c4.16,4.52,10.69,6.32,16.63,4.96-.74.14-1.48.34-2.24.44-5.29.73-10.92-1.31-14.39-5.4h0Z"/>
          <path class="cls-2" d="m232.09,137.24c5.15-.13,10.91-.33,15.44,2.46-4.65-2.55-10.27-2.33-15.44-2.46h0Z"/>
          <path class="cls-2" d="m231.83,136.65c4.22,1.63,8.51,3.21,13.02,3.82-4.54-.33-8.91-1.94-13.02-3.82h0Z"/>
        </g>
      </g>
      <g id="PetalRight5">
        <g>
          <path class="cls-5" d="m228.53,134.95c-.85.79-3.68,1.77-6.03,7.7-.69,1.74-.27,3.72,1.01,5.09,2.34,2.51,6.84,6.21,13.64,7.08.7.09,1.4-.32,1.65-.98.8-2.13-.38-5.69-2.51-9.08-2.41-3.85-5.51-6.93-7.75-9.81Z"/>
          <path class="cls-2" d="m237.33,154.99c-.07,0-.14,0-.21-.01-6.65-.85-11.14-4.35-13.73-7.13-1.33-1.43-1.74-3.49-1.04-5.25,1.95-4.91,4.23-6.46,5.45-7.3.26-.18.47-.32.62-.46l.12-.11.1.13c.75.97,1.6,1.95,2.49,2.99,1.72,2,3.66,4.27,5.27,6.83,2.34,3.74,3.29,7.18,2.52,9.21-.25.66-.9,1.09-1.6,1.09Zm-8.83-19.82c-.14.12-.32.24-.53.38-1.2.82-3.43,2.34-5.34,7.16-.66,1.65-.27,3.58.98,4.93,2.56,2.75,6.98,6.2,13.54,7.04.64.07,1.27-.29,1.49-.89.73-1.95-.2-5.29-2.5-8.95-1.59-2.54-3.53-4.8-5.24-6.79-.86-1-1.67-1.95-2.4-2.88Z"/>
        </g>
        <g>
          <path class="cls-4" d="m238.93,153.34s-.3,1.27-.78.87-1.67-2.62-2.76-2.94-4.41,1.08-5.72.23-2.3-4.7-3.04-5.46-3.75.39-4.44-1.08c0,0-.38,4.41,6.1,7.9,4.46,2.4,7.45,2.57,8.77,2.27.82-.19,1.47-.57,1.71-1.25.05-.15.11-.33.15-.52Z"/>
          <path class="cls-2" d="m235.91,155.33c-1.42,0-3.95-.4-7.65-2.39-6.46-3.48-6.15-7.95-6.15-8l.03-.38.16.34c.37.8,1.54.77,2.55.74.79-.02,1.52-.04,1.86.31.31.32.64,1.11,1.03,2.02.55,1.3,1.23,2.93,2,3.42.74.49,2.2.21,3.49-.04.93-.18,1.74-.33,2.2-.2.77.23,1.57,1.34,2.15,2.15.27.37.5.69.64.81.08.07.13.06.16.05.19-.06.36-.5.44-.8,0-.02.01-.04.02-.07l.19.05s0,.03-.01.05c-.04.17-.09.33-.14.48-.23.65-.83,1.1-1.78,1.32-.22.05-.61.12-1.19.12Zm-13.6-10.03c.07,1.09.72,4.6,6.04,7.47,4.08,2.2,7.18,2.61,8.7,2.25.57-.13,1-.34,1.28-.63-.07,0-.15-.03-.24-.1-.16-.14-.39-.45-.67-.84-.57-.79-1.35-1.87-2.05-2.08-.42-.12-1.24.03-2.11.2-1.32.25-2.83.54-3.64.01-.82-.53-1.48-2.12-2.07-3.52-.36-.86-.71-1.67-.99-1.96-.28-.29-.98-.27-1.71-.25-.95.02-2.01.05-2.54-.56Z"/>
        </g>
        <g>
          <path class="cls-2" d="m229.04,138.07c4.1,2.63,6.36,7.43,7.1,12.13-1.01-4.63-3.18-9.28-7.1-12.13h0Z"/>
          <path class="cls-2" d="m227.47,137.64c-2.12,1.94-3.02,4.88-2.93,7.7-.37-2.82.61-5.96,2.93-7.7h0Z"/>
          <path class="cls-2" d="m227.45,138.22c-1.11,2.17-1.57,4.63-1.34,7.07-.5-2.4-.01-5.03,1.34-7.07h0Z"/>
          <path class="cls-2" d="m234.91,151.22c-.72-4.74-2.82-9.22-5.82-12.95,3.21,3.56,5.37,8.17,5.82,12.95h0Z"/>
          <path class="cls-2" d="m227.61,138.54c-.75,3.4-.17,6.92.7,10.25-1.14-3.24-1.72-6.9-.7-10.25h0Z"/>
          <path class="cls-2" d="m233.16,151.48c.03-4.94-2.6-9.44-5.01-13.6,2.64,4.01,5.32,8.65,5.01,13.6h0Z"/>
          <path class="cls-2" d="m228.15,137.48c.13,4.84.96,9.64,2.34,14.27-1.64-4.55-2.49-9.43-2.34-14.27h0Z"/>
          <path class="cls-2" d="m231.39,150.72c-.85-4.5-1.85-8.98-3.52-13.25,1.92,4.16,2.94,8.71,3.52,13.25h0Z"/>
        </g>
      </g>
      <g id="petalRight4">
        <g>
          <path class="cls-5" d="m229.83,134.86c-2.95,2.39-6.19,4.62-9.53,5.18-3.43.57-5.75-.35-8.03-2.13-2.59-3.23-.18-7.75-.1-8.06.11-.46-.08-1.41,0-2.32.08-1.08,1.75-4.43,2.57-4.7.13,2.22,3.58,3.51,6.38,5.2,4.27,2.58,5.91,5.09,8.72,6.81Z"/>
          <path class="cls-2" d="m218.38,140.36c-2.23,0-4.16-.74-6.2-2.33-1.11-1.38-2.03-3.86-.24-8.01.04-.1.08-.17.08-.2.05-.21.03-.57,0-.98-.02-.4-.05-.86-.02-1.31.08-1.09,1.77-4.53,2.67-4.83l.18-.06v.19c.11,1.66,2.22,2.82,4.46,4.04.62.34,1.25.68,1.86,1.05,2.39,1.44,3.97,2.87,5.36,4.13,1.09.99,2.12,1.92,3.36,2.68l.18.11-.17.13c-2.78,2.25-6.09,4.63-9.6,5.21-.68.11-1.32.17-1.95.17Zm-3.77-17.28c-.78.6-2.21,3.46-2.29,4.47-.03.43,0,.88.02,1.27.03.44.05.81-.01,1.07,0,.04-.04.12-.1.25-1.73,4.01-.86,6.39.17,7.68,2.54,1.97,4.84,2.58,7.89,2.07,3.37-.56,6.58-2.83,9.3-5.02-1.18-.75-2.17-1.65-3.22-2.6-1.38-1.25-2.95-2.67-5.32-4.1-.6-.36-1.23-.71-1.85-1.04-2.21-1.21-4.31-2.35-4.58-4.05Z"/>
        </g>
        <g>
          <path class="cls-4" d="m211.55,131.33c-.1.72.32,1,.83,1.47.45.42,1.4.8,1.94,1.71.37.62-.44,2.87-.47,3.6-.02.64,1.07,1.73,3.9,2.14,0,0-6.02-.49-6.75-4.79-.53-3.12.55-4.13.55-4.13Z"/>
          <path class="cls-2" d="m217.74,140.35c-.06,0-6.11-.55-6.84-4.87-.53-3.13.54-4.18.58-4.22l.21-.19-.04.28c-.08.58.2.84.62,1.22.06.05.12.11.17.16.14.13.32.25.54.4.46.31,1.04.7,1.42,1.34.26.44,0,1.52-.23,2.48-.11.48-.22.93-.23,1.17-.02.62,1.15,1.65,3.82,2.04l-.02.2Zm-6.3-8.7c-.27.46-.72,1.59-.35,3.8.36,2.1,2.03,3.27,3.61,3.93-.69-.44-.97-.92-.96-1.27,0-.27.11-.71.23-1.21.21-.87.47-1.96.25-2.33-.35-.6-.91-.97-1.35-1.27-.21-.14-.42-.28-.57-.42-.06-.06-.12-.11-.17-.16-.36-.33-.65-.59-.69-1.06Z"/>
        </g>
        <g>
          <path class="cls-4" d="m212.13,128.09s-.72-5.42,2.62-5.29c0,0-1.43,1.09-2.62,5.29Z"/>
          <path class="cls-2" d="m212.13,128.19h0s-.09-.04-.09-.09c-.02-.13-.41-3.24.91-4.69.46-.5,1.07-.76,1.82-.71.04,0,.08.03.09.07.01.04,0,.08-.03.11-.01.01-1.42,1.13-2.58,5.24-.01.04-.05.07-.1.07Zm2.37-5.29c-.57.03-1.05.25-1.41.65-.94,1.04-.96,3.05-.9,4,.9-2.96,1.9-4.22,2.31-4.65Z"/>
        </g>
        <g>
          <path class="cls-2" d="m225.18,137.25c-2.98,1.92-6.94,2.31-10.2.89,3.34,1.14,7.1.77,10.2-.89h0Z"/>
          <path class="cls-2" d="m225.92,134.23c-2.39-4.49-7.9-5.61-11.26-9.06,3.52,3.24,9.08,4.41,11.26,9.06h0Z"/>
          <path class="cls-2" d="m225.49,134.72c-2.34-2.99-5.94-4.5-9.12-6.4-1.06-.65-2.17-1.33-2.86-2.38,1.35,1.73,4.38,2.93,6.22,4.06,2.14,1.25,4.34,2.63,5.76,4.73h0Z"/>
          <path class="cls-2" d="m215.02,136.57c1.77.66,3.62,1.27,5.51,1.13,1.88-.05,3.68-1.32,5.58-.79-1.95-.37-3.65.92-5.57.98-1.93.12-3.8-.52-5.52-1.33h0Z"/>
          <path class="cls-2" d="m213.3,128.13c1.65,1.74,3.93,2.6,6.13,3.45,2.18.96,4.23,2.22,6.04,3.77-1.9-1.41-3.94-2.65-6.11-3.58-2.17-.86-4.52-1.78-6.05-3.64h0Z"/>
          <path class="cls-2" d="m215.09,134.53c2.7,2.15,6.93,2.53,9.99.96-2.94,1.84-7.45,1.43-9.99-.96h0Z"/>
          <path class="cls-2" d="m212.94,130.12c3.63,2.37,7.75,3.84,11.84,5.21-4.17-1.11-8.36-2.61-11.84-5.21h0Z"/>
          <path class="cls-2" d="m213.32,131.95c3.63,2.28,7.85,3.62,12.14,3.81-4.3.09-8.65-1.3-12.14-3.81h0Z"/>
        </g>
      </g>
      <path class="cls-3" d="m240.47,134.69c-3.06,1.24-6.5.61-9.57-.28,1.5-.75,3.01-1.57,4.66-1.94-1.82.24-3.53,1.02-5.24,1.67-.01-.01-.03-.02-.04-.03,1.49-1.4,3.07-2.71,4.76-3.87,1.85-1.19,3.91-2.53,6.2-2.39-2.29-.22-4.43,1.05-6.33,2.18-1.68,1.06-3.26,2.26-4.76,3.57,1.44-4.6,4.16-9.28,8.81-11.1-4.74,1.69-7.63,6.29-9.24,10.88-.12-.23-.22-.47-.26-.76,0,0-.01.03-.03.08-.12-3.67.81-7.59,3.55-10.17-3,2.62-4.05,6.76-3.99,10.65-.03.01-.06.03-.09.04-.39-3.27-1.4-6.9-4.33-8.73,2.69,1.85,3.55,5.25,3.82,8.36-1.49-2.4-4.04-4.22-6.95-3.66,2.97-.44,5.45,1.62,6.75,4.15-.13,0-.26,0-.42-.03,0,0,0,.01,0,.02-1.21-.63-2.47-1.17-3.77-1.57,1.37.55,2.68,1.25,3.91,2.05.05.2.1.44.13.71-2.32-.61-4.72-.38-7.07-.13,2.34-.09,4.82-.15,7.05.63,0,0,.02-.05.05-.12,0,.24-.01.49-.05.74-1.45,1.26-3.44,1.88-5.33,2.17,1.75-.13,3.55-.5,5.07-1.42-.02.04-.04.09-.07.14,0,0,.16-.11.42-.19-1.18,1.84-1.33,4.19-1.14,6.32-.06-2.2.3-4.69,1.77-6.41.07,0,.15.02.23.03.14,1.48.63,2.91,1.36,4.2-.59-1.27-.95-2.69-.99-4.09.21.09.43.22.65.41,0,0,.02-.2.1-.47,2.16,2.53,5.62,3.56,8.87,3.57-3.24-.16-6.72-1.38-8.67-4.07.05-.09.09-.18.15-.27,1.22.81,2.66,1.26,4.1,1.45-1.38-.31-2.74-.88-3.85-1.76.12-.12.26-.21.42-.3,3.08.7,6.45,1.09,9.38-.26Z"/>
      <path id="pollenDotsRight" class="cls-7" d="m239.23,122.91c-.01.41-.35.72-.76.71s-.72-.35-.71-.76.35-.72.76-.71.72.35.71.76Zm-6.7-.81c-.41-.01-.74.31-.76.71s.31.74.71.76.74-.31.76-.71-.31-.74-.71-.76Zm-10.54,6.28c-.41-.01-.74.31-.76.71s.31.74.71.76.74-.31.76-.71-.31-.74-.71-.76Zm3.29-4.04c-.36-.19-.8-.05-.99.31s-.05.8.31.99.8.05.99-.31.05-.8-.31-.99Zm-.95,6.88c-.36-.19-.8-.05-.99.31s-.05.8.31.99.8.05.99-.31.05-.8-.31-.99Zm-2.39,2.56c-.36-.19-.8-.05-.99.31s-.05.8.31.99.8.05.99-.31.05-.8-.31-.99Zm1.95,3.3c-.36-.19-.8-.05-.99.31s-.05.8.31.99.8.05.99-.31.05-.8-.31-.99Zm3.57,4.4c-.36-.19-.8-.05-.99.31s-.05.8.31.99.8.05.99-.31.05-.8-.31-.99Zm2.79-2.08c-.36-.19-.8-.05-.99.31s-.05.8.31.99.8.05.99-.31.05-.8-.31-.99Zm8.41-.26c-.38-.14-.8.06-.94.44s.06.8.44.94.8-.06.94-.44-.06-.8-.44-.94Zm-4.58-2.95c-.38-.14-.8.06-.94.44s.06.8.44.94.8-.06.94-.44-.06-.8-.44-.94Zm6.15-1.9c-.38-.14-.8.06-.94.44s.06.8.44.94.8-.06.94-.44-.06-.8-.44-.94Zm-5.08-2.32c-.38-.14-.8.06-.94.44s.06.8.44.94.8-.06.94-.44-.06-.8-.44-.94Zm5.78-4.69c-.38-.14-.8.06-.94.44s.06.8.44.94.8-.06.94-.44-.06-.8-.44-.94Z"/>
    </g>
    <g id="FlowerLeft">
      <g id="petalLeft1">
        <g>
          <path class="cls-5" d="m81.13,89.23s-7.98-31.69,14.1-36.74c0,0,.54,1.92-.55,4.94,0,0,3.14-1.12,7.23.37,0,0,2.6,5.97-3.92,11.13-6.52,5.16-12.8,7.1-16.86,20.31Z"/>
          <path class="cls-2" d="m81.13,89.38h0c-.07,0-.12-.05-.14-.11-.04-.17-4.34-17.67,2.4-28.66,2.63-4.29,6.61-7.07,11.82-8.27.08-.01.16.03.18.11.02.08.51,1.88-.46,4.75.88-.23,3.66-.78,7.04.46.04.01.07.04.09.08.03.06,2.57,6.14-3.97,11.3-1.25.99-2.51,1.87-3.72,2.72-5.05,3.54-9.82,6.89-13.09,17.51-.02.06-.08.11-.14.11Zm13.99-36.71c-5.06,1.19-8.92,3.91-11.48,8.09-6.01,9.8-3.14,24.87-2.49,27.9,3.29-10.31,8.03-13.63,13.04-17.14,1.21-.85,2.46-1.72,3.71-2.71,6.01-4.75,4.14-10.26,3.9-10.89-3.95-1.42-7.03-.36-7.06-.35-.05.02-.12,0-.16-.04-.04-.04-.05-.1-.03-.16.89-2.48.67-4.22.58-4.71Z"/>
        </g>
        <g>
          <path class="cls-4" d="m98.34,68.62c-7.58,6.34-11.49,16.11-13.04,20.18,0,0-3.48-1.44-3.44-2.47.41-11.77,14.2-15.53,16.49-17.71Z"/>
          <path class="cls-2" d="m85.38,88.99l-.14-.06c-.37-.15-3.58-1.51-3.54-2.61.32-9.19,8.59-13.48,13.53-16.04,1.21-.62,2.19-1.14,2.76-1.57.08-.07.17-.14.25-.21l.2.22c-.07.07-.16.14-.25.22-7.66,6.54-11.48,16.58-12.75,19.91l-.06.14Zm11.39-19.18c-.42.23-.9.47-1.41.74-4.88,2.53-13.05,6.76-13.36,15.78-.02.65,1.9,1.71,3.21,2.27,1.25-3.29,4.76-12.32,11.56-18.79Z"/>
        </g>
        <g>
          <path class="cls-2" d="m100.74,59.16c.25,4.04-2.75,7.43-6.15,9.22-1.73.89-3.51,1.66-4.98,2.97-1.48,1.25-2.77,2.73-3.79,4.39.96-1.69,2.24-3.2,3.72-4.47,1.44-1.34,3.26-2.13,4.99-3,3.39-1.76,6.37-5.08,6.21-9.1h0Z"/>
          <path class="cls-2" d="m93.64,55.2c-7.14,3.71-12.13,11.21-12.2,19.33-.13-8.15,4.96-15.79,12.2-19.33h0Z"/>
          <path class="cls-2" d="m92.41,58.81c-5.9,3.19-8.93,9.79-10.36,16.08,1.23-6.33,4.35-13.06,10.36-16.08h0Z"/>
          <path class="cls-2" d="m97.82,62.03c-1.1,3.06-4.66,4.08-7.01,5.98-2.55,1.82-4.18,4.63-5.57,7.39,1.29-2.81,2.92-5.67,5.49-7.5,2.38-1.88,5.89-2.86,7.09-5.86h0Z"/>
          <path class="cls-2" d="m95.26,59.35c-5.91,3.27-9.87,9.2-12.29,15.38,2.24-6.25,6.27-12.28,12.29-15.38h0Z"/>
          <path class="cls-2" d="m95.17,62.12c-4.86,2.92-8.63,7.45-11.05,12.54,2.25-5.17,6.09-9.79,11.05-12.54h0Z"/>
        </g>
      </g>
      <g id="petalLeft2">
        <g>
          <path class="cls-5" d="m77.76,53.59s-3.18,1.57-5.42,4.23c-2.39-.28-4.5-1.47-4.5-1.47,0,0-4.52,5.28-1.72,11.93s11.41,15.2,15.6,21.78c-1.91-15.82,4.16-27.64-3.97-36.48Z"/>
          <path class="cls-2" d="m81.73,90.21s-.1-.03-.13-.07c-1.66-2.61-3.99-5.49-6.45-8.53-3.67-4.55-7.47-9.25-9.17-13.27-2.81-6.66,1.69-12.03,1.74-12.09.05-.05.13-.07.19-.03.02.01,2.06,1.15,4.36,1.44,2.23-2.62,5.38-4.19,5.42-4.21.06-.03.13-.02.18.03,5.15,5.6,4.64,12.52,4.04,20.54-.35,4.76-.75,10.15-.04,16.02,0,.07-.03.13-.1.16-.02,0-.03,0-.05,0Zm-13.85-33.67c-.57.73-4.15,5.67-1.62,11.68,1.68,3.99,5.46,8.67,9.12,13.2,2.3,2.84,4.48,5.54,6.12,8.02-.61-5.65-.23-10.84.11-15.44.61-8.24,1.09-14.75-3.89-20.24-.56.29-3.3,1.8-5.27,4.14-.03.04-.08.05-.13.05-2.08-.24-3.97-1.18-4.44-1.42Z"/>
        </g>
        <g>
          <path class="cls-2" d="m75.17,79.69c-4.44-5.16-10.94-14.07-6.93-20.96-.56.81-.86,1.76-1.01,2.72-.85,6.95,3.84,13.1,7.94,18.25h0Z"/>
          <path class="cls-2" d="m80.61,68.1c.05-4.42-1.06-8.9-3.54-12.59,2.64,3.58,3.78,8.17,3.54,12.59h0Z"/>
          <path class="cls-2" d="m69.44,58.72c-.79,7.23,1.69,14.59,6.17,20.25-.54-.72-1.14-1.41-1.64-2.17-3.56-5.23-5.39-11.78-4.53-18.08h0Z"/>
          <path class="cls-2" d="m79.78,70.32c-.4-3.76-1.48-7.43-3.09-10.85,1.78,3.33,2.88,7.07,3.09,10.85h0Z"/>
          <path class="cls-2" d="m78.97,75.51c.58-6.07-2.24-11.89-4.87-17.2,2.79,5.21,5.64,11.13,4.87,17.2h0Z"/>
          <path class="cls-2" d="m71.02,61.83c-.09,5.82,2.34,11.37,5.24,16.3,0,0-1.14-1.85-1.14-1.85-2.44-4.39-4.38-9.35-4.1-14.45h0Z"/>
          <path class="cls-2" d="m73.51,63.56c1.48,4.26,2.88,8.55,4.18,12.87-1.48-4.26-2.88-8.55-4.18-12.87h0Z"/>
          <path class="cls-2" d="m72.2,62.05c.12,5.36,2.46,10.37,4.79,15.1-2.5-4.63-4.86-9.73-4.79-15.1h0Z"/>
          <path class="cls-2" d="m78.57,75.79c-1.24-5.43-2.78-10.94-5.86-15.64,3.24,4.59,4.81,10.18,5.86,15.64h0Z"/>
        </g>
      </g>
      <g id="petalLeft4">
        <g>
          <path class="cls-5" d="m79.63,89.52s-22.76-17.49-36.28.73c0,0,1.6,1.18,4.81,1.2,0,0-2.14,2.56-2.17,6.92,0,0,4.68,4.52,11.78.19s9.98-7.07,21.86-9.05Z"/>
          <path class="cls-2" d="m51.74,100.59c-3.62,0-5.82-2.07-5.85-2.1-.03-.03-.05-.07-.05-.11.02-3.61,1.5-6.03,2.02-6.77-3.02-.09-4.54-1.18-4.6-1.23-.03-.02-.05-.06-.06-.1,0-.04,0-.08.03-.11,3.48-4.69,7.88-7.43,13.09-8.16,11.53-1.61,23.28,7.31,23.4,7.4.05.04.07.1.05.16-.01.06-.06.1-.12.11-10.16,1.69-13.67,3.91-18.99,7.27-.89.56-1.81,1.14-2.82,1.76-2.31,1.41-4.37,1.88-6.11,1.88Zm-5.6-2.27c.5.44,5.01,4.12,11.55.13,1.01-.62,1.93-1.2,2.82-1.76,5.29-3.34,8.8-5.56,18.75-7.25-1.85-1.33-12.47-8.59-22.9-7.13-5.08.71-9.38,3.37-12.79,7.91.44.26,1.98,1.07,4.59,1.09.06,0,.11.04.13.09.02.05.02.12-.02.16-.02.03-2.08,2.55-2.13,6.76Z"/>
        </g>
        <g>
          <path class="cls-2" d="m45.56,89.6c4.66-4.75,11.84-6.26,18.25-5.11.92.17,1.83.42,2.74.62-.92-.18-1.83-.4-2.75-.55-6.4-1.06-13.47.46-18.24,5.04h0Z"/>
          <path class="cls-2" d="m47.73,97.91c6.73,1.2,13.79-3.92,19.04-7.62,0,0-2.1,1.6-2.1,1.6-4.8,3.25-10.9,7.3-16.94,6.02h0Z"/>
          <path class="cls-2" d="m66.64,86.15c-6.04-1.78-12.81-.62-17.87,3.13,4.96-3.91,11.88-5.1,17.87-3.13h0Z"/>
          <path class="cls-2" d="m50.14,95.93c6.07.72,11.76-2.8,16.47-6.25-4.59,3.61-10.4,7.17-16.47,6.25h0Z"/>
          <path class="cls-2" d="m66.46,87.75c-5.93-.3-11.94.76-17.36,3.21,5.34-2.62,11.44-3.69,17.36-3.21h0Z"/>
          <path class="cls-2" d="m48.41,93.54c6.3.84,12.66-1.18,18.13-4.22-.69.39-1.37.79-2.07,1.16-4.9,2.47-10.57,3.98-16.06,3.06h0Z"/>
          <path class="cls-2" d="m52.89,91.65c4.52-.98,9.06-1.86,13.61-2.66-4.52.98-9.06,1.86-13.61,2.66h0Z"/>
        </g>
        <g>
          <path class="cls-4" d="m80.26,90.43c-.16-.46-.36-.82-.63-.91-5.14-1.71-9.68-.16-13.36,2.14-.53.33-.29,1.55-.78,1.9-.37.27-1.48-.33-1.83-.05-2.96,2.32-5.14,4.73-6.33,5.32,7.11-4.07,15.54-4.95,20.69-5.15.27-1.33,1.02-2.55,2.25-3.25Z"/>
          <path class="cls-2" d="m78.04,93.52c-4.51.17-12.2.89-19.06,4.26.36-.32.76-.68,1.18-1.06,1.04-.95,2.22-2.02,3.58-3.09.04-.03.1-.04.19-.04.17,0,.4.05.6.1.41.09.8.18,1.04,0,.29-.21.36-.62.43-1.03.06-.36.13-.73.34-.87,4.58-2.87,8.91-3.57,13.23-2.13.22.07.4.4.54.84.09-.05.18-.1.27-.15-.17-.49-.4-.88-.71-.98-4.42-1.47-8.83-.76-13.49,2.16-.32.2-.4.64-.48,1.07-.06.34-.12.7-.31.84-.13.09-.5.01-.8-.05-.41-.09-.8-.18-1.03,0-1.38,1.08-2.56,2.15-3.6,3.1-1,.91-1.83,1.66-2.43,2.05-.09.05-.19.11-.28.16l.14.26c.09-.04.19-.1.29-.16,7.11-3.97,15.48-4.79,20.3-4.98.02-.1.04-.2.06-.3Z"/>
        </g>
      </g>
      <g id="petalLeft3">
        <g>
          <path class="cls-5" d="m48.66,74.62s2.48-2.54,5.7-3.84c.48-2.36,1.02-5.39,1.02-5.39,0,0,1.67-.62,4.1-.35.36.04.56.93.95,1.01s1.01-.63,1.44-.48c1.38.47,2.86,1.26,4.35,2.56,5.43,4.75,9.63,14.8,14.56,20.85-14.4-6.76-26.29-3.86-32.13-14.36Z"/>
          <path class="cls-2" d="m80.79,89.13s-.04,0-.06-.01c-5.46-2.56-10.59-3.74-15.12-4.78-7.5-1.72-13.43-3.08-17.08-9.64-.03-.06-.02-.13.02-.18.03-.03,2.5-2.54,5.68-3.84.48-2.32,1-5.28,1-5.31,0-.05.04-.1.1-.11.07-.03,1.73-.63,4.16-.36.25.03.42.3.57.56.12.2.26.43.39.46.13.03.35-.1.57-.22.3-.17.6-.35.89-.25,1.56.53,3.04,1.4,4.4,2.59,3.19,2.79,5.99,7.45,8.69,11.95,1.89,3.16,3.85,6.42,5.89,8.92.04.05.04.13,0,.19-.03.04-.07.06-.12.06Zm-31.94-14.48c3.59,6.36,9.44,7.7,16.83,9.4,4.38,1,9.33,2.14,14.6,4.53-1.91-2.44-3.74-5.5-5.52-8.46-2.69-4.48-5.47-9.12-8.63-11.88-1.33-1.17-2.78-2.02-4.3-2.53-.17-.05-.41.09-.65.23-.26.15-.53.31-.78.26-.26-.06-.43-.33-.58-.59-.11-.18-.24-.41-.35-.42-2.06-.23-3.59.21-3.95.32-.09.51-.57,3.19-1.01,5.31,0,.05-.04.09-.09.11-2.84,1.14-5.12,3.29-5.57,3.72Z"/>
        </g>
        <g>
          <path class="cls-2" d="m57.13,66.79c8.1.48,11.31,9.07,16.66,13.84-5.5-4.63-8.62-13.18-16.66-13.84h0Z"/>
          <path class="cls-2" d="m51.56,74.66c3.68,4.55,9.02,7.17,14.59,8.63.37.08.75.24,1.12.16-6.01-.8-11.91-3.98-15.71-8.79h0Z"/>
          <path class="cls-2" d="m72.4,80.78c-3.25-1.41-4.86-4.78-7.15-7.28-2.13-2.68-5.31-4.54-8.75-4.83,3.46.17,6.7,2.07,8.86,4.74,2.27,2.53,3.84,5.87,7.04,7.38h0Z"/>
          <path class="cls-2" d="m53.25,73.03c3.33,5.05,8.93,8.25,14.79,9.43-.73-.16-1.48-.28-2.21-.47-5.06-1.35-9.82-4.44-12.59-8.96h0Z"/>
          <path class="cls-2" d="m70.81,81.16c-3.71-1.77-5.46-5.86-8.44-8.5-1-.82-2.16-1.76-3.52-1.7,1.37-.1,2.58.81,3.58,1.63,3.03,2.6,4.76,6.67,8.38,8.57h0Z"/>
          <path class="cls-2" d="m58.94,76.24c1.39,1.32,2.9,2.54,4.61,3.42,1.7.86,3.67,1.23,5.25,2.36-1.65-1.03-3.6-1.34-5.31-2.24-1.7-.92-3.23-2.14-4.55-3.54h0Z"/>
          <path class="cls-2" d="m70.01,81.38c-2.41-1.61-4.61-3.55-6.57-5.69-1.98-2.11-4.66-3.49-7.43-4.26,2.82.67,5.51,2.07,7.53,4.17,1.96,2.14,4.12,4.08,6.47,5.78h0Z"/>
          <path class="cls-2" d="m69.35,81.62c-4.8-2.49-8.68-6.41-13.6-8.72,4.99,2.17,8.91,6.05,13.6,8.72h0Z"/>
        </g>
      </g>
      <g id="petalLeft5">
        <g>
          <path class="cls-5" d="m74.18,80.54c1.97-1.33,4.26-5.55,7.52-5.65s9.68,1.53,8.67,12.74c0,0-5.79,2.2-9.03,1.66,0,0-1.17,4.14-4.87,7.54,0,0-10.41-1.57-10.01-9.09s5.53-5.73,7.72-7.21Z"/>
          <path class="cls-2" d="m76.47,96.99s-.01,0-.02,0c-.11-.02-10.54-1.68-10.14-9.25.3-5.58,3.21-6.16,5.55-6.61.86-.17,1.67-.33,2.24-.71h0c.63-.43,1.32-1.18,2.04-1.97,1.55-1.7,3.31-3.63,5.56-3.7.09,0,.19,0,.3,0,1.53,0,4.1.36,6.06,2.44,2.07,2.2,2.9,5.72,2.47,10.47,0,.06-.04.11-.1.13-.23.09-5.71,2.15-8.98,1.69-.23.73-1.55,4.42-4.87,7.48-.03.03-.06.04-.1.04Zm-2.21-16.33c-.62.42-1.46.58-2.35.76-2.35.46-5.02.99-5.31,6.33-.38,6.97,8.9,8.76,9.81,8.92,3.58-3.33,4.76-7.38,4.77-7.42.02-.07.09-.12.17-.11,2.95.49,8.13-1.35,8.87-1.62.4-4.62-.41-8.03-2.4-10.15-2.01-2.14-4.71-2.39-6.13-2.34-2.13.06-3.84,1.94-5.35,3.6-.74.81-1.43,1.57-2.09,2.02h0Z"/>
        </g>
        <g>
          <path class="cls-2" d="m76.04,95.83c-4.43-2.08-10.29-6.48-7.43-11.97.37-.66.81-1.28,1.34-1.81-5.17,5.97.76,11.06,6.08,13.79h0Z"/>
          <path class="cls-2" d="m88.6,86.4c-.19-5.6-2.72-11.18-9.24-10.35,1.31-.25,2.7-.16,3.97.31,4.08,1.42,5.22,6.17,5.27,10.03h0Z"/>
          <path class="cls-2" d="m72.03,81.57c-2.97,4.09,1.95,8.45,4.84,11.01,0,0-1.3-1.06-1.3-1.06-2.62-2.27-6.42-6.56-3.54-9.96h0Z"/>
          <path class="cls-2" d="m86.63,87.25c-1.21-4.33-4.03-8.96-8.79-9.78,4.83.63,7.77,5.39,8.79,9.78h0Z"/>
          <path class="cls-2" d="m73.27,81.26c-2.02,3.18.93,6.57,3.27,8.61,0,0-.98-.81-.98-.81-2.09-1.84-4.27-5.16-2.29-7.8h0Z"/>
          <path class="cls-2" d="m82.88,87.96c.09-4.05-2.08-8.09-5.84-9.8,3.87,1.54,6.13,5.73,5.84,9.8h0Z"/>
          <path class="cls-2" d="m74.46,80.78c-.35,3.65,2.98,6.25,5.77,7.98,0,0-1.14-.65-1.14-.65-2.45-1.57-5.17-4.15-4.63-7.34h0Z"/>
          <path class="cls-2" d="m80.65,85.48c-1.12-2.34-2.47-4.67-4.56-6.26,2.21,1.44,3.62,3.85,4.56,6.26h0Z"/>
          <path class="cls-2" d="m74.9,80.08c1.7,2.19,3.33,4.44,4.87,6.75-1.7-2.19-3.33-4.44-4.87-6.75h0Z"/>
          <path class="cls-2" d="m86.72,84.38c-.69-4.01-3.98-7.36-8.13-7.56,4.2,0,7.64,3.49,8.13,7.56h0Z"/>
          <path class="cls-2" d="m70.63,81.87c-2.75,4.16.88,8.83,4.03,11.55-3.3-2.57-6.98-7.46-4.03-11.55h0Z"/>
        </g>
      </g>
      <g id="PollenLeft">
        <path id="pollenBranchLeft" class="cls-3" d="m83.52,68.27c-2.46,1.33-3.92,3.95-4.33,6.68-.49.1-1.06.24-1.68.42-.2-.91-.3-1.83-.3-2.76.47-.52,1.03-.96,1.68-1.29-.64.28-1.19.68-1.68,1.14.02-2.53.75-5.06,2.14-7.17-1.58,2.19-2.43,4.85-2.5,7.54-.85.94-1.41,2.12-1.66,3.38-.08.03-.15.07-.23.1-.3-.43-.6-.86-.88-1.31-.1-2.18.31-4.39,1.35-6.32-1.06,1.78-1.57,3.8-1.64,5.85-2.08-3.36-3.6-7.25-2.53-11.12-1.27,4.09.36,8.28,2.52,11.87.01.52.05,1.03.12,1.55-.2.11-.39.22-.59.34-2.44-3.16-4.94-6.37-6.38-10.09,1.31,3.78,3.68,7.07,6.01,10.32-.1.06-.19.13-.29.2-.79-.68-1.66-1.28-2.59-1.73-2.31-2.61-5.17-4.73-8.63-5.31,3.17.64,5.77,2.58,7.89,4.98-1.25-.49-2.58-.71-3.94-.55-2.71-2.09-5.72-3.68-8.54-3.3,2.74-.29,5.6,1.28,8.18,3.35-.04,0-.08.01-.12.02.04,0,.09,0,.13-.01,1.87,1.5,3.58,3.25,4.98,4.75-.1.1-.19.2-.29.3-2.91-2.64-6.8-4.77-10.78-3.83,3.95-.78,7.71,1.47,10.46,4.17-.33.36-.61.7-.84,1.01-2.58-1.9-6-3.06-9.11-1.91,3.09-.97,6.41.33,8.82,2.31-.63.88-.88,1.46-.88,1.46,1.31-1.7,3-1.99,4.69-2.27,1.69-.27,2.4-.7,4.73-3.43,1.07-1.26,2.03-1.97,2.75-2.38.03,0,.09,0,.09,0,0-.02,0-.04,0-.06.79-.43,1.27-.48,1.27-.48,0,0-.47.04-1.24.18.26-2.59,1.56-5.19,3.83-6.58Zm-9.36,7.64c.12.2.25.39.38.59-.09.05-.19.1-.28.14-.04-.24-.07-.49-.1-.73Zm-1.86,1.91c-.15.11-.28.21-.42.32-.41-.56-.83-1.12-1.28-1.66.6.39,1.18.84,1.7,1.34Zm-6.9-2.83c1.5-.1,2.96.27,4.28.96.66.79,1.28,1.62,1.85,2.47-.44.35-.84.7-1.2,1.04-1.4-1.41-3.1-3.05-4.93-4.47Zm10.17,1.05c.19-1.07.61-2.09,1.26-2.96,0,.81.07,1.62.22,2.43-.48.15-.97.33-1.48.53Z"/>
        <path id="pollenDotsLeft" class="cls-7" d="m59.58,78.77c.4-.09.81.16.9.57s-.16.81-.57.9-.81-.16-.9-.57.16-.81.57-.9Zm-1.09-2.36c.09.41.49.66.9.57s.66-.49.57-.9-.49-.66-.9-.57-.66.49-.57.9Zm-1.76-4.71c.09.41.49.66.9.57s.66-.49.57-.9-.49-.66-.9-.57-.66.49-.57.9Zm7.92,3.43c.09.41.49.66.9.57s.66-.49.57-.9-.49-.66-.9-.57-.66.49-.57.9Zm-3.48-4.24c.09.41.49.66.9.57s.66-.49.57-.9-.49-.66-.9-.57-.66.49-.57.9Zm5.57-3.91c-.31.27-.35.75-.07,1.06s.75.35,1.06.07.35-.75.07-1.06-.75-.35-1.06-.07Zm4-3.6c-.31.27-.35.75-.07,1.06s.75.35,1.06.07.35-.75.07-1.06-.75-.35-1.06-.07Zm3.97,5.2c-.31.27-.35.75-.07,1.06s.75.35,1.06.07.35-.75.07-1.06-.75-.35-1.06-.07Zm3.85-3.42c-.31.27-.35.75-.07,1.06s.75.35,1.06.07.35-.75.07-1.06-.75-.35-1.06-.07Zm-.45,5.9c-.31.27-.35.75-.07,1.06s.75.35,1.06.07.35-.75.07-1.06-.75-.35-1.06-.07Zm4.4-3.04c-.31.27-.35.75-.07,1.06s.75.35,1.06.07.35-.75.07-1.06-.75-.35-1.06-.07Z"/>
      </g>
    </g>
    <g id="FlowerCenter">
      <g id="petalCenter1">
        <g>
          <path class="cls-4" d="m141.15,100.85s-2.18,9.48.18,19.13l4.82,2.62s-.2-10.12-1.46-13.02-3.53-8.72-3.53-8.72Z"/>
          <path class="cls-2" d="m146.3,122.85l-5.11-2.77-.02-.07c-2.34-9.57-.2-19.1-.18-19.2l.11-.47.18.45c.02.06,2.29,5.85,3.53,8.72,1.26,2.9,1.47,12.67,1.48,13.08v.26Zm-4.84-2.97l4.53,2.46c-.04-1.6-.32-10.12-1.45-12.71-1.04-2.39-2.78-6.81-3.35-8.25-.4,2.06-1.73,10.26.26,18.5Z"/>
        </g>
        <g>
          <path class="cls-5" d="m152.36,142.55s6.75-16.45,7.65-25.64c.32-3.28-.58-6.59-1.88-10.12-.76-2.07-2.19-6.42-3.61-5.27-1.94-2.7-3.78-4.49-4.35-4.53-1.41-.1-2.36,5.19-3.05,5.19s-2.46-4.88-3.55-4.84c-1.13.74-5.71,4.38.54,15.12,1.19,2.05.15,6.4.72,7.72,4.58,10.65,7.52,22.38,7.52,22.38Z"/>
          <path class="cls-2" d="m152.33,143.03l-.11-.44c-.03-.12-3-11.85-7.52-22.36-.25-.57-.21-1.63-.16-2.85.06-1.72.13-3.68-.55-4.85-6.13-10.52-1.93-14.39-.49-15.32l.04-.02h.04s.01,0,.02,0c.7,0,1.5,1.48,2.28,2.92.42.76,1.04,1.92,1.26,1.93.19-.04.57-1.07.85-1.82.58-1.58,1.24-3.37,2.16-3.37.02,0,.03,0,.05,0,.67.05,2.58,2,4.37,4.48.22-.13.44-.16.67-.1,1.15.32,2.18,3.16,2.86,5.04l.18.49c1.18,3.21,2.23,6.67,1.89,10.19-.89,9.11-7.59,25.52-7.66,25.68l-.17.42Zm-8.71-45.55c-1.41.94-5.31,4.69.63,14.89.73,1.25.65,3.25.59,5.01-.04,1.14-.08,2.21.14,2.72,4.03,9.38,6.83,19.72,7.42,21.96,1.05-2.63,6.67-16.93,7.47-25.17.34-3.46-.7-6.88-1.87-10.06l-.18-.49c-.62-1.71-1.66-4.58-2.66-4.85-.18-.05-.35,0-.53.14l-.12.1-.09-.13c-2.03-2.83-3.79-4.44-4.23-4.47,0,0-.02,0-.03,0-.71,0-1.39,1.83-1.88,3.17-.5,1.36-.76,2.02-1.13,2.02-.38,0-.78-.71-1.52-2.08-.62-1.15-1.47-2.7-1.99-2.76Z"/>
        </g>
        <path class="cls-2" d="m155.41,104.83c1.05,2.7,1.49,5.61,1.72,8.49.22,2.89.14,5.8-.1,8.69l-.23,2.16-.33,2.15c-.19,1.44-.54,2.85-.81,4.27-.31,1.42-.69,2.81-1.04,4.22l-1.28,4.15,1.19-4.18c.33-1.41.71-2.81,1-4.22.26-1.42.6-2.83.77-4.27l.31-2.15.21-2.16c.26-2.88.36-5.78.17-8.66-.11-1.44-.26-2.88-.52-4.3-.24-1.42-.56-2.84-1.07-4.2Zm-.89,5.57c.56,3.03.9,6.11.97,9.2.11,3.08.02,6.18-.37,9.24-.32,3.07-1.02,6.09-1.78,9.08.84-2.97,1.58-5.99,1.91-9.06.42-3.07.53-6.17.44-9.26-.1-3.09-.46-6.18-1.04-9.21-.58-3.04-1.37-6.04-2.53-8.91,1.08,2.89,1.83,5.9,2.4,8.93Zm-1.95-.79c.7,3,1.17,6.04,1.44,9.11.09,1.53.26,3.07.25,4.61l.04,2.31-.07,2.31c-.01,1.54-.21,3.07-.32,4.61-.14,1.53-.38,3.05-.56,4.58.22-1.52.49-3.04.66-4.57.12-1.54.33-3.07.35-4.61l.09-2.31-.02-2.31c.02-1.54-.13-3.08-.22-4.62-.29-3.07-.79-6.12-1.51-9.12-.73-2.99-1.66-5.95-3.02-8.72,1.29,2.8,2.18,5.76,2.9,8.75Zm-2.19,2.09c.69,2.69,1.27,5.4,1.71,8.14.48,2.73.85,5.48,1.06,8.24.25,2.76.3,5.54.31,8.31.06-2.77.07-5.55-.18-8.32-.19-2.77-.54-5.53-.99-8.27-.47-2.74-1.07-5.45-1.78-8.14-.7-2.68-1.53-5.34-2.55-7.92.95,2.61,1.73,5.27,2.42,7.96Zm-3.23.38c.84,2.58,1.94,5.07,2.99,7.56,1.07,2.48,1.81,5.1,2.27,7.76.46,2.67.72,5.36.94,8.06-.14-2.7-.35-5.41-.8-8.09-.44-2.67-1.16-5.31-2.22-7.82-1.07-2.49-2.19-4.95-3.05-7.52-.86-2.56-1.65-5.17-2-7.85.27,2.7,1.02,5.33,1.87,7.9Zm-2.46-.77c.86,2.83,1.99,5.58,3.41,8.18,1.39,2.6,2.39,5.39,3.19,8.23.77,2.85,1.36,5.75,1.72,8.68-.28-2.94-.84-5.86-1.6-8.71-.77-2.85-1.76-5.66-3.14-8.29-1.44-2.58-2.58-5.31-3.46-8.12-.88-2.82-1.56-5.7-1.98-8.62.35,2.93.98,5.83,1.85,8.66Z"/>
      </g>
      <g id="petalCenter2">
        <g>
          <path class="cls-5" d="m152.12,142.64s2.52-5.37,3.04-10.52,4.27-11.54,9.73-14.37c6.06-3.14,13.69-4.33,15-3.16s1.81,5.86,1.81,5.86c0,0,4.3,1.97,5.06,3.22.74,1.21-.6,4.14-2.05,7.74-1.69,4.19-3.25,6.1-7.51,9.05-2.89,2.01-9.61,2.55-16.22,2.52-1.33,0-2.8-1.5-4.09-1.55-1.73-.06-3.26,1.31-4.78,1.21Z"/>
          <path class="cls-2" d="m161.6,143.13c-.2,0-.4,0-.61,0-.72,0-1.46-.41-2.18-.8-.68-.37-1.32-.72-1.92-.75-.85-.02-1.66.3-2.44.62-.8.33-1.56.64-2.34.58h-.22s.09-.21.09-.21c.03-.05,2.51-5.4,3.03-10.47.5-4.93,4.03-11.49,9.81-14.49,5.97-3.1,13.73-4.42,15.17-3.14,1.26,1.12,1.78,5.21,1.85,5.88.6.28,4.32,2.05,5.05,3.25.7,1.15-.31,3.64-1.59,6.78-.14.36-.29.72-.44,1.09-1.7,4.22-3.33,6.18-7.56,9.12-2.43,1.69-7.71,2.55-15.7,2.55Zm-4.82-1.85s.08,0,.12,0c.67.02,1.37.41,2.05.78.68.38,1.39.76,2.04.77,8.16.05,13.73-.82,16.13-2.49,4.22-2.94,5.76-4.78,7.45-8.99.15-.37.3-.73.44-1.09,1.2-2.95,2.24-5.49,1.61-6.51-.73-1.2-4.95-3.14-4.99-3.16l-.08-.04v-.08s-.51-4.65-1.77-5.77c-1.21-1.08-8.64-.03-14.83,3.18-5.69,2.96-9.17,9.41-9.65,14.25-.46,4.55-2.49,9.32-2.96,10.36.64-.02,1.3-.29,1.99-.57.78-.32,1.58-.65,2.44-.65Z"/>
        </g>
        <g>
          <path class="cls-2" d="m153.88,139.64c1.99-7.96,6.11-16.16,13.61-20.17,2.44-1.32,5.17-2.2,7.96-2.27-2.78.14-5.47,1.06-7.89,2.38-7.44,4.09-11.49,12.16-13.67,20.05h0Z"/>
          <path class="cls-2" d="m169.07,141.33c3.58-.89,6.89-2.91,9.32-5.69,2.49-2.73,4.37-6.01,5.64-9.48-2.24,6.95-7.49,13.68-14.96,15.17h0Z"/>
          <path class="cls-2" d="m172.06,121.03c-7.52,4.04-13.03,10.99-17.21,18.29.52-.93,1.01-1.87,1.55-2.79,3.86-6.28,8.96-12.2,15.66-15.51h0Z"/>
          <path class="cls-2" d="m165.1,140.22c5.15-1.71,9.41-5.42,12.59-9.75,1.05-1.46,2.03-2.98,2.86-4.58-3.1,6.43-8.46,12.26-15.45,14.33h0Z"/>
          <path class="cls-2" d="m175.01,121.31c-6.31,4.05-12.02,9.2-16.37,15.33-.66.85-1.19,1.79-1.79,2.69,4.31-7.46,10.8-13.59,18.16-18.01h0Z"/>
          <path class="cls-2" d="m161.87,140.22c5.76-4,11.27-8.57,15.35-14.33-3.86,5.9-9.46,10.54-15.35,14.33h0Z"/>
          <path class="cls-2" d="m174.57,126.16c-5,4.59-10.08,9.08-15.24,13.48,5-4.59,10.08-9.08,15.24-13.48h0Z"/>
          <path class="cls-2" d="m177.89,122.03c-7.48,4.7-14.5,10.46-19.53,17.8,4.82-7.48,11.91-13.31,19.53-17.8h0Z"/>
          <path class="cls-2" d="m163.17,140.22c4.58-1.83,8.56-4.99,11.59-8.86-2.81,4.04-6.9,7.29-11.59,8.86h0Z"/>
          <path class="cls-2" d="m167.4,140.96c5.59-1.83,9.94-6.21,13.15-11.01-2.99,4.93-7.47,9.43-13.15,11.01h0Z"/>
          <path class="cls-2" d="m170.86,119.77c-6.22,4.19-11.68,9.73-15.32,16.32-.56.92-.96,1.92-1.45,2.89,3.32-7.97,9.5-14.62,16.77-19.21h0Z"/>
        </g>
      </g>
      <g id="petalCenter3">
        <g>
          <path class="cls-4" d="m151.26,138.53s.28,7.28,5.72,11.1c5.44,3.83,8.1,6.09,10.41,8.37l-4.87-14.71-11.26-4.77Z"/>
          <path class="cls-2" d="m167.62,158.37l-.3-.29c-2.24-2.2-4.86-4.47-10.4-8.36-5.42-3.81-5.76-11.11-5.76-11.18v-.16s11.44,4.85,11.44,4.85v.04s5.02,15.11,5.02,15.11Zm-16.25-19.69c.08,1.08.77,7.42,5.67,10.87,5.31,3.73,7.95,5.97,10.13,8.1l-4.73-14.28-11.07-4.69Z"/>
        </g>
        <g>
          <path class="cls-5" d="m153.62,140.28s6.45-2.23,23.16,3.23c7.89,2.58,14.07,15.09,13.7,16.35s-2.06-1.2-5.13-.32c-.62.18,3.41,4.73,2.74,5.19-.59.4-2.36.27-3.29.37-1.78.18-5.38.77-9.1-.42-.94-.3-.76-3-1.62-3.59-.9-.62-2.76.72-3.64,0-8.1-6.64-7.92-19.08-16.81-20.81Z"/>
          <path class="cls-2" d="m180.68,165.55c-1.53,0-3.27-.17-5.04-.73-.58-.18-.77-1.02-.97-1.91-.16-.71-.33-1.45-.69-1.69-.38-.26-1.03-.11-1.65.05-.73.18-1.49.36-2-.06-3.57-2.92-5.5-6.88-7.37-10.71-2.39-4.89-4.45-9.11-9.38-10.07l-.55-.11.53-.18c.26-.09,6.69-2.18,23.25,3.23,7.8,2.55,14.26,14.99,13.79,16.54-.06.21-.17.35-.32.42-.29.13-.66-.02-1.18-.24-.83-.35-2.07-.87-3.69-.42.04.27.73,1.27,1.24,2.01,1.04,1.49,1.71,2.5,1.63,2.96-.02.09-.06.17-.13.21-.44.3-1.41.33-2.34.35-.38,0-.74.02-1.02.04-.18.02-.37.04-.58.06-.93.11-2.15.24-3.54.24Zm-7.24-4.78c.27,0,.51.05.72.19.45.31.63,1.11.81,1.88.17.77.35,1.56.77,1.69,3.32,1.06,6.53.7,8.46.48.21-.02.41-.05.58-.06.29-.03.66-.04,1.04-.05.81-.02,1.81-.04,2.18-.29.08-.39-.88-1.76-1.57-2.76-.99-1.42-1.38-2.03-1.28-2.31.03-.07.08-.12.16-.15,1.75-.5,3.07.05,3.94.42.41.17.77.32.93.24.03-.01.1-.05.16-.24.35-1.16-5.85-13.64-13.6-16.17-13.66-4.46-20.49-3.75-22.46-3.37,4.63,1.22,6.74,5.53,8.96,10.09,1.85,3.8,3.77,7.73,7.29,10.61.4.32,1.08.16,1.74,0,.4-.1.8-.2,1.17-.2Z"/>
        </g>
        <g>
          <path class="cls-2" d="m155.04,140.2c11.18,1.12,23.61,4.14,30.79,13.48.98,1.32,1.83,2.76,2.33,4.33-.54-1.56-1.41-2.97-2.41-4.27-7.23-9.24-19.59-12.18-30.71-13.54h0Z"/>
          <path class="cls-2" d="m170.86,160.04c-2.45-3.25-4.8-6.6-6.69-10.21-2.03-3.52-4.82-6.55-7.62-9.48,2.92,2.83,5.77,5.83,7.77,9.39,1.85,3.63,4.2,6.97,6.54,10.29h0Z"/>
          <path class="cls-2" d="m185.09,157.41c-6.54-8.85-16.76-14.69-27.6-16.32,1.35.25,2.72.39,4.05.72,9.35,2.17,18.01,7.72,23.55,15.6h0Z"/>
          <path class="cls-2" d="m183.62,158.5c-7.47-6.45-15.86-11.74-24.29-16.83,8.56,4.87,16.99,10.18,24.29,16.83h0Z"/>
          <path class="cls-2" d="m158.9,141.68c4.46,3.37,8.88,6.95,12.4,11.33,3.86,4.05,8.69,7.08,13.32,10.18-4.73-2.99-9.59-5.97-13.45-10.07-3.49-4.4-7.89-7.96-12.27-11.44h0Z"/>
          <path class="cls-2" d="m158.7,142.09c3.68,2.77,6.26,6.67,8.99,10.3,2.7,3.69,5.95,6.94,9.54,9.77-3.74-2.65-6.99-5.97-9.66-9.68-2.72-3.65-5.25-7.55-8.87-10.39h0Z"/>
        </g>
      </g>
      <g id="petalCenter5">
        <g>
          <path class="cls-4" d="m135.69,134.37s5.18,1.2,8.33,3.1,5.04,3.63,9.11,3.85c0,0,1.22-10.62-17.44-6.95Z"/>
          <path class="cls-2" d="m153.22,141.42h-.09c-3.38-.19-5.35-1.45-7.64-2.92-.49-.31-.99-.63-1.52-.95-3.09-1.87-8.24-3.07-8.3-3.08l-.46-.11.46-.09c7.4-1.46,12.59-.87,15.42,1.74,2.45,2.26,2.14,5.29,2.14,5.32v.09Zm-17.07-7.04c1.33.34,5.32,1.44,7.91,3,.53.32,1.04.64,1.52.96,2.24,1.44,4.18,2.68,7.45,2.88.03-.52.06-3.08-2.08-5.06-2.72-2.51-7.7-3.11-14.79-1.78Z"/>
        </g>
        <g>
          <path class="cls-5" d="m153.34,141.33s-1.57-15.77-7.72-22.22c-7.37-7.74-19.01-5.5-19.01-5.5,0,0,1.71,5.3,4.01,7.93,0,0-5.05,2.05-5.67,7.61,5.23,5.84,10.75,5.16,14.57,5.4,6.83.44,9.11,2.93,13.81,6.79Z"/>
          <path class="cls-2" d="m153.34,141.48s-.07-.01-.1-.03c-.47-.39-.92-.76-1.35-1.12-3.78-3.16-6.28-5.25-12.37-5.63-.49-.03-1.01-.05-1.57-.06-3.59-.11-8.51-.26-13.1-5.39-.03-.03-.04-.07-.04-.12.55-4.97,4.64-7.2,5.57-7.64-2.23-2.67-3.9-7.78-3.91-7.83-.01-.04,0-.08.01-.12.02-.04.06-.06.1-.07.12-.02,11.8-2.16,19.14,5.55,6.11,6.41,7.74,22.15,7.76,22.31,0,.06-.03.12-.08.15-.02.01-.05.02-.07.02Zm-28.22-12.39c4.49,4.98,9.12,5.12,12.84,5.24.55.02,1.08.03,1.58.06,6.19.39,8.72,2.51,12.54,5.7.34.29.69.58,1.06.88-.29-2.4-2.12-15.97-7.63-21.76-6.74-7.08-17.24-5.72-18.7-5.49.31.91,1.9,5.4,3.93,7.71.03.04.04.09.03.13-.01.05-.04.09-.09.1-.05.02-4.93,2.06-5.57,7.42Z"/>
        </g>
        <g>
          <path class="cls-2" d="m129.41,115.01c6.85-.19,13.45,3.54,17.35,9.1.19.3.67,1.1.86,1.41,1.58,2.45,2.55,5.32,3.41,8.09,0,0,.9,4.3.9,4.3l-.99-4.28c-.88-2.75-1.87-5.61-3.46-8.03-.2-.31-.68-1.1-.87-1.4-3.91-5.52-10.37-9.23-17.2-9.2h0Z"/>
          <path class="cls-2" d="m151.26,137.46c-1.7-6.81-5.26-13.49-11.36-17.28-1.99-1.25-4.18-2.23-6.5-2.68,2.34.37,4.56,1.31,6.57,2.56,6.19,3.73,9.78,10.5,11.29,17.39h0Z"/>
          <path class="cls-2" d="m150.49,137.12c-2.24-6.48-6.39-12.64-12.78-15.57-2.08-.97-4.32-1.64-6.63-1.79,2.31.07,4.59.7,6.69,1.67,6.47,2.85,10.67,9.11,12.73,15.69h0Z"/>
          <path class="cls-2" d="m150.49,137.61c-3.39-6.86-9.09-13.74-17.09-14.84,8.08.84,13.93,7.85,17.09,14.84h0Z"/>
          <path class="cls-2" d="m149.68,136.92c-4.74-6.05-11.54-10.43-19-12.32,7.52,1.63,14.45,6.1,19,12.32h0Z"/>
          <path class="cls-2" d="m149.21,137.12c-5.84-5.41-13.3-9.12-21.21-10.15,7.95.78,15.55,4.56,21.21,10.15h0Z"/>
          <path class="cls-2" d="m148.45,137.12c-2.37-2.75-6.08-3.18-9.46-3.66-3.44-.54-6.74-1.77-9.92-3.15,3.24,1.23,6.53,2.4,9.95,2.97,3.36.52,7.16.99,9.43,3.84h0Z"/>
        </g>
      </g>
      <g id="petalCenter4">
        <g>
          <path class="cls-5" d="m148.57,165.39s-2.02-4.98-1.66-8.01c0,0-4.42.03-8.21-.83,0,0-4.87-11.72,1.03-14.66-.62-.28-1.4-.87-1.42-1.29,4.62-2.85,12.38-3.01,13.36-2.36.51.34.77,1.02,1.34,1.5.34.29,1.41.18,2.03.47,1.37.63,1.98,2.54,2.58,4.08,1.28,3.24,4.52,8.41,3.57,15.19-.85,6.18-12.62,5.92-12.62,5.92Z"/>
          <path class="cls-2" d="m148.84,165.54c-.14,0-.24,0-.27,0h-.1s-.04-.09-.04-.09c-.08-.2-1.96-4.88-1.69-7.92-.84,0-4.73-.08-8.07-.84l-.08-.02-.03-.07c-.2-.48-4.72-11.54.84-14.72-.55-.3-1.22-.82-1.25-1.29v-.09s.07-.05.07-.05c4.66-2.88,12.44-3.07,13.52-2.36.29.19.5.47.72.77.19.26.38.52.64.74.14.12.51.16.87.21.39.04.8.09,1.12.24,1.29.6,1.92,2.25,2.48,3.7l.18.46c.23.59.53,1.25.85,1.96,1.48,3.26,3.51,7.72,2.73,13.31-.8,5.78-10.68,6.05-12.5,6.05Zm-.17-.3h.05c1.37,0,11.55-.19,12.32-5.79.77-5.5-1.24-9.91-2.71-13.14-.32-.71-.63-1.38-.86-1.97l-.18-.46c-.54-1.4-1.15-2.99-2.33-3.54-.28-.13-.66-.17-1.03-.21-.44-.05-.82-.09-1.03-.27-.28-.24-.49-.52-.69-.79-.2-.28-.4-.54-.64-.7-.85-.56-8.43-.52-13.11,2.31.11.31.69.8,1.32,1.08l.29.13-.28.14c-5.47,2.74-1.38,13.42-.99,14.4,3.71.83,8.07.81,8.09.81h.17s-.02.17-.02.17c-.32,2.73,1.35,7.15,1.62,7.84Z"/>
        </g>
        <g>
          <path class="cls-2" d="m138.37,145.62c2.64-4.4,7.75-6.8,12.74-7.21-4.96.69-9.88,2.97-12.74,7.21h0Z"/>
          <path class="cls-2" d="m152.12,138.67c-7.82,1.64-13.99,7.25-12.97,15.73-.02-.85-.22-2-.13-2.83.12-7.1,6.57-11.82,13.1-12.9h0Z"/>
          <path class="cls-2" d="m152.03,139.22c-5.89,2.2-10.06,7.75-11.38,13.78-.2.86-.33,1.75-.49,2.62.14-.88.23-1.77.4-2.64,1.22-6.09,5.45-11.78,11.48-13.76h0Z"/>
          <path class="cls-2" d="m152.73,139.98c-5.55,3.57-8.92,9.64-11.26,15.64,0,0,.84-2.31.84-2.31,2.19-5.22,5.42-10.43,10.42-13.34h0Z"/>
          <path class="cls-2" d="m153.14,140.05c-3.71,4.64-6.93,9.96-7.87,15.91.68-6,3.96-11.44,7.87-15.91h0Z"/>
          <path class="cls-2" d="m153.14,140.96c-1.85,5.24-3.82,10.44-5.9,15.6,1.85-5.24,3.82-10.44,5.9-15.6h0Z"/>
          <path class="cls-2" d="m148.45,160.04c3.83-5.5,4.76-12.43,5.43-18.96-.41,6.54-1.38,13.6-5.43,18.96h0Z"/>
          <path class="cls-2" d="m148.74,163.39c.32-.4,1.1-1.33,1.4-1.71.25-.38.96-1.45,1.23-1.84,0,0,.7-1.3.7-1.3,2.66-5.27,3.41-11.39,2.77-17.22,1.12,7.72-.57,16.32-6.1,22.07h0Z"/>
          <path class="cls-2" d="m153.34,163.39c2.48-2.98,3.85-6.8,3.99-10.66.18-3.87-.5-7.75-1.81-11.39,2.82,7.06,3.2,16.1-2.19,22.06h0Z"/>
          <path class="cls-2" d="m158.02,162.17c2.38-6.29.81-13.29-1.47-19.38,2.53,6,4.11,13.16,1.47,19.38h0Z"/>
        </g>
      </g>
      <g id="pollenCenter">
        <path id="PollenBranchCenter" class="cls-3" d="m154.58,139.85c.08,0,.16-.01.23-.02,4.67,1.93,10.02,1.37,14.74-.1-4.48,1.24-9.58,1.66-13.96-.09.05-.12.08-.24.09-.36,4.95-.97,9.49-3.65,13.11-7.12-3.68,3.32-8.26,5.87-13.18,6.68-.05-.15-.13-.3-.24-.43,4.19-3.51,7.66-7.75,11.25-11.84-3.68,3.97-7.32,8.14-11.57,11.51-.1-.08-.2-.16-.31-.24.31-.41.64-.82.93-1.23.87-1.13,1.78-2.24,2.69-3.34-1.33,1.44-2.65,2.89-3.9,4.4-.14-.08-.29-.15-.44-.21.04-.16.08-.32.12-.48.07-.22.14-.43.22-.64,1.26-3.43,3.4-6.56,5.72-9.36-2.13,2.45-4.21,5.15-5.59,8.14.49-3.73-.18-7.6-1.65-11.05-.29-.69-.65-1.35-.97-2.03.3.69.64,1.36.91,2.05,1.65,4.14,2.12,8.93.83,13.23-.14-.04-.27-.07-.41-.09-.74-4.06-2.68-7.9-5.66-10.77,2.83,2.89,4.62,6.73,5.24,10.72-.32,0-.59.06-.78.19-2.09-2.37-4.58-4.35-7.07-6.3,2.39,2.05,4.83,4.17,6.8,6.64-.03.09-.04.18-.04.29.21.13.55.51.86.88-1.92,1.51-4.59,1.85-6.96,1.39,2.43.63,5.16.44,7.26-1.01.05.07.1.13.15.19,0,.03,0,.06,0,.09-.25,2.73-1.48,5.42-3.41,7.41,1.95-1.8,3.29-4.22,3.8-6.84.06-.01.13-.04.18-.07l-.13-.21s.07,0,.07,0c.04.01.09.01.14.02.45,3.96.76,7.96.84,11.96.07-3.96-.08-7.92-.37-11.87,1.4,3.86,5.6,5.95,9.47,6.6-3.71-.77-7.78-2.94-9.02-6.69Z"/>
        <path id="PollenDotsCenter" class="cls-7" d="m163.67,145.71c.42.12.67.56.55.99s-.56.67-.99.55-.67-.56-.55-.99.56-.67.99-.55Zm4.37-13.84c-.16.41.04.88.45,1.04s.88-.04,1.04-.45-.04-.88-.45-1.04-.88.04-1.04.45Zm-2.77-3.6c.24.39.74.5,1.13.27s.5-.74.27-1.13-.74-.5-1.13-.27-.5.74-.27,1.13Zm-5.88-.88c.23.38.73.49,1.1.26s.49-.73.26-1.1-.73-.49-1.1-.26-.49.73-.26,1.1Zm-1.71,6.3c.23.38.73.49,1.1.26s.49-.73.26-1.1-.73-.49-1.1-.26-.49.73-.26,1.1Zm-6.33-11.24c.23.38.73.49,1.1.26s.49-.73.26-1.1-.73-.49-1.1-.26-.49.73-.26,1.1Zm-4.35,4.55c.23.38.73.49,1.1.26s.49-.73.26-1.1-.73-.49-1.1-.26-.49.73-.26,1.1Zm-2.77,4.78c.23.38.73.49,1.1.26s.49-.73.26-1.1-.73-.49-1.1-.26-.49.73-.26,1.1Zm.67,8.91c.23.38.73.49,1.1.26s.49-.73.26-1.1-.73-.49-1.1-.26-.49.73-.26,1.1Zm4.1,6.67c.23.38.73.49,1.1.26s.49-.73.26-1.1-.73-.49-1.1-.26-.49.73-.26,1.1Zm4.82,5.03c.23.38.73.49,1.1.26s.49-.73.26-1.1-.73-.49-1.1-.26-.49.73-.26,1.1Zm15.77-13.39c-.4-.19-.88-.03-1.07.37s-.03.88.37,1.07.88.03,1.07-.37.03-.88-.37-1.07Z"/>
      </g>
    </g>
  </g>
</svg>