<?xml version="1.0" encoding="UTF-8"?>
<svg id="Capa_2" data-name="Capa 2" xmlns="http://www.w3.org/2000/svg" viewBox="0 0 237.75 171.82">
  <defs>
    <style>
      .cls-1 {
        fill: #fff;
      }
    </style>
  </defs>
  <g id="Capa_1-2" data-name="Capa 1">
    <g id="BottomM">
      <path class="cls-1" d="m115.8,1.81c-7.97,37.03-24.73,80.03-53.49,105.8-10.26,9.09-21.53,17.48-34.68,21.89-7.28,2.27-16.29,3.54-22.94-1.64-4.32-3.35-5.32-9.49-4.35-14.5,1.74-9.06,7.33-15.81,13.99-21.37,10.67-8.53,24.02-13.19,37.04-15.87,0,0,.67,2.83.67,2.83-10.07,2.72-19.86,6.63-28.25,12.41-7.65,5.35-15.36,13.55-16.34,22.98-.18,2.6.02,4.84,1.38,6.51,4.16,3.67,11.01,1.79,15.99.2,6.88-2.43,13.63-6.38,19.78-10.56,4.08-2.71,8.58-6.11,12.45-9.13,22.96-17.4,37.59-43.28,48.06-69.74,3.86-9.78,7.19-19.81,9.72-30.02l.97.2h0Z"/>
    </g>
    <g id="TopM">
      <path class="cls-1" d="m51.38,76.12c21.36-4.71,42.83-9.35,63.53-16.48,0,0,.02.04.02.04-15.28,6.11-31.16,10.56-46.98,15.03-5.29,1.45-10.59,2.86-15.9,4.25l-.67-2.83h0Z"/>
    </g>
    <g id="HalfM">
      <path class="cls-1" d="m135.45,42.29c-1.3-1.08-1.86-2.52-2.3-4.05-.61-2.09-1.21-6.6-1.6-8.76-1.58-10.86-6.05-22.24-16.44-27.32,0,0,.4-.92.4-.92,3.69,1.38,7.11,3.49,9.95,6.25,5.75,5.56,8.94,13.29,11.14,20.8.66,2.12,1.8,6.76,2.79,8.67,0,0,.1.15.1.15.13.27.26.18.01.03,0,0-4.06,5.14-4.06,5.14h0Z"/>
    </g>
    <g id="BottomB">
      <path class="cls-1" d="m197.14,53.11c13.08-1.86,30.06-1.1,37.25,12.15,6.73,13.1,2.56,29.84-5.34,41.44-17.6,25.44-57.54,38.95-85.02,22.09-11.37-6.97-18.75-19.35-21.76-31.91,3.38,7.87,7.93,15.22,14.04,20.83,27.54,26.06,78.63,5.05,88.63-28.7,1.88-6.55,3.61-13.68,1.75-20.36-3.42-11.74-18.31-15.88-29.51-15.34,0,0-.02-.2-.02-.2h0Z"/>
    </g>
    <g id="TopB">
      <path class="cls-1" d="m134.85,41.74C153.05,23.96,188.19-6.62,215.46,2.16c11.3,3.76,18.18,16.23,14.54,27.73-3.16,10.61-12.75,17.72-22.84,21.05-3.25,1.17-6.64,1.82-9.99,2.36,0,0-.05-.2-.05-.2,11.95-4.21,25.03-11.31,27.96-24.46,2.75-12.95-7.97-22.69-20.62-23.14-13.27-.58-25.76,5.62-37.03,12.15-11.36,6.83-21.9,15.11-31.64,24.11,0,0-.23.22-.23.22,0,0-.11.11-.11.11,0,0-.06.05-.06.05,0,0-.03.03-.03.03-.01,0-.03.01.04.1l-.54-.54h0Z"/>
    </g>
    <g id="MiddleLine">
      <path class="cls-1" d="m173.26,0c7.78,15.94,1.96,34.9-3.13,50.8-2.85,8.2-5.84,16.35-9.58,24.19-7.37,15.53-16.08,30.38-22.98,46.02-4.3,10.46-10.1,23.69-6.15,34.78,1.49,3.43,3.9,6.63,6.8,8.96,5.18,4.29,13.51,4.77,19.12.76.83-.61,1.6-1.35,2.01-2.36-.05,1.11-.65,2.16-1.33,3.05-3.76,4.53-10.15,6.36-15.91,5.32-6.62-1.19-11.98-6.06-15.33-11.69-12.48-22.22,19.5-66.25,29.78-86.86,4.02-7.51,7.36-15.39,10.51-23.3,6.07-15.68,11.26-33.09,6.19-49.69h0Z"/>
    </g>
  </g>
</svg>