<svg xmlns="http://www.w3.org/2000/svg" viewBox="0 0 238.31 171.83">
    <defs>
        <style>.cls-1{fill:#fff;}</style>
    </defs>

    <g id="BottomM">
        <path class="cls-1" d="M52.66,79c-10,2.81-19.82,6.77-28.12,12.62a46.78,46.78,0,0,0-10.69,10.3,26.35,26.35,0,0,0-5.17,12.57,10.46,10.46,0,0,0,.72,5.34,3.56,3.56,0,0,0,.49.73,4.57,4.57,0,0,0,.68.61,6.61,6.61,0,0,0,2.08,1,15.57,15.57,0,0,0,6,.38,34.05,34.05,0,0,0,6.78-1.5,57.64,57.64,0,0,0,6.82-2.72c2.27-1,4.5-2.2,6.71-3.45a143.92,143.92,0,0,0,12.86-8.41l3.11-2.32L58,101.74l3-2.45L64,96.79a120.67,120.67,0,0,0,10.77-11A163.17,163.17,0,0,0,92.4,60.07a235.26,235.26,0,0,0,13.54-28.39,251.47,251.47,0,0,0,10-29.95l1,.21a252.9,252.9,0,0,1-8.5,30.64A241.49,241.49,0,0,1,96.1,62,172.09,172.09,0,0,1,79.25,89.41a126.34,126.34,0,0,1-10.71,12.23l-2.94,2.85-3,2.72-3,2.66-3.1,2.6a129.44,129.44,0,0,1-13.2,9.6,71.82,71.82,0,0,1-15,7.46,40,40,0,0,1-8.63,2,23.34,23.34,0,0,1-9.69-.71,15.58,15.58,0,0,1-5-2.55,12.09,12.09,0,0,1-2.15-2.14,12.67,12.67,0,0,1-1.57-2.64,17.93,17.93,0,0,1-1-10.22c1.15-6.3,4.42-11.46,8.22-15.73A54.62,54.62,0,0,1,21.6,87.06C31.1,81.44,41.53,78.2,52,76.13Z"/>
    </g>
    <g id="TopM">
        <path class="cls-1" d="M115.51,59.67c-5.11,2.11-10.35,3.89-15.6,5.63s-10.53,3.38-15.84,5-10.62,3.09-15.95,4.57-10.69,2.89-16,4.29l-1.41.37L50,76.58l1.42-.31q8.1-1.74,16.17-3.57c5.38-1.25,10.75-2.51,16.11-3.86s10.69-2.74,16-4.24,10.61-3.06,15.81-4.94h0Z"/>
    </g>
    <g id="HalfM">
        <path class="cls-1" d="M116,1.24A18.39,18.39,0,0,1,126.3,7.1a33.37,33.37,0,0,1,6,10.39c1.43,3.69,2.48,7.46,3.65,11.05a54.73,54.73,0,0,0,1.89,5.16,14,14,0,0,0,2.47,4l-4.82,4.06a20.16,20.16,0,0,1-2.94-6.1,59.8,59.8,0,0,1-1.41-5.86c-.76-3.83-1.36-7.57-2.3-11.18a30.37,30.37,0,0,0-4.29-10.06,16.86,16.86,0,0,0-8.73-6.38Z"/>
    </g>
    <g id="BottomB">
        <path class="cls-1" d="M197.73,53.11a78.8,78.8,0,0,1,13-.69A36.83,36.83,0,0,1,224,55.3a24.27,24.27,0,0,1,6.19,4,23,23,0,0,1,4.79,6,27.56,27.56,0,0,1,2.62,7.2,37.22,37.22,0,0,1,.71,7.39,52.34,52.34,0,0,1-.64,7.14c-.17,1.17-.45,2.31-.71,3.44a32.82,32.82,0,0,1-1,3.39,49.2,49.2,0,0,1-6.36,12.87,62.05,62.05,0,0,1-4.32,5.59,67.61,67.61,0,0,1-4.9,5,70.39,70.39,0,0,1-11.06,8.23A76,76,0,0,1,184,135.13a60.27,60.27,0,0,1-27-.89,47.33,47.33,0,0,1-12.4-5.46,45.74,45.74,0,0,1-10.16-8.72,55.89,55.89,0,0,1-11.6-23.19c3.38,7.87,7.93,15.23,14,20.83a43.48,43.48,0,0,0,21.48,10.86,53.82,53.82,0,0,0,23.94-1.07A68,68,0,0,0,204,117.28a61.34,61.34,0,0,0,16.31-16.74,43.28,43.28,0,0,0,4.8-10.17c.14-.43.27-.88.39-1.37l.41-1.41.38-1.41c.11-.47.22-.94.35-1.41a42.67,42.67,0,0,0,1.07-5.57,27.64,27.64,0,0,0,.3-5.42,19.53,19.53,0,0,0-.76-5.14,17,17,0,0,0-6-8.77,30,30,0,0,0-10.93-5.21,38.77,38.77,0,0,0-12.62-1.35Z"/>
    </g>
    <g id="TopB">
        <path class="cls-1" d="M135.45,41.74a211,211,0,0,1,31.28-26.1,111.68,111.68,0,0,1,18-10A56.78,56.78,0,0,1,205.12.54a30.31,30.31,0,0,1,10.93,1.62,24.17,24.17,0,0,1,9.54,6.21,22.1,22.1,0,0,1,5,21.52,26.78,26.78,0,0,1-5.29,9.68,34.49,34.49,0,0,1-8.1,7c-.76.44-1.49.94-2.27,1.33L212.59,49c-.78.38-1.6.69-2.4,1l-1.2.48-1.24.4a55.26,55.26,0,0,1-10,2.37l-.05-.2C204.1,50.83,210.28,48,215.4,44A32.58,32.58,0,0,0,222,37a22.78,22.78,0,0,0,3.66-8.39,22.17,22.17,0,0,0,.43-4.43,18.36,18.36,0,0,0-.67-4.31,16.65,16.65,0,0,0-4.2-7.47c-4-4.22-9.9-6.62-16.18-6.93a38.78,38.78,0,0,0-9.57.69A56.3,56.3,0,0,0,186,8.88a107.49,107.49,0,0,0-18,8.78,166.44,166.44,0,0,0-16.64,11.45A187.38,187.38,0,0,0,136,42.27Z"/>
    </g>
    <g id="MiddleLine">
        <path class="cls-1" d="M173.85,0a34.61,34.61,0,0,1,3.53,12.49A59.51,59.51,0,0,1,177,25.56a133.79,133.79,0,0,1-6.31,25.24Q168.62,57,166.27,63c-.78,2-1.57,4-2.44,6.05s-1.76,4-2.69,5.95c-3.7,7.86-7.77,15.45-11.71,23.07s-7.84,15.22-11.27,23c-1.7,3.87-3.23,7.79-4.54,11.73a58.57,58.57,0,0,0-2.75,11.89A23.76,23.76,0,0,0,132,155.8a13.37,13.37,0,0,0,.55,1.22c.21.38.41.77.68,1.21a26.84,26.84,0,0,0,1.62,2.42,22,22,0,0,0,3.94,4.11,16,16,0,0,0,10.59,3.51,16.65,16.65,0,0,0,5.85-1.26,11.74,11.74,0,0,0,2.68-1.49,5.64,5.64,0,0,0,2-2.36,5.64,5.64,0,0,1-1.32,3.06,13.16,13.16,0,0,1-2.48,2.35,17.5,17.5,0,0,1-6.31,2.82,17.94,17.94,0,0,1-7.12.15,19.13,19.13,0,0,1-6.75-2.65,24.28,24.28,0,0,1-5.43-4.7,32,32,0,0,1-2.16-2.79c-.33-.46-.67-1-1-1.55s-.6-1.11-.86-1.68a21.34,21.34,0,0,1-1.24-3.52,26.52,26.52,0,0,1-.64-3.59,34.06,34.06,0,0,1,0-7.07c1-9.21,4.31-17.51,7.88-25.48s7.79-15.57,12-23.09S153.13,80.5,157.15,73c2-3.78,3.84-7.53,5.56-11.48s3.4-7.85,4.95-11.82a131,131,0,0,0,7.27-24.45,61,61,0,0,0,.95-12.65,54,54,0,0,0-.59-6.33A48.83,48.83,0,0,0,173.82,0Z"/>
    </g>
</svg>