<?xml version="1.0" encoding="UTF-8"?>
<svg id="Capa_2" data-name="Capa 2" xmlns="http://www.w3.org/2000/svg" viewBox="0 0 237.92 171.82">
  <defs>
    <style>
      .cls-1 {
        fill: #fff;
      }
    </style>
  </defs>
  <g id="Capa_1-2" data-name="Capa 1">
    <g id="HalfM">
      <path class="cls-1" d="m115.11,1.17c8.32,1.23,14.1,8.53,17.05,15.89,1.58,3.69,2.77,7.5,3.95,11.17,1.06,3.1,2.19,7.15,4.16,9.44,0,0-5.22,4.07-5.22,4.07-1.51-2.24-2.13-4.33-2.69-6.33-3.11-12.1-3.31-28.9-17.48-33.27,0,0,.23-.98.23-.98h0Z"/>
    </g>
    <g id="BottomB">
      <path class="cls-1" d="m197.31,53.11c13.08-1.86,30.06-1.1,37.25,12.15,6.73,13.1,2.56,29.84-5.34,41.44-17.6,25.44-57.54,38.95-85.02,22.09-11.37-6.97-18.75-19.35-21.76-31.91,3.38,7.87,7.93,15.22,14.04,20.83,27.54,26.06,78.63,5.05,88.63-28.7,1.88-6.55,3.61-13.68,1.75-20.36-3.42-11.74-18.31-15.88-29.51-15.34,0,0-.02-.2-.02-.2h0Z"/>
    </g>
    <g id="TopB">
      <path class="cls-1" d="m135.03,41.74C153.09,23.96,188.51-6.63,215.63,2.16c11.31,3.76,18.18,16.23,14.54,27.73-3.16,10.61-12.75,17.72-22.84,21.05-3.25,1.17-6.64,1.82-9.99,2.36l-.05-.2c11.95-4.21,25.03-11.31,27.96-24.46,1.23-5.71-.32-12.01-4.44-16.21-6.15-6.7-16.86-8.1-25.75-6.24-16.37,3.43-30.9,12.9-44.1,22.91-5.34,4.13-10.52,8.49-15.39,13.16,0,0-.54-.54-.54-.54h0Z"/>
    </g>
    <g id="MiddleLine">
      <path class="cls-1" d="m173.43,0c7.78,15.94,1.96,34.9-3.13,50.8-2.85,8.2-5.84,16.35-9.58,24.19-7.37,15.53-16.08,30.38-22.98,46.02-4.3,10.46-10.1,23.69-6.15,34.78,1.49,3.43,3.9,6.63,6.8,8.96,5.18,4.29,13.51,4.77,19.12.76.83-.61,1.6-1.35,2.01-2.36-.05,1.11-.65,2.16-1.33,3.05-3.76,4.53-10.15,6.36-15.91,5.32-6.62-1.19-11.98-6.06-15.33-11.69-12.48-22.22,19.5-66.25,29.78-86.86,4.02-7.51,7.36-15.39,10.51-23.3,6.07-15.68,11.26-33.09,6.19-49.69h0Z"/>
    </g>
    <g id="BottomM">
      <path class="cls-1" d="m9.67,121.14c10.49,5.96,26.92-3.66,36.05-9.82,24.69-16.47,42.15-41.11,54.24-68,6.12-13.54,11.37-27.58,15.1-41.98,0,0,.99.21.99.21-2.93,14.75-7.3,29.18-12.87,43.15-9.76,24.51-23.67,48.31-44,65.7-12.53,10.9-34.66,26.62-51.95,19.37-1.18-.52-2.27-1.34-3.25-2.36l5.69-6.28h0Z"/>
    </g>
    <g id="TopM">
      <path class="cls-1" d="m115.11,59.7c-16.25,7.32-33.64,11.82-50.82,16.42-16.72,4.13-34.62,8.1-47.19,20.57-5.39,5.32-10.22,13.02-9.22,20.71.33,1.9,1.01,3.33,2.59,4.17,0,0-4.62,7.44-4.62,7.44C2.27,126.7.18,122.2.02,118.2c-.43-10.41,5.73-19.31,13.14-25.8,9.47-8.06,21.15-12.61,33.02-15.38,5.92-1.33,11.7-2.23,17.51-3.46,17.33-3.59,35.01-7.51,51.41-13.87h0Z"/>
    </g>
  </g>
</svg>