<svg xmlns="http://www.w3.org/2000/svg" viewBox="0 0 66.2 75.7"><g id="Capa_2" data-name="Capa 2"><g id="Capa_1-2" data-name="Capa 1"><path d="M54.3,66.9c-1.15-.34-1.58-.87-2-2.34A33.08,33.08,0,0,0,36.45,4.7L33.24,0,30.37,4.65A33.08,33.08,0,0,0,12.76,63.72a2.46,2.46,0,0,1-1.37,1.11c-3.77-1-6.8-1.08-7.08-.18s3.1,3,7.64,4.42,8.49,1.7,8.81.66-2.28-2.52-5.94-3.85a1.76,1.76,0,0,1-.45-1,32.84,32.84,0,0,0,15.71,5.68l3.16,5.12,3.54-5.18a32.91,32.91,0,0,0,15-5.56,2.69,2.69,0,0,1-.94,2.75c-3.75,1.05-6.42,2.48-6.21,3.4s4.2,1,8.83,0,8.19-2.8,7.95-3.86S58.13,66.21,54.3,66.9ZM2.2,37.63c0-.53,0-1.05,0-1.57L22.16,8.73c.49-.18,1-.36,1.48-.52L2.29,39.9C2.24,39.15,2.2,38.39,2.2,37.63Zm30.9,30.9a30.72,30.72,0,0,1-18.59-6.24A51,51,0,0,1,16,56.79a59.94,59.94,0,0,1,2.92-7.86c1.11-2.53,2.94-2,5.76-2.65s4.61-1.88,6.37-6c1.66-3.92,1.46-13.87,1.43-14.95a.05.05,0,0,0,0,0c.11-.34-2.66-1.52-6.19-2.61S20.1,21,19.76,21.27h0s-6.42,8.81-7.3,13.23S12.3,41,14.29,43.06s3.77,2.72,3.25,5.44a57.85,57.85,0,0,1-2,8.14c-.55,1.8-1.11,3.62-1.73,5.09A30.92,30.92,0,0,1,2.53,42.15L24.42,8a30.83,30.83,0,0,1,30.39,7.68L59.26,54a31.23,31.23,0,0,1-7.53,8.22l-.15-.69a57.72,57.72,0,0,1-1.42-8.27c-.32-2.75,1.51-3.24,3.64-5.19s3-3.94,2.48-8.41C55.75,35.48,50.58,27,50,26.06a.11.11,0,0,0,0,0c-.09-.35-3.07,0-6.68.86-3.45.79-6.2,1.71-6.37,2.1h0s-1.13,10.84.32,15.11,3.14,5.67,5.91,6.48,4.62.46,5.54,3.07a59.1,59.1,0,0,1,2.35,8c.07.33.14.62.2.91A30.71,30.71,0,0,1,33.1,68.53Zm-12-46.17A51.06,51.06,0,0,0,25.89,24a34.64,34.64,0,0,0,5.89,1.49c0,.84-.09,2.89-.46,7.15a8.51,8.51,0,0,0-5-2.62c-3.35-.37-9.62,6.29-12.93,4.65a22.93,22.93,0,0,1,1.81-4.35C18.05,24.89,20.49,22.8,21.06,22.36Zm-1.09-1h.15a30.18,30.18,0,0,1,6.15,1.44,31.48,31.48,0,0,1,5.89,2.28l.12.09A26.33,26.33,0,0,1,26,23.75,27.37,27.37,0,0,1,20,21.39Zm1,21.45a8.34,8.34,0,0,0,6.61-3.11,3.57,3.57,0,0,1-.28,2.44C29,41.12,31,36.12,31,36.12a13.3,13.3,0,0,1-3.5,7.11c-2.22,2.22-8.22,2.28-8.22,2.28A11.23,11.23,0,0,0,25,43.06,5,5,0,0,1,20.92,42.84ZM38.64,29.26c1-.12,2.56-.41,5-1a33.22,33.22,0,0,0,5.84-1.68c.48.88,1.76,3.29,4.34,8.91.38.82.68,1.58.93,2.27-1.69,4-4.85,5.14-8.9.66-3.46-3.83-7.08-3.77-8.27-3.63A18.68,18.68,0,0,1,38.64,29.26ZM37.21,29l.13-.08a31.54,31.54,0,0,1,6-1.84,31,31,0,0,1,6.23-1l.15,0A27.27,27.27,0,0,1,43.6,28,26.69,26.69,0,0,1,37.21,29ZM49.64,47a4.62,4.62,0,0,1-3.82-.2A7.76,7.76,0,0,0,52,43.92a3.3,3.3,0,0,1-.26,2.27c1.65-1,3.51-5.63,3.51-5.63A12.3,12.3,0,0,1,52,47.17c-2.06,2.06-7.64,2.11-7.64,2.11A10.38,10.38,0,0,0,49.64,47Z"/><path d="M48.77,23.86c.67-.13,1.78-.74,1-1.5s-2.13,1.42-2.17,2.24A2.17,2.17,0,0,1,48.77,23.86Z"/><path d="M46,24.59c.46-.51,1-1.67-.1-1.8s-.84,2.42-.38,3.09A2.21,2.21,0,0,1,46,24.59Z"/><path d="M38.64,26.74c0-.82-1.34-3-2.16-2.24s.32,1.37,1,1.5A2.12,2.12,0,0,1,38.64,26.74Z"/><path d="M30.57,23.22a2.17,2.17,0,0,1,1.28-.52c.68,0,1.88-.41,1.24-1.29S30.75,22.43,30.57,23.22Z"/><path d="M30.83,18.17c-.83-.31-1.07,1.68-.84,2.27a1.66,1.66,0,0,1,.6-.89C31,19.24,31.63,18.46,30.83,18.17Z"/><path d="M26.78,19.12c-1,.38-.25,1.38.31,1.77A2.18,2.18,0,0,1,27.86,22C28.16,21.28,27.85,18.72,26.78,19.12Z"/><polygon points="12.29 55.97 12.71 58.11 13.12 55.97 15.26 55.56 13.12 55.15 12.71 53 12.29 55.15 10.15 55.56 12.29 55.97"/><polygon points="44.74 55.49 46.88 55.08 44.74 54.66 44.32 52.52 43.91 54.66 41.77 55.08 43.91 55.49 44.32 57.63 44.74 55.49"/><polygon points="46.88 57.87 46.46 60.05 44.28 60.47 46.46 60.88 46.88 63.06 47.3 60.88 49.47 60.47 47.3 60.05 46.88 57.87"/><polygon points="52.98 55.81 52.77 56.9 51.68 57.11 52.77 57.33 52.98 58.42 53.2 57.33 54.29 57.11 53.2 56.9 52.98 55.81"/><polygon points="18.41 58.59 18 60.73 15.85 61.15 18 61.56 18.41 63.7 18.82 61.56 20.96 61.15 18.82 60.73 18.41 58.59"/><polygon points="19.31 57.36 19.56 56.06 20.86 55.81 19.56 55.56 19.31 54.26 19.06 55.56 17.75 55.81 19.06 56.06 19.31 57.36"/></g></g></svg>