<svg xmlns="http://www.w3.org/2000/svg" viewBox="0 0 76.4 75.7"><g id="Capa_2" data-name="Capa 2"><g id="Capa_1-2" data-name="Capa 1"><path d="M70.81,42.06a32.86,32.86,0,0,0,.27-4.22,33.5,33.5,0,0,0-.27-4.15c1.86-.43,3.73-.83,5.59-1.31-1.92.07-3.81.21-5.72.32a32.56,32.56,0,0,0-2.36-8c1.66-.94,3.34-1.84,5-2.81-1.82.6-3.59,1.27-5.39,1.91a32.74,32.74,0,0,0-4.53-7c1.34-1.37,2.69-2.7,4-4.1-1.57,1.08-3.09,2.23-4.63,3.35a33.16,33.16,0,0,0-6.32-5.5c.89-1.68,1.8-3.34,2.65-5.05-1.19,1.48-2.32,3-3.48,4.51A32.82,32.82,0,0,0,48,6.42c.38-1.86.79-3.7,1.12-5.57C48.34,2.6,47.68,4.38,47,6.14a33.08,33.08,0,0,0-5.3-1L38.2,0,35.05,5.1A32,32,0,0,0,29.4,6.15c-.68-1.77-1.34-3.55-2.07-5.3.33,1.87.74,3.72,1.12,5.57a33.2,33.2,0,0,0-7.62,3.51c-1.16-1.51-2.29-3-3.49-4.52.85,1.71,1.76,3.37,2.66,5.06A32.86,32.86,0,0,0,13.68,16c-1.54-1.13-3.07-2.28-4.64-3.36,1.3,1.4,2.66,2.74,4,4.11A33.12,33.12,0,0,0,8.5,23.77c-1.8-.65-3.58-1.32-5.4-1.92,1.64,1,3.33,1.88,5,2.82a32.47,32.47,0,0,0-2.35,8c-1.91-.11-3.82-.25-5.74-.32,1.86.48,3.74.88,5.6,1.32a33.22,33.22,0,0,0-.27,4.14,32.86,32.86,0,0,0,.27,4.22c-1.86.43-3.74.83-5.6,1.31,1.93-.07,3.83-.21,5.75-.32a32.85,32.85,0,0,0,4.86,12.67l.59.87A32.8,32.8,0,0,0,19.6,65l.58.38c.85.56,1.74,1.09,2.58,1.53.22.13.44.24.63.34.51.25,1,.5,1.56.73.22.1.45.2.64.27s.61.26.91.37.59.23.85.31A31.3,31.3,0,0,0,32,70.15c.51.1,1,.19,1.49.25s1,.12,1.54.17L38.2,75.7l3.53-5.17c.38,0,.77-.07,1.15-.13s1-.15,1.52-.25A31.07,31.07,0,0,0,49,68.94c.31-.1.6-.21.85-.31s.62-.24.89-.35l.65-.27c.53-.23,1.07-.48,1.55-.73l.61-.31a29.82,29.82,0,0,0,2.69-1.59l.61-.4a33,33,0,0,0,8.39-8.35c.21-.29.41-.59.6-.88a32.86,32.86,0,0,0,4.87-12.7c1.91.11,3.81.25,5.73.32C74.54,42.89,72.67,42.5,70.81,42.06Zm-50,21c-.15-.1-.28-.22-.43-.32V52.22a4.19,4.19,0,1,0-8.37,0v1.52c-.15-.24-.31-.49-.45-.74v-.78a4.63,4.63,0,1,1,9.25,0Zm-.68-.51A30.82,30.82,0,0,1,13,55.32c-.19-.26-.37-.53-.55-.8s-.14-.25-.22-.37V52.22a3.94,3.94,0,1,1,7.87,0Zm28.62,4.1-.25.09V58.87c0-4.44-3.95-8.49-10.31-10.59h0c-6.35,2.1-10.29,6.15-10.29,10.59v7.87l-.24-.09V58.82c0-4.55,4-8.69,10.45-10.82l.11,0,.1,0c6.45,2.12,10.46,6.27,10.46,10.82Zm-6.14,1.53a30.18,30.18,0,0,1-8.8,0l-.17,0V60.61a4.56,4.56,0,0,1,9.11,0V68.2Zm6.87-1.8v-7.6c0-4.87-4.22-9.28-11-11.51l-.31-.11-.32.11c-6.77,2.23-11,6.64-11,11.51v7.55l-.44-.19L26,66V58.85c0-5.25,4.42-10,11.55-12.32l.59-.19.58.19C45.87,48.88,50.3,53.6,50.3,58.85v7.22l-.43.17ZM38.26,30.93a4.78,4.78,0,1,1-4.78,4.78A4.78,4.78,0,0,1,38.26,30.93ZM52.49,65l-.06,0V45.94a27.28,27.28,0,0,0-.55-5.44.83.83,0,0,0,0-.15q-.11-.52-.24-1.05a27.73,27.73,0,0,0-.86-2.72c-.12-.32-.25-.64-.39-.95a23.23,23.23,0,0,0-1.08-2.25h0c-.15-.3-.32-.59-.48-.87-.41-.69-.84-1.36-1.31-2-.19-.27-.39-.54-.61-.8a24,24,0,0,0-1.61-1.89l-.72-.73a24.79,24.79,0,0,0-2.1-1.85c-.28-.22-.57-.44-.86-.64a24.64,24.64,0,0,0-2.8-1.79V18h2.4V17h-2.4V14.56H37.62V17h-2.4v1h2.4v4.72h0a25.35,25.35,0,0,0-2.82,1.78l-.85.63c-.74.59-1.45,1.21-2.12,1.86-.25.24-.49.48-.72.73a22.41,22.41,0,0,0-1.63,1.9,9.38,9.38,0,0,0-.61.8,21.72,21.72,0,0,0-1.32,2c-.17.29-.34.57-.48.87A19,19,0,0,0,26,35.61c-.15.32-.27.64-.39,1a25.13,25.13,0,0,0-.87,2.75c-.09.34-.18.69-.25,1l0,.14a27.28,27.28,0,0,0-.55,5.44V65l-.05,0-.52-.29V45.94a26.65,26.65,0,0,1,.51-5.23L8.61,45.87a30.63,30.63,0,0,1-.68-3.13l3.58-.52L23,40.58l.93-.13c.07-.35.15-.7.23-1.05l-1.31.19L11.37,41.23l-3.56.51a29.83,29.83,0,0,1-.28-3.9A30.29,30.29,0,0,1,7.78,34l3.59.51L22.8,36.17l2.22.32c.12-.32.24-.64.38-1L23,35.18,11.51,33.53,7.92,33a30.38,30.38,0,0,1,2.17-7.42L13.4,27.1l10.51,4.8,2.64,1.21c.16-.29.32-.58.49-.87L24.32,31l-10.5-4.8L10.5,24.67a30.66,30.66,0,0,1,4.19-6.51l2.75,2.39,8.73,7.57c.59.51,1.37,1.2,2.28,2a9.05,9.05,0,0,1,.62-.8l-2.24-1.94L18.1,19.79,15.35,17.4a31.42,31.42,0,0,1,5.83-5.08l2,3.08,6.25,9.72,1.39,2.17c.23-.25.48-.5.72-.73l-1.27-2L24,14.86l-2-3.08a30.43,30.43,0,0,1,7-3.24l1,3.54,3.26,11.08.42,1.44c.28-.22.57-.43.86-.63-.12-.41-.23-.77-.32-1.09L31.06,11.79,30,8.26a30.49,30.49,0,0,1,16.34,0l-1,3.54L42.08,22.88c-.1.33-.21.71-.33,1.13l.86.63L43,23.16,46.3,12.08l1-3.55a30.43,30.43,0,0,1,7,3.24l-2,3.09-6.25,9.72-1.3,2c.25.24.49.49.72.74L47,25.12l6.25-9.72,2-3.09a31.23,31.23,0,0,1,5.85,5.09l-2.76,2.39-8.74,7.57-2.28,2c.21.26.41.53.61.8l2.33-2L59,20.55l2.76-2.4a30.72,30.72,0,0,1,4.19,6.52l-3.32,1.52L52.08,31l-2.8,1.29c.18.29.34.58.49.87l2.72-1.25L63,27.1l3.32-1.52A30,30,0,0,1,68.5,33l-3.61.52L53.46,35.18l-2.55.37c.14.31.27.63.38,1l2.31-.33L65,34.52,68.64,34a32.15,32.15,0,0,1,.24,3.83,31.41,31.41,0,0,1-.24,3.9L65,41.23,53.6,39.59l-1.41-.2c.09.34.17.69.24,1l1,.15,11.43,1.64,3.6.52a28.37,28.37,0,0,1-.68,3.17l-15.32-5.2A26.65,26.65,0,0,1,53,45.94v18.8ZM64.18,54.18c-.08.12-.15.25-.23.38s-.35.53-.55.8a30.85,30.85,0,0,1-7.09,7.24V52.22a3.94,3.94,0,1,1,7.87,0ZM60.24,48a4.19,4.19,0,0,0-4.18,4.19V62.79c-.15.11-.29.23-.45.34V52.22a4.63,4.63,0,0,1,9.26,0V53c-.14.25-.29.48-.44.73V52.22A4.2,4.2,0,0,0,60.24,48Z"/><path d="M38.26,40.15a4.44,4.44,0,1,0-4.44-4.44A4.45,4.45,0,0,0,38.26,40.15Zm4.19-4.65-6.33,3.8a2.8,2.8,0,0,1-.53-.37l6.77-4.11A3.84,3.84,0,0,1,42.45,35.5Zm-.19-1.07L35.33,38.7a4.16,4.16,0,0,1-1.26-3,4.07,4.07,0,0,1,.29-1.52l5.11-2.49A4.23,4.23,0,0,1,42.26,34.43Zm-7.38-1.18,3.73-1.71a2.65,2.65,0,0,1,.48.07L34.46,34A3.4,3.4,0,0,1,34.88,33.25Z"/></g></g></svg>