<svg xmlns="http://www.w3.org/2000/svg" viewBox="0 0 66.2 75.7"><g id="Capa_2" data-name="Capa 2"><g id="Capa_1-2" data-name="Capa 1"><path d="M66.2,37.63A33.15,33.15,0,0,0,36.45,4.7L33.24,0,30.37,4.65a33.09,33.09,0,0,0-.29,65.93l3.16,5.12,3.54-5.18A33.15,33.15,0,0,0,66.2,37.63Zm-43.87-29a11.52,11.52,0,0,0,22.15.24,30.87,30.87,0,0,1,16,43l-5.81-1.58s0,0,0,0a12.19,12.19,0,0,0-1-1.2c-.08-.08-.76-1.21-.61-1.21-.86,0-1.44-.43-2.24-.49,1.31.1,3.31.54,3.73-1.13a9.24,9.24,0,0,0,.26-1.56c.07-1.51.11-3,.16-4.62.16,0,.38-.12.6-.15a1.22,1.22,0,0,0,.92.22c.38-.07,1.35-.53,1.39-1,0,.19,0,.32,0,.58a1.71,1.71,0,0,0,.5-1.25c0-.24,0-.49,0-.71a1.06,1.06,0,0,0,.33-.3,1,1,0,0,0,.12-.48,2,2,0,0,0-.22-1.18c-.51-.78-2.18-.71-1.89-2a2.81,2.81,0,0,1,.16-.49,1.12,1.12,0,0,0-.14-1.09c-.21-.3-.42-.59-.64-.88a1.79,1.79,0,0,1-.35-1.26c0-.32,0-.64,0-1a1.93,1.93,0,0,0-1.88-1.81,4.17,4.17,0,0,1-1.35-.17,2.66,2.66,0,0,0-2.46.91,7.49,7.49,0,0,0-.51.61,1.51,1.51,0,0,0-.32.53.59.59,0,0,0,0,.08c-.09.16-.5,1-.39,1.14a.05.05,0,0,0,0,0l.31.08A1.06,1.06,0,0,1,49,31c-.1.2-.26.36-.38.55a1.31,1.31,0,0,0,.24,1.61,1.72,1.72,0,0,1-.2-.8c0-.55.58-1,.59-1.53a2.72,2.72,0,0,1,0,.28c-.08.65,0,1.26,0,1.92a1.86,1.86,0,0,0,0,.47,1.71,1.71,0,0,0,.13.38,6.17,6.17,0,0,0,1,1.38,1.17,1.17,0,0,1-.7-.53,3.15,3.15,0,0,1-.27,1.77,19.56,19.56,0,0,1-2.07,2.13,8.57,8.57,0,0,0,0-1.26,3,3,0,0,0-.33-1c-.31-.6-.73-1.15-1-1.76a7.53,7.53,0,0,1-.84-2c0-.32,0-.64,0-1a8.19,8.19,0,0,1-.06-1.49.73.73,0,0,1,.07-.24,1,1,0,0,1,.21-.24,3,3,0,0,0,.51-.77,3.91,3.91,0,0,0,.68-2.16,5.28,5.28,0,0,1,0-.55c0-.24.18-.31.26-.5a2.92,2.92,0,0,0,.07-.84,1.29,1.29,0,0,0-.14-.65c-.36-.62-.73-1.25-1.6-1.08-.38-.8-.5-.89-1.32-.77a5.42,5.42,0,0,0-1.31.36,2.37,2.37,0,0,0-1.49,2.49c0,.51.15,1,.22,1.51a4.5,4.5,0,0,1,0,.82c0,.51,0,1,.54,1.22a3.23,3.23,0,0,1-1.16,2c-.72.58-1.39,1.22-2.08,1.83a3.12,3.12,0,0,0-1.14,2.21,8.16,8.16,0,0,0,1.07,4.83c.2.32.39.64.58,1l-.1.09-.77-.6c-.08.91-.14,1.69-.23,2.47A9.17,9.17,0,0,0,38,45.83L33.44,44.6l-8,2.09a10.69,10.69,0,0,0,.21-3.78c-.1-.76-.41-1.47-.55-2.21-.06-.34.08-1-.08-1.3a.63.63,0,0,0-.33-.22l-1.07-.42c.75.05,2,.46,2.66,0a1.35,1.35,0,0,0,.65-1.18,1.76,1.76,0,0,1,.1-.68c.22-.57.24-1.23.79-1.65.23-.17,0-.62.16-.88a.64.64,0,0,0,.17.47c0-.47.39-.89.35-1.36a10,10,0,0,1,.12,1.64,8.22,8.22,0,0,0,.34-1.2,6.8,6.8,0,0,1-.24,1.42c.26-.09.34-.42.37-.69s.11-.82.16-1.23c0,.41,0,.82,0,1.23a1.76,1.76,0,0,1-.43,1.13,1.33,1.33,0,0,0,.7-.91,12.08,12.08,0,0,0,.27-2.08c.08-.86.05-1.74.05-2.61,0-1.72,0-3.44.08-5.16a5.54,5.54,0,0,0-.91-3.43,3.55,3.55,0,0,0-4-1.33,2.33,2.33,0,0,0-.92.45c-.29.26-.36.65-.57,1s-.59.63-.57,1.05-.53.5-.75.78a.18.18,0,0,0-.06.09c-.08.23.16.25.22.43s-.23.28-.2.5a.48.48,0,0,0,.3.29l-.16.18a.13.13,0,0,0,0,.07s0,.09.06.12.09.05.11.09c.14.24,0,.48,0,.72s.3.44.55.54l.51.15a.46.46,0,0,1,.2.09.48.48,0,0,1,.09.19,4.17,4.17,0,0,1,.1.78c0,.18,0,.59-.07.73a1.74,1.74,0,0,1-.64.27l-.8.32a.91.91,0,0,1-.1-.16,1.2,1.2,0,0,0-.83-.76,1.94,1.94,0,0,1-.75-.32.78.78,0,0,0-1,0s-.06,0-.09,0l.13-.28-1.6-1.51a.84.84,0,0,1-.28-.55c0-.06,0-.53.11-.51l.39.12a3.36,3.36,0,0,0,.7.15.54.54,0,0,0,.51-.2.47.47,0,0,0,.06-.2c0-.15,0-.42.11-.54s.28-.07.29-.2a2.89,2.89,0,0,1,0-.29c.1,0,.24,0,.29-.14s0-.24.05-.34a.31.31,0,0,1,.27-.06A.7.7,0,0,0,21,23.1c.29-.17.11-.57,0-.8s-.13-.53.16-.72a.46.46,0,0,0,.14-.53c-.09-.43-.14-.88-.26-1.31a2.67,2.67,0,0,0-1.5-2,3.92,3.92,0,0,0-4.41,1.05,2,2,0,0,0-.37.83,4.32,4.32,0,0,0,.19,2.23,1.78,1.78,0,0,1-.57,1.9,1.25,1.25,0,0,1-.63.22c-.23.05-.47,0-.71.06a17.81,17.81,0,0,1-2.27.35,8.79,8.79,0,0,0-1.63.25,1.58,1.58,0,0,0-1.1.87c-.51.95-1,1.88-1.57,2.81a.57.57,0,0,0,0,.69,1.17,1.17,0,0,1,.13,1c-.3,1.4-.59,2.8-.83,4.21A7.74,7.74,0,0,0,6,38c.83,2.66,2,5.14,2.9,7.77a2.91,2.91,0,0,1-.74-1.34c.22,1.74.63,3.43,1,5.15a.88.88,0,0,1,0,.28,2.53,2.53,0,0,0,.15,1l-3.69,1A30.88,30.88,0,0,1,22.33,8.67ZM55.94,39.93a2.12,2.12,0,0,0,.85-.39,3.7,3.7,0,0,1,.33-.21A1.29,1.29,0,0,1,55.94,39.93ZM58,36.31a5.41,5.41,0,0,0-.63-.8,1.51,1.51,0,0,1,1,1.11,1.45,1.45,0,0,1-.15,1A2.05,2.05,0,0,0,58,36.31Zm-13.88,30L44,66.23c.45-.86.94-1.7,1.35-2.58a13.21,13.21,0,0,0,1-2.53c.29-1.19.37-2.43.57-3.64s.44-2.56.66-3.84a5.49,5.49,0,0,1,.37,1.5c.36,2.92.93,5.79,1.49,8.68a31.64,31.64,0,0,1-4.67,2.4l.06-.65ZM38.38,47a3.35,3.35,0,0,1,.24,1.74c-.06.74-.1,1.48-.1,2.23a1.83,1.83,0,0,0,.22.77c.3.61.67,1.19,1,1.8a3.26,3.26,0,0,1,.23,1c.12.84.22,1.68.3,2.53s.09,1.47.15,2.21a11.22,11.22,0,0,0,.14,1.64,1.24,1.24,0,0,1-.2,1.08,2.41,2.41,0,0,0-.52,1.79c0,.23,0,.46,0,.7a.74.74,0,0,1-.28.67,2.34,2.34,0,0,0-.74,1.31c-.13.54-.27,1.07-.4,1.6a30.79,30.79,0,0,1-5.29.47l-.6,0a8.48,8.48,0,0,0,.12-1.67,4.72,4.72,0,0,1-1.22-.41,1.23,1.23,0,0,0-.93-.22c-.34,0-.68,0-1,.09a1,1,0,0,1-1.14-.52c-.4-.68-.83-1.36-1.21-2.06-.58-1-1.12-2.09-1.69-3.14a10.8,10.8,0,0,0-1.66-2.32A3,3,0,0,1,23,55.68a19.5,19.5,0,0,1,.53-2.5c.51-1.8,1.05-3.59,1.58-5.39l8.33-2.15L38.37,47A0,0,0,0,1,38.38,47ZM24,67.16a2.72,2.72,0,0,1-.26-1.35L24,66l1.76,1.63C25.14,67.49,24.57,67.33,24,67.16ZM16.83,63c0-.4.25-.79.22-1.19a2.39,2.39,0,0,0-.5-1,1,1,0,0,1-.11-1.08,10.86,10.86,0,0,0-1,1.37c-.11-.58.36-1.09.64-1.6.54-1,.2-1.73.1-2.71a17.09,17.09,0,0,1,.08-2.86,25.35,25.35,0,0,1,.59-4l.92-.24c0,.45-.06.91-.07,1.36,0,1.37.08,2.74.15,4.12.05.91.14,1.81.19,2.72a2.54,2.54,0,0,0,.48,1.41c.63.84,1.25,1.7,1.89,2.53A2.46,2.46,0,0,1,21,63c.16,1.1.35,2.19.53,3.29a31.13,31.13,0,0,1-4.09-2A2.9,2.9,0,0,1,16.83,63Zm1.28-18.23c-.08,1.29-.17,2.58-.25,3.86l-.7.19c.23-1,.37-2,.57-3,.08-.46.16-.92.25-1.38h.13C18.11,44.53,18.12,44.65,18.11,44.77ZM9.23,40.69c-.22-.5-.52-1-.74-1.59a5,5,0,0,1-.22-.72c-.13-.64,0-1.31-.23-2a2.58,2.58,0,0,1,.57-2.28,22,22,0,0,0-.17,2.43A20.72,20.72,0,0,0,9.23,40.69Zm-3.09,12,3.33-.86h0a1.21,1.21,0,0,0,0,.53c.07.28.4.42.55.67s0,1,.41,1.29c.09.07.22.1.3.19.24.27-.16.65-.21,1s.18.57.34.83a4.86,4.86,0,0,1,.38.91,8.36,8.36,0,0,0,.89,2.11,2.22,2.22,0,0,1-.84-.88,5.43,5.43,0,0,0-.05.9A30.74,30.74,0,0,1,6.14,52.7Zm48.05,7.48a7.82,7.82,0,0,1,.67-2.75,13,13,0,0,0,.63-1.6,5.61,5.61,0,0,0-.11-4.23L60,52.85A30.92,30.92,0,0,1,54.19,60.18Z"/></g></g></svg>