<svg xmlns="http://www.w3.org/2000/svg" viewBox="0 0 65.75 75.7"><g id="Capa_2" data-name="Capa 2"><g id="Capa_1-2" data-name="Capa 1"><path d="M32.87,18.74A19.11,19.11,0,1,0,52,37.84,19.11,19.11,0,0,0,32.87,18.74Zm0,38A18.86,18.86,0,1,1,51.71,37.84,18.87,18.87,0,0,1,32.87,56.7Z"/><path d="M32.87,19.59A18.25,18.25,0,1,0,51.11,37.84,18.26,18.26,0,0,0,32.87,19.59ZM29.28,54.71a15.32,15.32,0,0,1-2.13-.62l18.33-28a16.24,16.24,0,0,1,1.57,1.94ZM17.1,44.78,31.83,20.64c.35,0,.69-.05,1-.05A17.17,17.17,0,0,1,44.79,25.4L26.09,53.69A17.31,17.31,0,0,1,17.1,44.78Z"/><path d="M65.75,37.84a32.72,32.72,0,0,0-4.72-17c0-.91,0-1.75-.11-2.52C60.15,10.21,56.43,5,53.37,6.27c-.28.12-.29,2.49-.32,5.63A32.64,32.64,0,0,0,36.36,5.13L32.86,0,29.71,5.1a32.68,32.68,0,0,0-15.13,5.42,15.47,15.47,0,0,0-.53-3.8,19.75,19.75,0,0,0-.24,4.35c-.53.38-1.05.77-1.56,1.18a36.89,36.89,0,0,0-.54-5.59,41.93,41.93,0,0,0-.28,6.28c-.56.48-1.1,1-1.63,1.49-.18-3.79-.4-7.72-.51-7.72s-.36,4.73-.55,8.82q-.72.78-1.38,1.59c0-4.41.07-10.41-.2-10.41s-1,7.92-1.3,12.41A32.83,32.83,0,0,0,8.4,59.77C7.92,62.84,6.21,67,6.21,68.69,6.21,70.59,7.92,72,10,72h.84c2.11,0,4-1.08,4-3.23a17,17,0,0,0-.9-4A32.67,32.67,0,0,0,29.7,70.58l3.16,5.12,3.52-5.15A32.67,32.67,0,0,0,53,63.87c-.4,3.33-.78,5.69-.78,5.69a3.27,3.27,0,0,0,3.5,3h.76a3.27,3.27,0,0,0,3.5-3s-.84-5.29-1.36-11.24A32.71,32.71,0,0,0,65.75,37.84Zm-2.2,0A30.62,30.62,0,0,1,58.33,55c-.09-1.52-.15-3-.15-4.44,0-3.35,0-5.17-.06-6.15a.29.29,0,0,0,.26-.26.29.29,0,0,0-.31-.26h0q0-.12-.06-.21h.1a.29.29,0,0,0,.31-.26.24.24,0,0,0-.07-.16A170.56,170.56,0,0,0,60.86,25.3,30.53,30.53,0,0,1,63.55,37.84Zm-49.75-24c0,3.61,0,7.36.06,7.89h0v.06h0a.56.56,0,0,1-.58.41.6.6,0,0,1-.56-.31.39.39,0,0,1,0-.18v-2c-.06-1.19-.15-2.89-.25-4.67C12.86,14.59,13.33,14.2,13.8,13.83Zm-2.39,2.11c0,.52,0,1,0,1.52l0,.06,0,4.23a.54.54,0,0,1-.59.46c-.28,0-.6-.11-.67-.31a.53.53,0,0,1,0-.12l0-.4L10,17.48C10.42,17,10.9,16.44,11.41,15.94ZM8.58,19.13c-.05,1.37-.09,2.29-.09,2.29a.32.32,0,0,1,0,.07v.25a.54.54,0,0,1-.59.47.55.55,0,0,1-.6-.47s0-.31,0-.83C7.71,20.3,8.14,19.7,8.58,19.13ZM5.74,23.54A3.09,3.09,0,0,0,7,25.82c.76.68.76,1.2,1.19,1.48l.25.11a.2.2,0,0,0-.06.15.23.23,0,0,0,.24.21h0a2,2,0,0,1,0,.23.21.21,0,1,0,0,.42c0,2.41,1.05,9.85.85,16.82C9.32,49.77,9,54.1,8.7,56.71a30.65,30.65,0,0,1-3-33.17Zm27.13,45a30.54,30.54,0,0,1-19.93-7.39,15.46,15.46,0,0,1-.38-2.26c-.08-1.19-.8-7.33-1-13.85-.25-6.9.58-14.23.62-16.62a.22.22,0,0,0,.23-.21c0-.11-.1-.2-.23-.21v-.23a.24.24,0,0,0,.23-.21.2.2,0,0,0-.1-.16,1.47,1.47,0,0,0,.27-.12c.23-.2,1-1,2.11-1.92s.78-2.35.71-3.58c0-.65-.29-4.9-.59-8.72A30.57,30.57,0,0,1,53,14.71c0,1.5-.08,3.07-.19,4.59a176,176,0,0,0,.33,20.49,16.62,16.62,0,0,0,.75,3.36.26.26,0,0,0-.16.23.29.29,0,0,0,.31.26h.05l0,0a.84.84,0,0,0,0,.17h0a.29.29,0,0,0-.31.26.29.29,0,0,0,.25.26c-.1,1-.07,2.8-.07,6.15s-.28,6.93-.62,10.2A30.54,30.54,0,0,1,32.87,68.54Z"/></g></g></svg>