<svg xmlns="http://www.w3.org/2000/svg" viewBox="0 0 68.06 75.7"><g id="Capa_2" data-name="Capa 2"><g id="Capa_1-2" data-name="Capa 1"><path d="M39.93,40.64a2.3,2.3,0,0,0-.64-.51.93.93,0,0,1-.24-.17,1.14,1.14,0,0,1-.09-.31,2.05,2.05,0,0,0-.3-.73l1.83-1.45c2.91-2.27,5.92-4.61,6.48-7.25a6.35,6.35,0,0,0-1.09-5.5,8,8,0,0,0-6.22-2.62A7,7,0,0,0,34,24.79a7,7,0,0,0-5.71-2.69,7.64,7.64,0,0,0-5.9,2.33,7,7,0,0,0-1.41,5.76c.37,2.74,3.5,5.14,6.52,7.46.57.43,1.13.86,1.68,1.3a2,2,0,0,0-.27.7,3.09,3.09,0,0,1-.09.31,1,1,0,0,1-.25.17,2.68,2.68,0,0,0-.67.54c-10.34.51-17.12,2.24-17.12,3.83S18.11,48,29.21,48.4c1.58.06,3.23.09,4.94.09s3.08,0,4.53-.08C50,48,57.56,46.18,57.56,44.5S50.56,41.12,39.93,40.64Zm-1.33-.45c.21.39.82.39,1.2,1.11A3.24,3.24,0,0,1,40,43L36.2,41.16a23,23,0,0,1,2.08-1.92A7.57,7.57,0,0,1,38.6,40.19ZM29.61,23l.5.11L22.6,32.2a4.48,4.48,0,0,1-.36-.57Zm-6.75,9.58,7.92-9.25a5.82,5.82,0,0,1,2.83,2.31l.14.19h.44l.11-.19a6.19,6.19,0,0,1,5.36-2.77,7.77,7.77,0,0,1,4.64,1.41L30.65,39l-.4-.31-.13-.11H30l-.11,0c-.61-.5-1.26-1-1.92-1.5A29.11,29.11,0,0,1,22.86,32.56Zm6.36,7.63c.14-.26.15-.67.31-.93a23.42,23.42,0,0,1,2.11,1.89L27.81,43A3.24,3.24,0,0,1,28,41.3C28.4,40.58,29,40.58,29.22,40.19Z"/><path d="M67.49,39h-.67c0-.4,0-.79,0-1.19A32.94,32.94,0,0,0,37.46,5.13L34,0,30.8,5.1A32.93,32.93,0,0,0,1.1,37.84c0,.4,0,.79,0,1.19H.57a.57.57,0,1,0,0,1.13h.62a33.65,33.65,0,0,0,.65,4.64H1.57a.77.77,0,1,0,0,1.53h.64A32.73,32.73,0,0,0,6,55.05a21.13,21.13,0,0,1,.59,4.65c0,3.11,3.93,5.5,3.93,5.5.68,2.82,6.91,5.06,6.91,5.06A10.29,10.29,0,0,0,16,65.36a32.58,32.58,0,0,0,14.81,5.22L34,75.7l3.51-5.15A32.58,32.58,0,0,0,52.4,65.07l0,.06c-1.52,1.88-1.59,5.13-1.59,5.13S57,68,57.68,65.2c0,0,3.93-2.39,3.93-5.5a22.43,22.43,0,0,1,.74-5.29,32.57,32.57,0,0,0,3.38-8.08h.76a.77.77,0,1,0,0-1.53H66.1a33.65,33.65,0,0,0,.65-4.64h.74a.57.57,0,1,0,0-1.13ZM63.84,44.8h-.3a.76.76,0,0,0-.77.77.75.75,0,0,0,.68.74l-.06.21a14.23,14.23,0,0,0-4.57,6C57.64,55.4,57,57.26,56.15,59a30.56,30.56,0,0,1-20.5,9.48l.24-.07c0-8.57,1.51-8.17,1.51-9.73a3.32,3.32,0,0,0-1.18-2.46h1.17v-.75h-.74a5.35,5.35,0,0,0,2.64-4.59.41.41,0,0,0,0-.11c10.6-.44,18.53-2.22,18.53-4.35V45.2c-1.52,2.1-9.89,3.37-18.9,3.7-1.58.06-3.18.09-4.76.09s-3.46,0-5.17-.11c-8.85-.35-17-1.61-18.49-3.68v1.23c0,2.1,7.72,3.86,18.11,4.34a.49.49,0,0,0,0,.12,5.35,5.35,0,0,0,2.64,4.59h-.7v.75h1.19a3.32,3.32,0,0,0-1.19,2.46c0,1.56,1.51,1.16,1.51,9.73l.23.07a30.6,30.6,0,0,1-20-9c-.47-.83-.79-1.42-.79-1.42h0c-.67-1.5-1.26-3.2-2.25-5.62a14.11,14.11,0,0,0-4.71-6.07l0-.08h0a.77.77,0,1,0,0-1.53H4.14a3,3,0,0,0,.58-2.59A3,3,0,0,0,3.6,40.16h.67a.57.57,0,1,0,0-1.13H3.71A28.83,28.83,0,0,0,19.84,10.61a30.53,30.53,0,0,1,28.37.05A28.85,28.85,0,0,0,64.34,39h-.55a.57.57,0,1,0,0,1.13h.67a3,3,0,0,0-1.12,2.05,3.09,3.09,0,0,0,.52,2.52Zm-54.62-24,1.13-1.52s1.47,11.58-7,17.36C3.34,36.68,10.22,31.74,9.22,20.84Zm4.85-5,1.82-2S19.57,28.32,5.44,36.16C5.44,36.16,16.88,29.48,14.07,15.88ZM64.61,36.39C56.58,30.52,58,19.32,58,19.32l1.13,1.52c-.85,9.31,4,14.26,5.48,15.51Zm-1.7-.23C48.78,28.32,52.47,13.91,52.47,13.91l1.81,2C51.47,29.48,62.91,36.16,62.91,36.16Z"/></g></g></svg>