<svg xmlns="http://www.w3.org/2000/svg" viewBox="0 0 66.2 75.7"><g id="Capa_2" data-name="Capa 2"><g id="Capa_1-2" data-name="Capa 1"><path d="M66.2,37.63A33.15,33.15,0,0,0,36.45,4.7L33.24,0,30.37,4.65a33.09,33.09,0,0,0-.29,65.93l3.16,5.12,3.54-5.18A33.15,33.15,0,0,0,66.2,37.63Zm-6,14.79A30,30,0,0,1,57.16,57l-8-45.72c.21.12.41.26.62.4ZM24.68,7.9c.5-.14,1-.27,1.51-.38L3.56,46.71a31.13,31.13,0,0,1-.87-3.64Zm4.67,38.81a14.34,14.34,0,0,0,3.14-3.32,5.6,5.6,0,0,0,.81-4.18c.18-.28.26-.49.2-.66a.37.37,0,0,0,.18-.43.25.25,0,0,1,0-.12s0,0,0-.08a.3.3,0,0,0,0-.29.58.58,0,0,1-.06-.17.66.66,0,0,1,.06-.2.71.71,0,0,0,0-.38,4.92,4.92,0,0,1,1.92-1.42c.65-.32,1.3-.63,2-.93a25.15,25.15,0,0,1-.53,2.95c-.36,1.7-.61,3.42-.92,5.13a12.39,12.39,0,0,0,0,2.79,4.72,4.72,0,0,1-.5,2.7c-.12.19-.26.38-.37.58a1,1,0,0,0-.13.67c-.18,0-.3,0-.42,0a.29.29,0,0,0-.23.25.34.34,0,0,0-.53.08c0,.06,0,.12-.09.16l-.11,0a.58.58,0,0,0-.42.48s0,.11,0,.14-.15,0-.23,0-.19.17-.23.3a.48.48,0,0,1-.18.34,1.33,1.33,0,0,1-.19,0,.3.3,0,0,0-.13.46c-.07.09-.2.11-.3.15s-.22.14-.2.25a.82.82,0,0,0-.26-.1.24.24,0,0,0-.23.12c0,.09,0,.21-.07.26l-.08,0a.23.23,0,0,0-.15.27c0-.27-.33-.34-.41-.53s0-.33-.11-.43-.14-.05-.2-.09c-.22-.14,0-.54-.22-.72a2.26,2.26,0,0,1-.2-.13c-.1-.11,0-.3,0-.45a.54.54,0,0,0-.15-.38s-.1-.08-.12-.14,0-.18,0-.26a.65.65,0,0,0-.11-.49s-.08-.09-.09-.15,0-.2,0-.3a.43.43,0,0,0-.12-.39s-.06-.05-.07-.09a.12.12,0,0,1,0-.1c.06-.17.11-.37,0-.5s-.06,0-.06-.09,0-.11.07-.15A.55.55,0,0,0,29.35,46.71ZM47.28,65.07C47.2,65,47.11,65,47,65q-5.55-3.89-11.32-7.51c0-.15.14-.24.28-.29a1,1,0,0,0,.38-.18.6.6,0,0,0,.43.26,3.43,3.43,0,0,0,.55.06.66.66,0,0,0,.28,0,.38.38,0,0,0,.22-.31.46.46,0,0,0,.51-.41c0-.1,0-.23.1-.25a.45.45,0,0,1,.11,0c.12,0,.22-.11.33-.17s.29-.06.4-.15.12-.3.23-.4.15-.09.19-.16,0-.2,0-.3c0-.25.34-.35.47-.57a.59.59,0,0,0,0-.52,1.7,1.7,0,0,0-.29-.46l-.05-.48a.17.17,0,0,1,0-.1.33.33,0,0,1,.07-.13.69.69,0,0,0,.07-.61.19.19,0,0,1,0-.19.57.57,0,0,0,.09-.5.83.83,0,0,0-.09-.16,1.77,1.77,0,0,1-.08-.33.62.62,0,0,0-.65-.52.29.29,0,0,1-.18,0,.24.24,0,0,1-.09-.08,2.07,2.07,0,0,0-.15-.25.27.27,0,0,0-.25-.13.7.7,0,0,0-.14,0,.31.31,0,0,1-.24-.18.87.87,0,0,0-.16-.26c-.08-.07-.23-.07-.27,0a.87.87,0,0,0-.37-.49.38.38,0,0,0,.07-.41,3.13,3.13,0,0,0-.27-.4v0s0-.4,0-.7a12.77,12.77,0,0,1,.89-3.86,33.77,33.77,0,0,0,.95-4.15,18.71,18.71,0,0,1,1.22-2.79,2,2,0,0,0,.51.75.31.31,0,0,0,.23.11c.13,0,.18-.18.21-.3a2.11,2.11,0,0,1,1.26-1.6,1.3,1.3,0,0,0,.5-.21,1.63,1.63,0,0,0,.21-.34,7.8,7.8,0,0,1,.7-.71,1.44,1.44,0,0,0,.26-1.41A1.9,1.9,0,0,0,44.71,32a5.12,5.12,0,0,1-.1-.54c0-.35.24-.64.31-1,.11-.5-.17-1-.18-1.51,0-.32.11-.63.14-.94a2.17,2.17,0,0,0-.3-1.3c.19-.38.75-.53.81-.95a2,2,0,0,1,0-.26c.12-.25.56-.16.69-.39a.78.78,0,0,0,.07-.3,2,2,0,0,1,.34-.54.69.69,0,0,0,.08-.28,1.44,1.44,0,0,0-.55-1.06,4.38,4.38,0,0,0,0-2.07,3.29,3.29,0,0,0-1.25-1.58,5.31,5.31,0,0,0-2.79-1c-.12,0-.3.06-.3.2a2.13,2.13,0,0,0-1,.54.29.29,0,0,0-.33,0c-.1.09-.11.25-.21.33l-.13.1c-.06.05-.1.13-.17.17a.28.28,0,0,1-.13,0,3.62,3.62,0,0,1-.47,0,.7.7,0,0,0-.35,0,.26.26,0,0,0-.18.27c0,.14.22.23.22.37s-.09.17-.16.25a.26.26,0,0,0-.05.3.22.22,0,0,0-.31.11c0,.05,0,.1,0,.15a.46.46,0,0,1-.26.38c-.1,0-.21.06-.31.1a.55.55,0,0,0-.32.54,1,1,0,0,0,.4.6,5.55,5.55,0,0,1,.55.54,3,3,0,0,1,.69,1.32.65.65,0,0,1,0,.39.64.64,0,0,1-.19.27c-.4.43-.77.87-1.14,1.34a1.59,1.59,0,0,0-.81-.48.62.62,0,0,0-.45-.35c-.19-.06-.39-.07-.57-.13s-.58-.38-.91-.43c-.12,0-.24,0-.35,0a2.36,2.36,0,0,1-.28-.12,1.19,1.19,0,0,0-.74-.07,6.52,6.52,0,0,0-.21-1.76.86.86,0,0,1,0-.17.5.5,0,0,1,.09-.21,1.38,1.38,0,0,0,0-1.14,3.88,3.88,0,0,1,1-1.21c.27.26.68.32,1,.57.11.09.2.2.3.3a.69.69,0,0,0,.37.21.34.34,0,0,0,.35-.19c0-.13,0-.29.07-.39a.48.48,0,0,1,.11-.09.23.23,0,0,0,0-.25.25.25,0,0,0,.21-.15.76.76,0,0,1,.06-.2c.09-.16.36-.14.45-.34l.19-.19a2.91,2.91,0,0,0,.39.12.4.4,0,0,0,.11,0,.2.2,0,0,0,.13-.12.84.84,0,0,0,0-.52,1.8,1.8,0,0,1,.11-1,.33.33,0,0,0,.29-.19,1.1,1.1,0,0,0,.07-.36A10.74,10.74,0,0,1,39,16.28a2.2,2.2,0,0,0,1.11-1.38.58.58,0,0,0-.15-.51,1.28,1.28,0,0,0-.25-.15,1.82,1.82,0,0,1-.31-.31A2.87,2.87,0,0,0,38.1,13a4.87,4.87,0,0,1-.53-.21,4.32,4.32,0,0,1-.5-.33,2.65,2.65,0,0,0-3,0,4.07,4.07,0,0,0-.75.8,4.33,4.33,0,0,0-.48.77c-.36.78-.32,1.7-.7,2.47a1.38,1.38,0,0,0-.26.95c-.22.2-.44.4-.7.61a1.43,1.43,0,0,0-.27-.28.41.41,0,0,0-.37-.05c-.12.05-.19.18-.32.21s-.26,0-.34.06-.06.15-.11.21-.33,0-.44.15-.08.19-.16.24a.64.64,0,0,1-.2,0c-.17,0-.24.24-.35.56a2.34,2.34,0,0,0-1.66.34,15.53,15.53,0,0,0-1.37,1,5.43,5.43,0,0,0-1.67,1.56,5.31,5.31,0,0,0-.32.95c-.67,2.36-2.1,4.46-2.82,7-.43.86-1.06,1.61-1.5,2.47-.28.54-.48,1.11-.74,1.66a20.31,20.31,0,0,1-1.07,1.86,11.79,11.79,0,0,1-.76,1.09c-.16.18-.36.55-.54.72a6,6,0,0,0,.62.61,36.87,36.87,0,0,0-.07,3.79,8.78,8.78,0,0,1-.13,2.11c-.16.75-.5,1.46-.59,2.23a18.92,18.92,0,0,1-.1,2.56,33,33,0,0,0-1.24,5.4,1.33,1.33,0,0,0-.41,1.21l0,3c-.43.77-.81,1.58-1.18,2.4A31,31,0,0,1,4.2,48.56L27,7.33a31.39,31.39,0,0,1,6.1-.6A30.59,30.59,0,0,1,48.67,11l7.26,47.47A31.39,31.39,0,0,1,47.28,65.07Z"/><polygon points="45.57 41.37 44.78 42.82 43.33 43.61 44.78 44.41 45.57 45.85 46.36 44.41 47.81 43.61 46.36 42.82 45.57 41.37"/><polygon points="2.82 59.34 2.03 60.78 0.58 61.58 2.03 62.37 2.82 63.81 3.61 62.37 5.06 61.58 3.61 60.78 2.82 59.34"/><polygon points="60.6 12.98 61.39 11.54 62.84 10.74 61.39 9.95 60.6 8.51 59.81 9.95 58.36 10.74 59.81 11.54 60.6 12.98"/><polygon points="10.39 49.49 9.6 50.94 8.15 51.73 9.6 52.52 10.39 53.97 11.19 52.52 12.63 51.73 11.19 50.94 10.39 49.49"/><polygon points="48.54 30.72 48.08 31.57 47.23 32.03 48.08 32.5 48.54 33.35 49.01 32.5 49.86 32.03 49.01 31.57 48.54 30.72"/><polygon points="61.06 15.97 60.21 16.43 61.06 16.9 61.52 17.75 61.99 16.9 62.84 16.43 61.99 15.97 61.52 15.12 61.06 15.97"/><polygon points="54.82 11.41 55.28 10.56 56.13 10.09 55.28 9.63 54.82 8.78 54.35 9.63 53.5 10.09 54.35 10.56 54.82 11.41"/><polygon points="26.38 14.52 25.91 15.37 25.06 15.84 25.91 16.3 26.38 17.15 26.84 16.3 27.69 15.84 26.84 15.37 26.38 14.52"/><polygon points="7.8 61.58 7.34 62.42 6.49 62.89 7.34 63.35 7.8 64.2 8.27 63.35 9.12 62.89 8.27 62.42 7.8 61.58"/><polygon points="43.73 13.8 43.26 14.65 42.41 15.12 43.26 15.58 43.73 16.43 44.19 15.58 45.04 15.12 44.19 14.65 43.73 13.8"/><polygon points="13.36 44.54 12.9 45.39 12.05 45.85 12.9 46.32 13.36 47.17 13.83 46.32 14.68 45.85 13.83 45.39 13.36 44.54"/><polygon points="2.82 57.26 3.29 56.41 4.14 55.94 3.29 55.48 2.82 54.63 2.36 55.48 1.51 55.94 2.36 56.41 2.82 57.26"/></g></g></svg>